/* XPM */
static char *result[] = {
/* columns rows colors chars-per-pixel */
"200 50 49 1 ",
"  c black",
". c #260F00",
"X c #261100",
"o c #582700",
"O c #582C00",
"+ c #583000",
"@ c #6B3401",
"# c #6B3A01",
"$ c #7D3C01",
"% c #7D4301",
"& c #8D4200",
"* c #8D4B01",
"= c #9C4A00",
"- c #8D5101",
"; c #9C5201",
": c #9C5A01",
"> c #AA5201",
", c #AA5C01",
"< c #B85B01",
"1 c #AA6201",
"2 c #B86301",
"3 c #B86A01",
"4 c #C55E01",
"5 c #C56101",
"6 c #C56A01",
"7 c #D16701",
"8 c #D16C01",
"9 c #DD6E02",
"0 c #D17401",
"q c #DD7602",
"w c #D17B01",
"e c #DD7901",
"r c #FF6F01",
"t c #E97D02",
"y c #F47702",
"u c #FF7401",
"i c #F47B01",
"p c #FF7B01",
"a c #DD8302",
"s c #E98001",
"d c #E98A02",
"f c #F48602",
"g c #FF8401",
"h c #F48A01",
"j c #FF8C02",
"k c #F49102",
"l c #FF9302",
"z c #FF9C02",
"x c #FFA102",
/* pixels */
"                                                                                                                                                                                                        ",
" zxxxzxxxxxxzxxxxxzxxxxzxxxxxxxxxxxxxxxxxxxxxxxxxxxxxxxxxxxxxxxzxxxxxxxxxxxxxxxxxxxxxxxxxxxxxxxxxxxxxxxxxxxxxxxxxxxxxxxxxxxxxxxxxxxxxxxxxxxxxxxxxxxxxxxxxxxxxxxxxxxxxxxxxxxxxxxxxxxxxxxxxxxxxxxxxxxxxxx ",
" zxzxxxzxzxxxzxzzxxxzxxzxzxzxzzxzxzxxxxxxxzxxxxxzxxxxxxxxxxxxxxxzxxxxxxxxxxxxxxxxxxxxxxxxxxxxxxxxxxxxxxxxxxxxxxxxxxxxxxxxxxxxxxxxxxxxxxxxxxxxxxxxxxxxxxxxxxxxxxxxxxxxxxxxxxxxxxxxxxxxxxxxxxxxxxxxxxxxxx ",
" xzxzzxzxzzzzxzxzzxzxxzzzxzxzxxzxzxxzzzxxzxzzxzzxzzxzzxzzzxzzxzxxxxzxzxxzxzxzxzxzxxxxxxzzxzxxxzxzxxxxzxxxzxxxxxxxxxxzxxxxxxxxxxxxxxxxxxxxxxxxxxxxxxxxxxxxxxxxxxxxxxxxxxzxxxxxxxxxxxxxxxxxxxxxxxxxxxxxxx ",
" zzzzzzxzzzzxzzzzxzzzzzzzzzzxzxzzzzxxzzzzzzzxzzxzxzzzzxzzzxxxzzzzzxxzzxzxxzxxzxxxzzzzxxzxzxzzxxxxxxzzxzzzxxxxxxzzxxxzxxzxzxzxxxxzxxzzxxzxxzxxzzxzxzxxxxxxzxxxxxzxxxxxzxxxxzxxxxxxxxxxxxxxxxxxxzxxxxxxxx ",
" zzzzzzzzzzzzzzzzzzzzzzzzzzzzzzzzzzzzzzzzzzzzzzzzzzzzxzzzzzzzxzzzxzzxzzzzzzzzzzzzzxzxzzzzxxzzzzxzzzxxzzxxzzzzzzzxzzxxzxzzxzxxzzzxzzxzxzzzxxxzxxzxzxzxxxxxzxzzzxxxxxzxzxzxzxxxxxxxxzxzxzzxxxxxzxxzxzxxxx ",
" zzzzzzzzzzzzzzzzzzzzzzzzzzzzzzzzzzzzzzzzzzzzzzzzzzzzzzzzzzzzzzzzzzzzzzzzzzzzzzzzzzzzzzzzzzzzzzzzzzzzzzxxzzzzzzzzzzzzzzxzzxzzzzxzxzxzxzzzxzzzzzxzzzxzxxxxzxzzxxzxxzxzzxxzzzxzxxxzzxzxzzzxxxxxzxxzxxxxxx ",
" zzzlzzzzzlzzzlzzzzzzzzzzzzlzzzzlzzzzzzzzzzzzzzzzzzzzzzzzzzzzzzzzzzzzzzzzzzzzzzzzzzzzzzzzzzzzzzzzzzzzzzzzzzzzzzzzzzzzzzzzzzzzzzzzzzzzzzzzzzzzxzzxzxzzzzzzzzzzzzzxxzzzxzzxzzxzxxxxzzzxzzzxxxxzzzzzzxxxxx ",
" lzzlzzzlzzllzzzzlzzlzzzzzzzzzlzlzzzzzzlzzlzzzzzzzlzzzzzzzzlzlzzzzzzzzzzzzzzzzzzzzzzzzzzzzzzzzzzzzzzzzlzzzzzzzzzzlzzzzzzzzzzzzzzzlzzzzzzzzzzzzzzzzzzzzzzzzzlzzzzzzzzzzzzzzzzzzzzzzzzzzzzzzzzzzzzzzzxzzz ",
" zzlzzlzzlzzzzlzlzlzzzlzzllzlzlzzzzlzlzzllzzlzlzzzlzlzlzlzzzzzzlzzlzlzlzzzlzlzzllzlzlzzzzlzzzlzzzzlzzzzzlzlzzzzzzzzzzzlzzzlzzzzlzzzzzzzzzzlzzzzzzzlzlzzzzzzzzzzzzzzzzlzzzzzzzzzzzzzzzzzzzzzzzzzzzzzzlzz ",
" zllzlzllzllzlzlzlllawwwwwwwwwazzlzkwwwwwwwwwwwalzzlzawwwwwwwwwalzzlzlzllzlzzzlzlzlzkwwwwwwwwwawazzzzlzawwwwwwwwwazzlzzzzzzzzzzzzzzzlzzzzlzzlzzlzzzzzzzzzawwwwwawwwazzzzzawwwwwawaaazzzzzzzlzzzzzzzzzzz ",
" llzlllzlllzlllzlzdw           ahzl-*           akldw           aklz+3lzlzlzlllzz-:z--           aklzdw           akl+3zzllzllzlzk-:zl+3lzzlzlzzllz-:zldw           dlzdw           adzzzlzzzllzzlzzzzz ",
" llllllllzllzlllllX--         1+%zl --         1+%lX--         1O%zl  3llzlzlzlz- #l --         1+%zzX--         1+%l  3lllzzzlzl- %lz  3zlzzzllzl- #zzX--         3lzlX--         1+%lzlzlzzzlzlzlzzll ",
" lllllllllllllllll  *:#######1O #ll  *:#######1+ #z  -:#######1+ #ll   kallllllw  #z  -:#######1+ #ll  -:#######1+ #z   kazlllllw  #zl   kallllzzw  #lz  -:#%####%3zzlz  -:###%###1+ #zzzlzllzzlzlzllzz ",
" lllllllllllllllll   llllllll0  #ll   llllzlllw  #l   llllllzl0  #ll   1 3lllllw  #l   llllllllw  #ll   llzlzllzw  #l   1 3zllllw  #ll   1 3lzzll0  #ll   llklzlzllllzl   lzllkzlzw  #lllzlzzllzlzlzlll ",
" lllllllllljllllll   llllllllw  #ll   llllllll0  #l   llllllllw  #ll   1  3llll0  #l   lllzllllw  #ll   llllllllw  #l   1  3lllzw  #ll   1  3llllw  #zl   zlzllllllzlzl   lzlzllllw  %zllllllllllllllzz ",
" ljllljllljljlllll   ljljllll0  #ll   lljlljjl0  @l   lllllljl0  #ll   ,   3lll0  #l   llllllll0  #jl   llllllllw  #l   1   3lll0  #ll   1   3lllw  #ll   lllllllllllll   llllllllw  #lllllllllllllllll ",
" jlljjlljjlljljjlj   lllljjlj0  #lj   jllljlll0  #l   jlljljllw  #lj   kO   2llw  #l   llljllll0  #ll   lljlljll0  #l   h+   3llw  #ll   h+   3ll0  #ll   llllljlllllll   llllllllw  #lllllllllllllllll ",
" jljljljljljljjljl   ljljjlll0  #jl   jljjljlj0  #l   ljjllljl0  #ll   lkO   2l0  #l   lljlljll0  #lj   jlllljjl0  #l   lh+   2l0  #ll   jhO   3l0  #ll   llllllllllljl   llljllll0  #llllllllllllljlll ",
" jjjljjjjjjjljljjj   jjjljjjj0  #jj   ljlljllj0  #j   jljjjjlj0  #jl   jjhO   20  #j   jjljjjlj0  #jl   jljljlll0  #j   jlf+   20  #jl   llhO   20  #jl   jlljljjljllll   lllllljl0  #jllljllljllllllll ",
" jjljjjjjljjjjjjlj   jjlljjjj0  #jj   ljjjjljj0  #j   jjjjljjl0  #jj   jjjhO   0  @l   jjjlljll8  #jl   jjljljjj0  #j   ljjhO   0  #lj   lljhO   0  #jl   ljljjljljljll   ljllllll0  #jlljlllljlllljllj ",
" jjjjjjjjjjjjjjjjj  OjjjjjjjjfO @jj  OjjjjjjjjfO @j  OjjljjjjjfO #jj  OjjjjhO  sX #j  Ojljjjjjjf+ #jj  +jljjjjljh+ #j  +jljlhO  sX #jl  OjjjjhO  sX #lj  Oljljljljljjjj  +jljjjjjjhO #ljljjjjjlljjjlljj ",
" jjjjjjjjjjjjjjjjg O0@#@@##@@*tX$jj O0#@#@#@##*s.%j O0######@#*sX%jj OhjjjjjfO jeX@j OhjjjjjjjjjfX%jj +fljjjjjjjjfX%j +hjjjjjfO jeX#jj OfjjljlfO jeX#jj O0#@#@##@#*hjjj O8###@###@*s.%jjjlljjljjjljlljl ",
" jgjjgjgjjgjgjjjjj62          %tfjj62          $tfj62          $tfjj6fjjjjjjjj8jjeej6fjjjjjjjjjjjtfjj6fjjjjjjjjjjjtfj6fjjjjjjjj0jjeejj6fjjjjjjjj0jleejj62          %jlj62          %sfljjjjjjjjjjjjjjjj ",
" jjjgjgjjjgjgjjgjg;8O         <26gj;8O         2qqj=0O         226jg;qjjgjjjjjgjj26j;qjjggjjjjjjjqqjj;qjgjjjjjjjjjqej;qjjjjjjjjjjj26jj;qjjjjjjjjjjj26jj;0O         3jjj;8+         2jjjjjjjjjjjjjjjjjjj ",
" ggjjgjggjjgjgjggj .q80888880q2 #gg .q88808888qq.@j .q88888088q2 @gj .tjjgjgjgjj< @j .tjjjgjjjgjq.@jj .tjjjggjjjjqX@j .tgjjjgjjjj2 @jj Xtjgjgjjjjj2 @jj Xq08808088ejgjj Xe88880000qjjjjjjgjjjjjjjjjjjjj ",
" gjggjgggggggjgjjg  Ogjgjjgjgq  #gg  Ogjjgjgjgt. @j  Ojggjjgjjq  @jg  Ojjggjjjgq  @g  Ojgjjgjgjt. @gj  Ogjgjjgjgt. @g  +jgjgjjgjq  @gj  ojjjjgjggq  @jj  Ojjjjjgjjjjjjj  Ojjjgj. *jjjjjjjjjjjjgjjjjjjjj ",
" gggggggjggggggggg   gggggggg8  @jg   ggjggjgg8  @g   jgjggjgg8  @gj   ggjggggj8  @j   ggjggggj8  @jg   jgjggjgj8  @j   gjgjggjg8  @jg   ggjgjgjj8  @jg   gggjgjggjgjgj   jjjgj;  ,ggjgjggjggjjjjgjgjgj ",
" ggggggggggggggggg   gggggggg8  @gg   gggggggg7  @g   gggggggg8  @gg   gggggggj8  @g   gjgggjgg8  @gg   gjgjgjgg8  @g   jgggggjg8  @jg   gjggjgjg0  @gj   jjgjjgjgjjggg   jgjggt  Xfgjjgjgjjgjgjgjjgggj ",
" ggggggggggggggggg   gggggggg8  @gg   gggggggg8  @g   gggggggg8  @gg   gggggggg8  @g   gggggggj8  @gg   gggggggg8  @g   ggjjjggg8  #gg   gjggjggg8  @gg   gggggggggggjj   gjjgjgO  <gggjjggjggjgjggjgjg ",
" ggggggggggggggpgg   ggggpggg8  @gg   gggggggg7  @g   gggggggg8  @gg   gggggggg7  @g   gggggggg7  @gg   gggggggg8  @g   gggggggg8  @gg   gggggggg8  @gg   gggjgggjggggg   gggjgg<  %ggggggggggjgggggggj ",
" gpgpgpggpgpgggpgg   pgpggggp8  @pg   pggpgggg7  @g   gggpgggg7  @gg   gggggggg7  @g   gggggggg7  @gg   gggggggg8  @g   gggggggg7  @gg   gggggggg7  @gg   ggggggggggggg   ggggggi   tggggggggggggggjggg ",
" gpggpgggppggggppg   ggpgpggg7  @pg   ggggggpg7  @p   gpggpggg7  @pg   gggpgggg7  @g   gggpgggg8  @gp   ggggpggp7  @g   gggggggg7  @gg   ggpggggg8  @gg   ggggggggggggg   ggggggg$  >gggggggggpgggggggg ",
" pppgpppgpgpppgpgp   ppgpgppp7  @pp   pppppggp7  @g   gpgpgppg7  @gg   pppggppg7  @g   pppggppg8  @gg   pgpgpggg7  @g   gpgppggp8  @gp   gggpggpg7  @pg   gggpgggpggpgg   ggggpgg5  Oggpgpggggggggggggg ",
" ggppppppgpggppppg   pppppgpg7  @pp  >o       && @p   pgpgpggp7  @gp   ggpgpgpg7  @p  >o       && @pp  >O       && @g   ggpgpgpg8  @pg   gpgpgpgp8  @gp  >O       &ggpg   gppggggg.  9gggpggpgggpggpgpg ",
" pppppppppppppgppp  <ppgpgpppp& @pg >o         &$=p  <ppgpppppg& @pp  <pgpppgppp& @p >O         &$=pgo>o         &$=p  <ppgpgpgpp& @pg  <pgpgpgggp& @pgO>o         &pgp  <pggppggp>  =pgpgpgpggpggpggpg ",
" ppppppppppppppppp@4ppppppppppp&=pp>o          .ypp@5ppppppppppp&=pp@4pppppgpppgp&=p>o          Xypppp5          .ypg@4ppppgppgppg&=pp@5ppgppgppppp&=ppp4          .ypg@5gpppgppppg9&>ggggpggpggpgggpgp ",
" pppppppppppppppupppppppppppppppppppppppppppppppppppppppppppppppppppppppppppppppppppppppppgppppppppppppppppppppppppppppppgppppppppppgpppgppppppgpgpgpppggppppppgppgpgpppppgpgppgpgpppgpppppppgppppppppg ",
" pppuppppupupppppppppppppppppppppppppppppppppppppppppppppppppppppppppppppppppppppppppppppppppppupppppppppppppppppppppppppppppppppppppppppppppppppgpppppppppgpppppppppppgppppppppgpppppgppppgpppppgpppgp ",
" ppupuupuppupupppupupuupppupupuppppuppupupupuppupuppupupppupppppppupupppupppppuppppppuppppupupppppppppppppppppppppppppppppppppppppppppppppppppppppppppppppppppppppppppppppppppppppppppppppppppppppppppp ",
" ppuuppupupuppupupuupupupupuupppupppupuppuppupupppupuppppupupuppuppppupuppupuppuppppppppuuppupuppppppuppuppppuppppuppppppppupppppppppupupppppuupppppppppppppppppppppppuppppppppppppppuppppppppppppppppp ",
" uupuuuppuupuuuupuupuuupupupururuuuuupuupuupupuuuppupuupupupupuuuuupupuppupuuupuuppuuupuupppupppupuuprpupupuppupuuppupuuuppppupuuppuppppuupppppppuupppupuppuuppuppuppppppuuppuupupupppppuppppuppppupppp ",
" puupuuuuuuuupuupuuuuuuuuuuuuppuupuppuuuuupuuupuuuuuupuuuppupuuupupuupuprpupupupuupurpuppuuppupuppupupuuupuppupupupuuppuppuuppupupppuupupupuupupupuppuupuppuupupupupupuppppupuppppupupuppppppppuupppupp ",
" uuuuuuuuuuuuuuuuuuuupuuuuuuuupuuuuuuuuuuuuuuuuuuuuuuuuuuuuuuuuuuuuuuuuuppuuuuuupuuupuuuuuuurpuurrpuuppupuuuuuuppuuupupuuuupuuuupuuuupuppuupuupuuupuuupppuuppupupupuppuuupupupupuppuppuuupuuuuuppupupup ",
" uuruuuuuuuuruuuuuuuruuuuruupuuruuuuuuruuuruuuuuuuuuuuuuuuuuuuuuuuuuuuuuuupuuupuuuuuuuuuuuupuuuuuuuuuurpuuuupuuuuuuupuuuupuuuupuuuuuuuuuuuuuuuuuupuuuuuuuuupuuupuuuuuupuuuuupupuupuuupuuupuppuupuuupupu ",
" uuururururrurruuuruuuruuuuuurruuuuuuuuuuuuuuuuuuuuuuruuuuuuuuuuuuuruuuuuuruuuruurpuuruuuuuruupuruuuuuuuuuuuuuuuuuupruuruuuuuuuuuuuuuuuuuuupuuuuuuuuuuuuuuuuuuuuupuuuuuuuupuuuuuuuuuuupuuuuuuupuupuupuu ",
" rrrruruuruuurururrurrruurrruuurruruuuuurruuruuuurruuruuruuuuruuuuuuuruuuruuururruuuuruuuuuuuruuuuruuruuruuuruuuuruuuuuuuuuuuuuruuuuuuuuuuuuuuuuuuuuuuuuuuuuuuuuuuuuuuuuuuuuuuuuuuuuuuuuuuuuuuuuuuuuuup ",
" rurrurrrrrrrurrrrrrruurrrurrrrrurrrrrrrurrruurrrrururrrururrurrurrrururrurruururrrurrrrrururruuururupurururururururprururuurruuruuuuuuruuuuuuruuuuuuuuuuuuuuuuuuuuuuuuuuuuuuuuuuuuuuuuuuuuuuuuuuuuuuuu ",
" rrrrrrrrrrrrrrrurrrrrrrrrrrrrrrrrurrrururrurrurrrurrrururrurrurrrururrurrurrurrurrrrurrrrrururruurrururrurrurrrrruruuuuruururruuuruururuuuruuruuuruuuruuuuuuuuuuuuuuuuuuruuuuurruruuuruuuuruurruruuuru ",
"                                                                                                                                                                                                        "
};
