/* XPM */
static char *result[] = {
/* columns rows colors chars-per-pixel */
"70 30 219 2 ",
"   c black",
".  c #FF4800",
"X  c #FF4900",
"o  c #FF4801",
"O  c #FF4901",
"+  c #FF4A00",
"@  c #FF4B00",
"#  c #FF4A01",
"$  c #FF4B01",
"%  c #FF4D00",
"&  c #FF4D01",
"*  c #FF4E00",
"=  c #FF4F00",
"-  c #FF5000",
";  c #FF5001",
":  c #FF5200",
">  c #FF5300",
",  c #FF5201",
"<  c #FF5301",
"1  c #FF5500",
"2  c #FF5501",
"3  c #FF5600",
"4  c #FF5601",
"5  c #FF5800",
"6  c #FF5900",
"7  c #FF5801",
"8  c #FF5901",
"9  c #FF5B00",
"0  c #FF5B01",
"q  c #FF5C00",
"w  c #FF5C01",
"e  c #FF5E00",
"r  c #FF5F00",
"t  c #FF5E01",
"y  c #FF5F01",
"u  c #FF6200",
"i  c #FF6300",
"p  c #FF6201",
"a  c #FF6301",
"s  c #FF6500",
"d  c #FF6501",
"f  c #FF6600",
"g  c #FF6601",
"h  c #FF6800",
"j  c #FF6900",
"k  c #FF6801",
"l  c #FF6901",
"z  c #FF6C00",
"x  c #FF6C01",
"c  c #FF6D01",
"v  c #FF7000",
"b  c #FF7001",
"n  c #FF7300",
"m  c #FF7301",
"M  c #FF7400",
"N  c #FF7401",
"B  c #FF7701",
"V  c #FF7800",
"C  c #FF7801",
"Z  c #FF7A01",
"A  c #FF7B01",
"S  c #FF7E01",
"D  c #FF7F01",
"F  c #FF7E02",
"G  c #FC631F",
"H  c #FC641F",
"J  c #FC651F",
"K  c #FC661F",
"L  c #FC691F",
"P  c #FC6B1F",
"I  c #FC6C1F",
"U  c #FC6E1F",
"Y  c #FC6F1F",
"T  c #FC721F",
"R  c #FC781F",
"E  c #FC6320",
"W  c #FC6420",
"Q  c #FC6520",
"!  c #FC6820",
"~  c #FC6920",
"^  c #FC6B20",
"/  c #FC6E20",
"(  c #FC6F20",
")  c #FC7220",
"_  c #FC7420",
"`  c #FC7820",
"'  c #FC7B20",
"]  c #FC7E20",
"[  c #FC7F20",
"{  c #F97237",
"}  c #F97D37",
"|  c #F6794A",
" . c #F67D4A",
".. c #FF8201",
"X. c #FF8202",
"o. c #FF8501",
"O. c #FF8601",
"+. c #FF8502",
"@. c #FF8602",
"#. c #FF8901",
"$. c #FF8A01",
"%. c #FF8902",
"&. c #FF8A02",
"*. c #FF8C01",
"=. c #FF8D01",
"-. c #FF8C02",
";. c #FF8D02",
":. c #FF9001",
">. c #FF9101",
",. c #FF9301",
"<. c #FF9002",
"1. c #FF9302",
"2. c #FF9401",
"3. c #FF9601",
"4. c #FF9701",
"5. c #FF9402",
"6. c #FF9602",
"7. c #FF9702",
"8. c #FF9A01",
"9. c #FF9A02",
"0. c #FF9D01",
"q. c #FF9E01",
"w. c #FF9D02",
"e. c #FF9E02",
"r. c #FFA001",
"t. c #FFA101",
"y. c #FFA002",
"u. c #FFA102",
"i. c #FC8220",
"p. c #FC8520",
"a. c #FC8820",
"s. c #FC8C20",
"d. c #FC8F20",
"f. c #FC8F21",
"g. c #F98037",
"h. c #F99138",
"j. c #F6824A",
"k. c #F6874A",
"l. c #F6944A",
"z. c #F6974A",
"x. c #F38B5A",
"c. c #F38E5A",
"v. c #F3915A",
"b. c #F08A69",
"n. c #F08C69",
"m. c #F08D69",
"M. c #F08F69",
"N. c #F09169",
"B. c #F09369",
"V. c #F09569",
"C. c #F09669",
"Z. c #F09769",
"A. c #F09969",
"S. c #F09B69",
"D. c #F09E69",
"F. c #F09F69",
"G. c #ED9277",
"H. c #ED9A77",
"J. c #ED9C77",
"K. c #ED9D77",
"L. c #F0A16A",
"P. c #EDA577",
"I. c #EDA677",
"U. c #EDA777",
"Y. c #E99A84",
"T. c #E99B84",
"R. c #E99C84",
"E. c #E99F84",
"W. c #E9A184",
"Q. c #E9A284",
"!. c #E9A484",
"~. c #E9AA84",
"^. c #E9AC84",
"/. c #E6A190",
"(. c #E6A290",
"). c #E6A390",
"_. c #E6A490",
"`. c #E6A590",
"'. c #E6A690",
"]. c #E6A790",
"[. c #E6A990",
"{. c #E6AA90",
"}. c #E6AB90",
"|. c #E6AC90",
" X c #E6AD90",
".X c #E6AE90",
"XX c #E6AF90",
"oX c #E6AE91",
"OX c #E6AF91",
"+X c #E3A99C",
"@X c #E3AD9C",
"#X c #E3AE9C",
"$X c #E3AF9C",
"%X c #E6B090",
"&X c #E6B190",
"*X c #E3B09C",
"=X c #E3B69C",
"-X c #DCB7B2",
";X c #DCBAB2",
":X c #DCBBB2",
">X c #DCBCB2",
",X c #DCBEB2",
"<X c #DCBFB2",
"1X c #D9BEBC",
"2X c #D9BFBC",
"3X c #E0B0A7",
"4X c #E0B1A7",
"5X c #E0BAA7",
"6X c #E0BBA7",
"7X c #DCC0B2",
"8X c #D9C0BC",
"9X c #D9C1BC",
"0X c #D9C2BC",
"qX c #D9C3BC",
"wX c #D9C4BC",
"eX c #D2CBD0",
"rX c #D2CCD0",
"tX c #D2CDD0",
"yX c #CFD2D9",
/* pixels */
"                                                                                                                                            ",
"  y.y.u.y.r.y.t.y.r.r.y.r.y.r.r.r.r.y.r.t.u.y.y.r.r.y.y.r.u.r.y.y.y.y.y.y.y.y.r.r.u.r.r.y.y.y.y.y.r.y.y.y.r.r.r.t.y.r.r.y.r.y.r.r.r.y.y.r.  ",
"  w.w.w.w.0.w.w.0.w.0.w.e.w.0.0.w.q.e.w.w.w.w.0.w.0.e.0.w.w.e.0.0.w.w.0.0.w.w.0.0.w.w.0.0.q.q.0.w.w.w.0.0.w.w.w.q.w.e.w.w.0.0.w.e.w.w.0.w.  ",
"  8.8.9.9.8.9.9.8.8.9.9.9.8.8.8.8.9.9.9.9.9.9.9.9.8.8.9.9.9.8.8.8.9.9.9.9.9.8.8.9.8.9.9.9.8.8.9.8.8.9.9.9.9.8.8.9.8.9.9.9.9.9.8.9.9.9.8.8.  ",
"  7.3.4.7.4.3.7.4.7.4.7.7.7.7.3.6.3.4.7.7.4.7.6.4.4.7.3.7.6.4.6.7.4.4.7.4.4.4.4.4.7.3.7.7.4.7.7.4.7.3.7.4.4.4.4.4.6.7.3.3.6.6.7.7.7.7.4.4.  ",
"  2.2.2.1.,.5.5.,.2.,.5.2.2.2.2.2.,.1.,.,.,.,.5.1.2.5.1.,.,.,.5.5.,.5.,.1.,.,.2.,.5.1.5.5.,.2.1.2.,.2.,.,.,.1.2.1.2.5.,.1.2.2.1.5.2.1.1.5.  ",
"  :.<.:.<.:.:.:.:.:.:.<.:.:.:.:.:.<.<.>.<.<.:.:.<.<.<.:.:.:.<.:.:.<.<.:.:.:.<.<.:.:.<.:.:.<.<.:.:.:.:.<.<.:.:.:.:.:.:.>.<.:.:.>.>.:.<.:.:.  ",
"  =.=.*.=.=.*.*.=.=.*.*.=.=.=.;.-.*.*.;.*.*.-.*.;.=.=.=.=.=.=.=.=.=.*.;.*.-.-.=.=.*.=.;.=.=.=.=.=.*.*.*.=.=.=.=.=.*.*.=.*.;.=.=.;.=.;.=.=.  ",
"  %.%.#.d.d.d.d.d.#.#.#.#.d.d.d.d.d.#.f.d.d.d.f.#.%.#.&.d.d.d.d.#.$.#.d.d.d.d.d.d.f.#.%.d.f.d.d.d.$.#.#.#.#.#.#.#.%.%.#.#.d.d.d.d.d.%.#.#.  ",
"  o.o.=XtXyXyXyXyX&Xh.I.7XyXyXyXyXwX^.wXyXyXyXyXwXI.^.wXyXyXyXyX6XL.s.tXyXyXyXyXyXwXO.=XtXyXyXyXyXI.o.6Xz.O.o.O.+.^.&XU.<XyXyXyXyXwXU.o.@.  ",
"  ....yX5XXXXXXXP.tXF.XXtX~.OXXXXXXXwXa.XXXXXX~.tXXXwXwXXXXXXX~.<XXX..l.XXXXXXOXXXa.a.yX5XXXXXXXP.....wXwX........wXXXOXtX~.%XXXXXXXwX..X.  ",
"  S D yX.XS D S p.yXD..XyXp.S D D .XqXD D S S p.yX.XqXqXS F S S qX.XD S D D ,Xp.S D p.yX.XD S F D S S qXqXD S S S qX.XoXyXp.D S S .XqXS S   ",
"  Z A yX XA A A i.yXS. XyXi.Z Z Z  XqXA A A Z i.yX|.0XqXA A Z A qX XA A A i.yX XA A i.yX XZ Z A A Z A qXqXA A A A qX X XyXi.Z A A  XqXZ A   ",
"  B B yX}.B B B ] yXA.}.yX[ C C B }.0XB B B B ] yX}.0X0XB B V C 0X}.B B C ] yX}.B B ] yX}.B B B B B B 0X0XB B B C 0X}.|.yX] B B C }.0XB B   ",
"  N m tX!.Z.Z.Z.Z.>XZ.{.*XN N n m v.9XN m N N m *X{.9X{.Z.Z.Z.Z.{.{.m M N ' yX{.N m ' tX!.Z.Z.Z.Z.M m 0X!.m N N m *X{.{.>XZ.Z.Z.Z.K.0XM m   ",
"  v b Q.rXyXyXyXyXQ.` R k.b b v v b c.v v b b b c.` J.9XyXyXyXyX[.c.b b v ` rXk.v b b Q.rXyXyXyXyXC.b k.b v b b b b V.c.$XyXyXyXyX:Xg.b b   ",
"  x z yXW.B.B.B.x.9XB.H.yX_ x z x H.8Xx z x x _ yXH.8X#XB.B.B.B.#X].z c x c } z x x _ yXW.B.B.B.x.x x 9XW.c c x x #X].].8XB.B.].;X_ x z x   ",
"  j j yX'.k j l ) yXN.'.yXT l l j '.8Xl j j l ) yX'.8X8Xj l j j 8X'.l l j l @XE.l l ) yX'.l j k j l l 8X8Xk j l l 8X'.'.yX) h j.yXE.l l l   ",
"  g g yX`.g f s ( yXM.`.yX/ g g d `.2Xg g d f Y yX`.8X8Xd f s f 2X`.g d d U yX`.g d Y yX`.g d d g s g 2X2Xg s f s 8X`.`.yXY s d 8X8Xd d g   ",
"  u a yX_.u u p P yXm._.yXI p u u _.2Xp u p i P yX_.2X2Xp p u p 2X_.i p p ^ yX_.p u ^ yX_.u p i p a u 2X2Xp p p a 2X_._.yX^ p a R.yX .u p   ",
"  r r yX).r y y L yXn.).yXL y y e ).2Xe r y r L yX).2X2Xy t r y 2X).r e e L yX).r r ~ yX).).).).T.y y 2X4X).).).).2X).).yX! e y { yX(.r y   ",
"  w q -XK w 0 0 q +Xb.Q -Xq w 0 q | -Xw q w w 9 -XJ 3X| q w q w Y./.w w 9 0 Y.Y.w 9 9 G.eXyXyXyXyXY.q b.1XyXyXyXyX1Xb.Y.Y.9 9 9 w Y.3Xw 9   ",
"  7 6 6 6 5 6 6 7 5 6 6 5 6 8 5 6 7 5 5 7 7 6 5 5 8 5 5 6 7 7 6 6 6 5 6 8 7 7 7 8 6 7 7 W E H H H 7 5 5 6 W G E G 6 5 7 8 8 6 8 8 7 6 6 7   ",
"  3 2 3 3 1 3 4 1 1 2 1 3 2 2 1 4 3 3 3 1 4 1 4 2 1 1 1 2 4 1 2 3 4 2 3 3 1 1 2 4 1 3 4 1 1 1 3 1 3 3 4 3 4 1 2 1 3 3 2 4 1 3 3 4 1 2 4 3   ",
"  > > > , > : : < > < < , : > > > , > < > < , : > , > : > < : : > > : < > : < > : < > , , : > < > : < > : > : , > : : > : : , : , > : , >   ",
"  - - - ; - - = - = - - - - - ; - - - ; - - - - = = - - - - - - - - - - = - - ; - - ; = - ; - - = - - - - - = ; - - - - - - - = ; - - - -   ",
"  % % * * % % % % % % % * % % & & & % * & % % % % * % % % & % % & & % % % % & % % % * % * * % % % % % % % % % % % * & % % & % % % % & % *   ",
"  @ @ # @ + @ @ + @ @ @ @ @ @ + @ @ + @ + + + $ # + @ + @ @ + + $ $ # + + @ $ @ @ @ # @ @ @ @ @ @ @ @ @ @ + @ + $ + @ @ + @ # + + + @ + @   ",
"  O . X . . X X . O . X . X . X X . . . . . o . X O X o X . X X . . . . . . . . O . . . . . o X . O X O X . . X . O . X O X . o . . X X .   ",
"                                                                                                                                            "
};
