/* XPM */
static char *result[] = {
/* columns rows colors chars-per-pixel */
"100 100 35 1 ",
"  c #000000",
". c #2F1600",
"X c #261900",
"o c #311700",
"O c #321800",
"+ c #3D1E00",
"@ c #3E2500",
"# c #3C2800",
"$ c #422300",
"% c #462B01",
"& c #492F01",
"* c #572B00",
"= c #493001",
"- c #553400",
"; c #693400",
": c #693B00",
"> c #614201",
", c #694401",
"< c #694801",
"1 c #B55701",
"2 c #A66601",
"3 c #A67101",
"4 c #C35D01",
"5 c #C26101",
"6 c #FF7601",
"7 c #FF7B01",
"8 c #E48B01",
"9 c #FF8301",
"0 c #FF8B01",
"q c #E29A02",
"w c #FF9401",
"e c #FF9C02",
"r c #FFA402",
"t c #FFAC02",
"y c #FFB102",
/* pixels */
"                                                                                                    ",
"                                                                                                    ",
"  666666666666666666666666666666666666666666666666666666666666666666666666666666666666666666666666  ",
"  666666666666666666666666666666666666666666666666666666666666666666666666666666666666666666666666  ",
"  666666666666666666666666666667676666666666666766666666666666666667666666666666666666666666666666  ",
"  666666666666667666766666666666666666666666666666666666676666666666666666666666666666666666666666  ",
"  666666766667666666666766666676667666767666666666666666666666666667666666666666667666666676767667  ",
"  667676767666666676766667677666766676676676766666767676667666667666677666677676676676667666666666  ",
"  676666676.+6667667666767677667666776766667676777666666767666766676677676676666776666767766667676  ",
"  76777776o<<+676776776776766676777666677776767676777766676677677667766666767776666767766667766767  ",
"  6767676o<yt<@67676767667777667767667776676676666676777776766676777667777677677767676767677767676  ",
"  776776O<yyyt<+7677677777677777777777677777777777767777677767777766777667767777677776767776767777  ",
"  777777$<yyttt<+777777777677777677777777777777767777777777777777777677776777777777677777677767777  ",
"  7777776$<ttyty,+77777777777777777777777777777777777777767777777777777777777777777777777777777776  ",
"  77779767$<yttyt,+7777777777777777777777777777777777776777777777777777777777777777777777777777777  ",
"  777777776$<tttyy,+777777777777777777777777777777777779777777777777777777777777777777777777777777  ",
"  7977777777$<ttttt,+67777777779797997777777777796797776777967777977977777777797777777777977777777  ",
"  77797997796$<ttttt<+9779977977777777797977979779777979797779977777777797977777979777977777779777  ",
"  979797777797$<trttt<+777777797977779777979779777797797779977777977997977777797777797777979979797  ",
"  7977979799797$<tttrr<@97999779977977797779797999779777977797997799777799799777799779979779777779  ",
"  97979797979797$,ttttt,+7979797797997979979797779979779977777799797797979797779979797777797977977  ",
"  799799777979799$,rtrtr,@797799979779799797977997797997799999797779979797977997799779999779779799  ",
"  7999799997977979$,rtrtr<@79997997997977979997999779999977997997979797977999799799797979999997997  ",
"  99797997999999999$<rtrrr,@7979797997999979799797999797999799979997999999799997979979997797799799  ",
"  999979979999977997$,rrrrr<@799997997999799999997977999797999799797999797999799999799979999799979  ",
"  9999999999999999999$,ttrrr,+99999999999999979999999999999999999999799999979999999799999979999999  ",
"  99999999999999999999$,rrrrr,$9999999999999999999999999999999999999999999999999999999999999999799  ",
"  999099999999999999999$,trrrr,+999999999999999999999999999999999999999999999999999999999999999999  ",
"  9999999990999999999999$<rrrrr,@99999999999999999999999999999999999999999999999999999999999999999  ",
"  09909999999990999090999$,rrerr,$0999099990990999900999999099999909909999090999999999999999990999  ",
"  999909009909990999999099$,rrree,+999999009900999999999099909099090999099999909099099999099909999  ",
"  9090909909900990099009900$,rerre,$00909099099090909090909099909099909900900999099090909900990909  ",
"  99999009090909900990090909$,rrere,$9909909099099900909909090909090909099909090909090900909090999  ",
"  000009909000900909090990900$:ereer,$900909009000909090900909090909099000090909099009099990909000  ",
"  9000000090900909000990000990$,ereee,$00009990009090990000090900090990900909090990090900090000909  ",
"  00099000090000000900009000900$,eeree:@9000000900000900090900909000000099000009000900909009099000  ",
"  000000090000000009000000000009@,eeree,$009000009000000000000900009090000090000000009009000000090  ",
"  0000000000000000000000000000000$,eeeee,$00000000009000000000000000000000000000090000000000009000  ",
"  00000000000000000000000000000000$,eeeee:$0000000000000000000000000000000000000000000000000000000  ",
"  00000000000000w000000000000w00000$:eeeee:$000000000000000000000000000000000000000000000000000000  ",
"  w000000000000000000000000000000000$,eewew,$00000000000000w0w000w0w000w0000000000w00w00000000ww00  ",
"  000w0ww0w00ww0w0w0w00ww00w0w0w0w000@:eeeew,$w00w0000w0000000w0000000000w000w0000000000w00w000000  ",
"  0w00w0w00ww0w0000000w0w0w0000000w0w0$,eewew:$ww00ww00ww0w000000ww0w0w0w00ww00ww00ww0w00ww00ww0w0  ",
"  w0ww0w00w00w0ww0wwwww00w00www0w0ww0w0$:wewew,$0ww00ww00w0www0w0w00w00ww00w0w0w00w00w00000w0w000w  ",
"  w0www0w0ww0w0w0ww00w0ww0www00ww00w0ww0@:wewww:$w0www00w00www0ww0www0w0w0www0w0w0w0w00wwww0w0w000  ",
"  www0www0w0www0ww0www0ww0w0www0wwwww0w0w$,wewww:%0w0wwwwww0w0w0w0w0ww0w0ww0w00www0wwww0w00w0w0www  ",
"  0wwww0wwwww0wwwwwwwwwwwwwwwwww0ww0w0www0@:wewww:$w0ww00wwwwwww0ww00ww00ww0wwwwwwww0wwwwwwwwwwwww  ",
"  wwwwww0wwwwwwww00ww0wwww0ww0wwwwwwwwwwwww$:wwwww:$wwwwww0www0wwwwwwwwwwwwww0www0w0ww0ww0w0ww0w0w  ",
"  wwwwwwwwwwwwwwwwwwwwwwwwwwwwwwwwwwwwwwwwww@:wwwww:%wwwwwwwwwwwwwwwwwwwwwwwwwwwwwwwwwwwwwwwwwwwww  ",
"  wwwwwwwwwwwwwwwwwwwwwwwwwwwwwwwwwwwwwwwwwww$:wwwww:$wwwwwwwwwwwwwwwwwwwwwwwwwwwwwwwwwwwwwwwwwwww  ",
"  wwwwwwwwwwwwwwwwwwwwwewwwwwwwwwewwwwwwwwwewe@:ww0ww:$wwwwwwwwwwwwwwwwwwewwwwwwwwwwwwwwwwwwwwwwww  ",
"  weewwwewweewweewwewewwewwewwewwwwewwwwwwwwwwe$:ww00w:%wwweewwwwwewwewwwwwwwwewwwwewwwwwwewwwwwww  ",
"  wewwwewwwewwewwewwewwewwwwewwewewewwewewwwewww@:w0w00:%wewwwewewwwwwweweewweewewwewwwewwwewweewe  ",
"  weeeewewewewweweewwwewweewewweewwwewwewewewweww@:00ww0:%wwewewwweweewwewwwwwwwwewwewewweewewwwew  ",
"  ewwewwewweweeweweweweweeweeweweweeewwwweeeweweww@:0w0w0:$eweweweewweweweweewwwewewewweweweewewwe  ",
"  weeweeeeeweeweweweeeweewewweweweewweeeeweweweweee@:00000:%eweweeweweweeweweeeeeeweewewewewweweew  ",
"  eeeeweweeeeeeweweeweweeweeeweweeweeeewweeeeweeewew@:w0000:$weeweweweweweweweeeweweweweweeeewewew  ",
"  eeweeeeeeweweeeeeeeeeeeeeweeeeweeeeweeeeweeeweeeeee@:00000:%weeeeeweeeeeeeeeweeeeeeeeeeeeweeewee  ",
"  eeeeeeeeeeeeeeeeeeeweeweeeeeeeeeeeeeeeeeeeeeeeeeweee@:00000:%eeeeeeeeeeeeweeeeeweeeeeeweeeeeeeee  ",
"  eeeeeeeeeeeeeeeeeeeeeeeeeeeeeeeeeeeeeeeeeeeeeeeeeeeee@:00000;%eeeeeeeeeeeeeeeeeeeeeweeeeeeeeeewe  ",
"  eeeeeeeeeeeeeereeeeeeeeeeeeeereeeeeeeeeeeeeeeeeeeeeeee@:90990;%eeeeeeeeeeeeeeeereeeeee8Xeeeeeeee  ",
"  reeereeeeeeeeeeeeeereeeeereeeereeeeeeeeeereeeeeeeeeeree@:00090:%eeereeeeeeereeeeeeeee2  ereereee  ",
"  eereerreererrereeeerreeeererereeereeereereererreeeeeeree@:09090;%eeeeeerereeerereeee-*5 eeereeee  ",
"  erereereereeereerreeeerreeereeereerreereeereereeerreeeere@:09099:%rereeeeereeeeeerer 79 ereeerer  ",
"  erererreeeerreeeerererererererereeerrererereeeerreereeeere@:99090;%ereereereereereee 77 reeerere  ",
"  rererererrererrrerrerererereererrrreererererrrreerrerrreerr@:90999:%errereerrereerre 99 erreeree  ",
"  rrrerrererrreererrererrreerereerrrereerrrerererreereerrrerrr@;99999;%rerrerreerereer 77 reerreer  ",
"  errrrerrreerrrerrerrrrerrrerrrrreerrrreerrrrererrrrrreerrrerr@:99999;%rrerrerrerrrrr 97 rrrerrrr  ",
"  rrrerrrrrrrrrrrrrrerrerrrrrrrrrerrrrrrrrerrrrrerrrrrrrerrerrer@;99999;%rrrrrrrrrrrre 77 rrrrerrr  ",
"  rrrrrrerrrrrrrrrrrrrrrrrrrrrrerrrrrrrrrrrrrrrerrrrererrrrrrrrrr@:99999;&rerrerrrerrr 77 rerrrrrr  ",
"  rrrrrrrrrrrrrrrrrrrrrrrrrrrrrrrrrrrrrrrrrrrrrrrrrrrrrrrrrrrrrrrr@;99999;&rrrrrrrrrrr 77 rrrrrrrr  ",
"  rrrrrrrrrrrrrrrrrrrrrrrrrrrrrrrrrrrrrrrrrrrrrrrrrrrrrrrrrrrrrrrrr@;99797;%rrrrrrrrrr 77 rrrrrrrr  ",
"  rrrtrtrrtrrrrrrrrrtrrrrrrrrrrrrrrrrrrrrrrrrtrrrtrrrrrrrrrrrrrrrrrr#;99979;%rrrrrrrrr 77 rrrrrrrr  ",
"  trrrrrrrrrrrtrtrtrrrrtrrrrtrtrrrtrrtrrrtrrrrrrrrrrrrtrtrtrtrrttrrrr@;97997;%trtrrrrr 79 rrtrrtrr  ",
"  rrtrrtrttrrtrtrrrtrrrrrrttrrrtrtrtrrttrtrtrtrttrtrrtrtrtrrrrtrtrtrrt#;97799;&rrrrtrt 77 rrrtrrrt  ",
"  rtrtrrrrtrrtrrrtrtrtrttrrrttrrrtrrtrrrtrrtrrrtrrtrrtrrrrrttrrrrrrtrrt#;79797;&rtrtrr 77 trrrrtrt  ",
"  trtrtrtrrrtrtrttrttrtrrttrrtrttrrrtrtrrrtrrrtrrtrtrrtrtrtrtrrttrrttrtr#;97797;=rtrtr 77 rttrtrtr  ",
"  rtrttrttttrtrttrtrrtrtttrttrtrrtttrtrtttrttrrtrttrttrtrtrtrttrrtrtrtrtt@;77797;=rtrt 77 trrtrtrr  ",
"  trtrttrtrrtrtttrtrtrrtrttrtrtrtrtrtrrttttrttrtttttrtrrttrrtrttttrrttrrtt#;77777;&ttr 77 rttttrrt  ",
"  tttttrtttttttrrtttrtttrttrtttttrttttttrrttrttttrrttttttrttttrttrtttrttrtr#;79777;=tr 77 ttrrtttt  ",
"  tttrtttrtttrtttttrttttrttttrttttttrttttttttttrrttrtttttttttttttttttttttttt#;77777;&t 77 rtttttrt  ",
"  rttttttttttttttttttttttttrttrtttttttrttrtttttttttttttttrtrtrtttrtttrtttrtrr#;77777;&;67 tttrrttt  ",
"  ttttttttttttttttttttttttttttttttttttttrttttttttttttrtttttttttttttrttttttttyt#;777771676 tttttttt  ",
"  ttttttttttttttttttttttttttttttttttttttttttttttttttttttttttttttttttttttttttttt@;76776767 tttttttt  ",
"  tttytyttttttyytttytttttttttttttttttttttttytttttttttttttttttttttttttytttttttttt@;7767677 tttttyyy  ",
"  tttttttttytttttttttttyttytttttttttttyttttttttttttttttttttttytttttttttttytttytyy#4776766 ttttttyy  ",
"  tyttttyttytytttyttytttytytytyttyyttyytyttttyttyttytyttyttttt>                  ;6667676 tytttyyy  ",
"  ytytyyttyttyytyttytyytytttytyttyttyttytytyytytttytttyyttyty3*97797977777777777777676767 tyttytyy  ",
"  tyyytttyttyttyytyttytttyytyyttytttyttttytytttyytttyyttyyyyq 599777797777777776677667666 ytytyyyy  ",
"  tytyyytyyyyyyyyytyytyyyttyytyytyyytyytytytyyytyyyyytyyyyyyX                             tytyytyy  ",
"  yytyyytyyttytttyytyytyytytytyyyttyyytyyyyyyytyttytyytyyyyyyyyyyyyytyyyytyyyyyyyyyyyytyyyyttytyyy  ",
"  ytyyytyyyyyyyyyyyyytyyyyyyyyytyyyyyyyyyttytyyyyyyyytyyyyyyyyyytytyyyyttyytyytyyytyyyytyyyyytyyyy  ",
"  yyyyytyyyyyyyyytyyyyyyyyyyyytyyyyyyyyyyytyyyyyyyyyytyyyyyyyyyyyyyyyytyyyyytyyyytyyyyyytyyyyytyyy  ",
"  yyyyyyyyyyyyyyyyyyyyyyyyyyyyyyyyyyyyyyyyyyyyyyyytyyyyyyyyyyyyyyyyyyyyyyyyyyyyyyyyyyyyyyyyyyyyyyy  ",
"  yyyyyyyyyyyyyyyyyyyyyyyyyyyyyyyyyyyyyyyyyyyyyyyyyyyyyyyyyyyyyyyyyyyyyyyyyyyyyyyyyyyyyyyyyyyyyyyy  ",
"  yyyyyyyyyyyyyyyyyyyyyyyyyyyyyyyyyyyyyyyyyyyyyyyyyyyyyyyyyyyyyyyyyyyyyyyyyyyyyyyyyyyyyyyyyyyyyyyy  ",
"  yyyyyyyyyyyyyyyyyyyyyyyyyyyyyyyyyyyyyyyyyyyyyyyyyyyyyyyyyyyyyyyyyyyyyyyyyyyyyyyyyyyyyyyyyyyyyyyy  ",
"  yyyyyyyyyyyyyyyyyyyyyyyyyyyyyyyyyyyyyyyyyyyyyyyyyyyyyyyyyyyyyyyyyyyyyyyyyyyyyyyyyyyyyyyyyyyyyyyy  ",
"                                  X           X           X                                         ",
"                                                                                                    "
};
