/* XPM */
static char *result[] = {
/* columns rows colors chars-per-pixel */
"100 100 34 1 ",
"  c #000000",
". c #2F1600",
"X c #261900",
"o c #321800",
"O c #3D1E00",
"+ c #3E2500",
"@ c #3C2800",
"# c #422300",
"$ c #462B01",
"% c #492F01",
"& c #572B00",
"* c #493001",
"= c #553400",
"- c #693400",
"; c #693B00",
": c #614201",
"> c #694401",
", c #694801",
"< c #B55701",
"1 c #A66601",
"2 c #A67101",
"3 c #C35D01",
"4 c #C26101",
"5 c #FF7601",
"6 c #FF7B01",
"7 c #E48B01",
"8 c #FF8301",
"9 c #FF8B01",
"0 c #E29A02",
"q c #FF9401",
"w c #FF9C02",
"e c #FFA402",
"r c #FFAC02",
"t c #FFB102",
/* pixels */
"                                                                                                    ",
"                                                                                                    ",
"  tttttttttrtrrrrrrrrrerreeeeeeeeeweewwwwwwwwqwwqqqqq99q9q9q99999898889888886868668666665665655555  ",
"  ttttttttttrrtrrrrerereeereeeewewewwewwwwwwqwqqwqqqqqqqq99999999899988888888886866666666656556555  ",
"  tttttttttrttrrrrrrreerrereeeeeewweeewwwwwqqwwqqqqqqqq9q99999999898899888888868688666666565655555  ",
"  ttttttttrtrrrrrrrrrrrereeeeeeeeeewwwwwwwwwwqwqqqqqqqq9q9qq99999989888888688686866666666565555555  ",
"  ttttttrttrrtrrrrrereereeeeeeeeweweewwwwwwwqwwqwqqqqqqq9q9999999898988888888868688666666566556555  ",
"  tttttttttrtrrtrrrrrrrerereeeeeeeeewwewwwqwwqwqqqqqqq9qq99999999989989888886886666866666655655555  ",
"  tttttrtrtrttrrrrerreerreeeeeweweewewwwwwwwqwqqwqqqqqqq9999999998989888888888868866666#o565655555  ",
"  ttttttttrtrrtrrrrrrrrreereeeeeewewwwwwwwwwwwwqqqqqqq999qq999999989988888868866666666#,,o56555555  ",
"  tttttttttrtrrrrrrreererereeeeeeeewewwwwwwqwqwwqqqqq9qqq9999999989888898888686886866#,tr,.5655555  ",
"  ttttttrtrtrtrrrrrrrrerreeeeeeewewewewwwwwwqwqqqqqqqq9q9qq9999998999888888886886866#,rrtt,.555555  ",
"  tttttttrrtttrrrrrrrrreeeeeeeewewewweewwwwwqwqqwqqqqq99q9q999999898888888888686866#,rrttr,O565555  ",
"  tttttttttrrrtrrrerrrerrereeeeeeeewwwwwwwwqwqwqqqqqqqqq9q999999998999888888868686#,rrrtr,O5555555  ",
"  tttttrtrrttrrrrrrrerreeeeeeeeewweweewwwwqwqqqwqqqqq9q9q999999998988889888688686#>rrrtr,O65655655  ",
"  ttttttttttrrtrrrrrrererreeeeeweewewwwwwwwwwwwqqwqqqqqq9qq999999989898888886886#>rrtrr,O665555555  ",
"  ttttttttrrtrtrrrerrrerreeeeeeeweewwwwwwwwwqwqwqqqqqqq9q9999999989988898888868#>rrrrr>O6656655555  ",
"  tttttttttrrtrrrrrrrereeereeeeeeeweeewwwwwqwqwqwqqqq99qq9q9q99998989888888686#>rrrrr>O65565555555  ",
"  tttttttrttrrrrrrrrreererreeeeeewewwwewwwwwwqwqqqqqqqqq99q999999998888888888#>rrrrr>+666656555655  ",
"  ttttttttrrtrtrrrrrrrreereeeeeeeewewewwwwwwqwqwwqqqqq99q9999999989998988888#>rrerr>O6666565565555  ",
"  ttttttrtttttrrrrrrrereeeeeeeeweewwwewwwqwwwqwqqqqqqqqqq99q999998989888888#>rrerr,O66666656655555  ",
"  ttttttttrrrrrrrrrrererrereeeeeweeewewwwwwqwqqqwqqq9q9q9q9999999889889888#>erree>+666666565555555  ",
"  ttttttrttrrtrrrrrererereeeeeeeeewwwwwwwwwwqwwqqwqqqq9qq9999999998989888#>errer>O6666666655656555  ",
"  tttttttttrtrtrrrrrrrerereeeeewwweeewwwwwwqwwqwqqqqqqq99qq9999898989898#>eeeer>+86666665656555555  ",
"  ttttttttttrtrrrrrrrrereeeeeeeeeeewewwwwqwqwqqqqqqqqqqqq99999998988988#>eeeee>O666666666656555555  ",
"  ttttttttttrrrrrrreerrerereeeeeewwewwewwwwwwwwqwqqqqq99q99qq999999898#>ererr>+8868666665665555555  ",
"  ttttttttttrttrrrrrrereeeeeeeeeeewwewwwwwwwqqwqqqqqqq9q99q9999999898#>eeeee>O86666666665655665555  ",
"  tttttttttttrrrrrerrrerrreeeeewewwewewwwwwqwqqwwqqqq9qqq99999998998#>eeeee>O868868666666666555555  ",
"  tttttttttrtrrrrrrrerreeeeeeeeeeewewwwwwwqwqwwqqqqqqq99q9q99999998#>weeee>+8686866666666655655555  ",
"  tttttttttrtrtrrrrrrereerreeeeeewewewwwwwwwwwqqqqqqq9qq9q99999998#>eeeee>+86868668666666556555555  ",
"  ttttttttttrrrrrrrrrrereereeeeewewewwewwwwqqwqwwqqqqqqq9qq999989#>eeeee>O866868868666665656555555  ",
"  ttttttttttrtrrrrrererereeeeeeeeweewewwwwwwwqqwqqqqqq99q9999999#>wweww>#8888886866666666665566555  ",
"  tttttttttrrttrrrrrrrreerreeeeeewewewwwwwwwqwqqwqqqqq9q99q9999#>weewe>O88886868668666666556555555  ",
"  tttttttrtttrrrrrrerereeeeeeeeeeewewwewwwwqwqwqqqqqqqq99q9999#>wewew>#888888886686666666665655555  ",
"  ttttttrttrrrrrrrrrererreeeeeweeewwwwwwwwwwwwqqqwqqq9q9q9999#>wwwew>O8888888686666666666555565555  ",
"  ttttttrtrtrtrrrrrrerrereeeeeeeweeweewwwwqwqwqwqqqqqqqq9q9q#>wweww>#89888868868868666666666555555  ",
"  tttttttrttrrrrrrrerrereeeeeeeeewewwwwwwwwqwqwqqqqqq9q99q9+>wwwww>+988888888686666666666655656555  ",
"  tttttrttrrtrtrrrrrerreerreeeeeeewewewwwqwwwwqqqqqqqqq9q9#>wwwww>#8889888688868886866665665555555  ",
"  tttttttttrtrrrrrrererrreeeeeewewewewwwwwwqqwwqwqqqqq9q9#;wwwww;#89989888886686666666666565565555  ",
"  tttttttrttrtrrrrrrrreeeereeeeeeewewwewwwwwwqqwqqqqqqq9+>qwwww>#999888888888868866666666656555555  ",
"  ttttttttrrtrtrrrrrerreeeeeeeeewwewewwwwwwwwqqqwqqqqqq+;wwqww>#9898898888888868666666666655565555  ",
"  tttttttrtrtrrrrrrrrerereereeeweeewwwwwwwwwwqwqqqqq9q#;wqwww;#99889988988868686868666666566565555  ",
"  ttttttttrtrtrrrrrrrereereeeeeeewewwewwwwqwqwqwqqqqq+;wwwww;#989989888888886868866666666655555555  ",
"  ttttttrttrtrrrrrrerrererereeeeeeewwewwwwwwwqwqqqqq#;qwqqq;#9999898898888888686668666665566565555  ",
"  ttttttttrttrrrrrrreereereeeeeeweewwwwwwqqwwqwqqqq+>qqqqw>#99998999888888688868868666666565565555  ",
"  tttttttrtrrrtrrrrerrerereeeeeeweewwewwwwwwwqqwwq#;qqqwq;#999999988998888886886866666666665555555  ",
"  ttttttrtrtrtrrrrrrrereeeeeeeeweeeewwwwwwwwwqwqq+>qqqqw>#q999999898898988886886666666666566565555  ",
"  tttttttttrtrrrerrrrrerreeeeeeeewwwewewwwwqqwqq#;qqqqq;#99999999899888888868868686866665655555555  ",
"  tttttttttttrrrrrererreeeeeeeeeeeewwwwwwwwqwwq+;qqqqq;#q99999999989888888888866866866666566555555  ",
"  ttttttttttttrrrrrrrereerereeewwweweewwwwwwqq+;qq9qq;#q9q9q99998998988988888668686666666655565555  ",
"  ttttttttttrrtrrrerrreeeeeeeeeeeewewwwwwqqww+;q9qqq;$q9qq9999999898888888686886686666666565655555  ",
"  ttttttttttttrrrrrrrerrrreeeeeeewewewewwwww+;q9q9q;#9qq999999999989988888888868666666666656555555  ",
"  tttttttrtrrtrrrrrrrereereeeeweewewwwwwwww+;99qq9;$qqq9q99999999898898888886886886666665565655555  ",
"  ttttttrtttrrrrrrrerrereeereeeeweweewwwww+-q9q9q;#qq9q999q999999889888888866868666666666665555555  ",
"  tttttttttrtrrrrrrerererreeeeeeewewwwwww+;9q9q9;$qqq9qqq9q999988989989888688886686666656656555555  ",
"  tttttttrrtrtrrrrrrrrereeeeeeeeeeewewew+;99999;#qqqqqq99q9999999998988888888668668666666655655555  ",
"  ttttrtttrtrrrrrrrrerrereeeeeeewewewew+-99999;#qqqqqqq99q9999999898988868888868866666666566555555  ",
"  ttttttrttrtrrrrrerreereerreweeewewww+;99999;$qqqqqq9qqq9q999999898988888888686866668666555655555  ",
"  ttttttttttrrrrrrrerereeeeeeeeeeewew+;99999;#wwqqqqq9q9999999999989888888866868666866665656565555  ",
"  tttttrtrrrttrtrrrrererereeeeewweew+;89999;$wqqwqqqqqq9q9q999998998989888888686686666666665555555  ",
"  ttttttttX0rrrrrrrrrrreeereeeeeewe+;98998;#qwqwqqqqq9qqq99999998989988888888868868666666565655555  ",
"  tttttttt  2rrtrrerererreeeeeeewe+;89899;$wwqwqqqqqqq9qq9q999999998889888886886866666665656555555  ",
"  tttttttt 4&:rrrrrererereeeeewee+;89899-$qwwqwqqqqqq9q9999q99899898888888868686666666656556555555  ",
"  ttttttrt 68 rrrrrrrrereereeeee+;89889-$wwwwqqqwqqqqqqq9q9999999989898888888868686666666565655555  ",
"  tttttttr 66 rrrrrrrereerreeee+;88889;$wwwqwqqqqwqqqq9qq99999998998888888888686666666665666565555  ",
"  tttttttr 88 trrrrrreereeeeee+-89899-$wwwwwwqwqqqqqqqq99qq999999898989888868868866866666555555555  ",
"  tttttttt 66 rrrrrrerreereee+;88888-$wwwwwqqwwqqqqqqqq9999999999989898888686686866666665666655555  ",
"  tttttttt 86 rrrrrerrerreee@-88888;$wwwwwwwwwqqqqqqqq9qq9q999999898988888888868668666666555555555  ",
"  tttttttr 68 rrrrrerereere@-88888;$ewwwwwqwwqwqqqqqqq9qq99999998998898888888868688666665665555555  ",
"  tttttttr 66 rrrrrrrreree@-88888-$wwwwwwwwwqwqwqqqq9qq99q9q99989989888888866686666666666655655555  ",
"  tttttttt 66 rrrrrreerer@-88688-$ewwewwwqwqwqqqqwqqqqq9999999999898988988888868868666666556655555  ",
"  tttttttt 66 trrrerrrer@-68888-$ewewwewwwwwqwwqqqqq9qq9q9q999999989888888688686666666666656555555  ",
"  tttttttt 96 rrrrrrrrr@-88868-$eweewwwwwqwwwqqwqwqqqq9q999999998898988888886868666866665665555555  ",
"  tttttttt 86 rrrrrrre@-66688-$eewwwewwwwwwqwwqqqqqqq9q9q99q99989998988888888886886666566565555655  ",
"  tttttttt 66 rrreree@-68688-%eeeeewwwwwwwqwqwwqqqqqqqq99q9999999898889888888668666666666655555555  ",
"  tttttttt 66 trrrrr@-68686-%eewwewewewwwwwwwqqqqqqqq9qqq9q999999998988888868686686666655665655555  ",
"  ttttttrt 66 rrrrr@-66668-*eeeeeewwewwwwqwwwqwwqqqqqq9q999999999898888888888668668666666656565555  ",
"  tttttttr 66 rrrr@-68686-*eeeewweewwewwwwqwwqqqqqqq9qq99q9qq9989998898888866886866666665565555555  ",
"  tttttttt 66 rrr@-66686-*eeeweeewwewwwwwwwwwqqqwqqqq9qqqq9999998898888988888888866666666665655555  ",
"  tttttttr 66 rr@-66666-*eeeeeeeewewewwwwwwqwqwwqqqqqqq9999999999989988888688666686666665665555555  ",
"  tttttttr 56 r@-66666-*eereeeeeeweewwwwwwwwwqwqqqqqqqq99q9999998998988888866886666866656665655555  ",
"  ttttrttt 66-@-66666-*eereeeeeeewwwewwwwwwqwqqqqqq9q9qqq9q999999989898888888868866666666555555555  ",
"  ttttttrt 656366666-%erreeeeeweweewwwwwwwwwwqwqwqqqq9q9999999989898888888888686686666665566565555  ",
"  tttttrrt 56556565-*reeereeeeeeeewewwewwwwqwqqqqqqqqqq99q9999999989898888868866668666666655555555  ",
"  tttttttt 6565666-%reerrereeeweeewwewwwwwwwqwqwqwqqqq9qqq9999998898888888866868866666666655655555  ",
"  tttttttr 665655<%rerreeeeeeeeeweewwwwwwqwqwqwqqqqqq9q9999999999989989888888886868666666566555555  ",
"  tttttttt 5665665-                  =wewwwwqwqqqqqqqqq9q99q99999898888888888668686666665665555555  ",
"  ttttttrr 65566565666666666666686686&1wwwqwwqwqqqqqqq9q9q9998999998988888868686666666666556565555  ",
"  tttttttt 665665666666666666866668684 7wwqwwqwqqqqqqqq9q99999998988988888686868866666666565556555  ",
"  tttttttr                             Xwwwwqwqqqqqqq99q9q9999998998889888888686668666666565555555  ",
"  ttttttrtrtrrrrrrrrrerereeeeeeeweewwwwwwwwqwqwqwqqqqqq9999999999989898888886688866666666655555555  ",
"  tttttttttrrtrrrrrerrreeereeeeeeewewewwwqwwqwqwqqqqq9qqq9q999999898988888868866666666655665555555  ",
"  ttttttrtttrrrrrrrererereeeeeweewwwwewwwwwwwqqqqqqqqq9qq99q99989989898888888868886666666565655555  ",
"  tttttttrrrtrrrrrrrreereereeeeeewewwwwwwwwqqwwqqqqq9qq99q9999998898888888686686666666666655556555  ",
"  tttttttttrrrrrrrrerreeereeeeewweewewwwwwwqwqwqqqq9qqq999q999999989988888688886866666666565565555  ",
"  tttttttrttrtrrrrrrerrreeeeeeeeeewewwwwwwwwqwqqwqqqqqq9q99999899898889888888668668666666565555555  ",
"  ttttttttttrrrrrrrrerereeeeeeeeweweewwwwwwwqwqqqqqqqqq99q9999999898888888886868866866665565555555  ",
"  tttttttttttrrrrrrrrererereeeeeewewwwwwwwqwwqwqqqqqq9q9q99999998989988888888686666666666665565555  ",
"                                                                                                    ",
"                                                                                                    "
};
