/* XPM */
static char *result[] = {
/* columns rows colors chars-per-pixel */
"300 50 46 1 ",
"  c black",
". c #260900",
"X c #421500",
"o c #581D00",
"O c #582100",
"+ c #6B2400",
"@ c #6B2B00",
"# c #7D2B00",
"$ c #7D3300",
"% c #8D3400",
"& c #8D3A00",
"* c #9C3700",
"= c #9C3B00",
"- c #AA3D00",
"; c #9C4400",
": c #AA4401",
"> c #AA4B01",
", c #B84300",
"< c #B84B01",
"1 c #B85301",
"2 c #C54701",
"3 c #C54D01",
"4 c #D14D01",
"5 c #C55401",
"6 c #C55901",
"7 c #D15501",
"8 c #DD5201",
"9 c #DD5A01",
"0 c #FF4E00",
"q c #E95700",
"w c #E95D01",
"e c #FF5300",
"r c #F45B00",
"t c #FF5B00",
"y c #DD6501",
"u c #E96201",
"i c #E96C01",
"p c #F46300",
"a c #FF6401",
"s c #F46B01",
"d c #FF6C01",
"f c #F47101",
"g c #FF7301",
"h c #FF7B01",
"j c #FF8401",
"k c #FF8901",
/* pixels */
"                                                                                                                                                                                                                                                                                                            ",
" kkkkkkkkkkkkkkkkkkkkkkkkkkkkkkkkkkkkkkkkkkkkkkkkkkkkkkkkkkkkkkkkkkkkkkkkkkkkkkkkkkkkkkkkkkkkkkkkkkkkkkkkkkkkkkkjkkkkkkkkkkkkkkkkkkkkkkkkkkkkkkkkkkkkkkkkkkkkkkkkkkkkkkkkkkkkkkkkkkkkkkkkkkkkkkkkkkkkkkkkkkkkkkkkkkkkkkkkkkkkkkkkkkkkkkkkkkkkkkkkkkkkkkkkkkkkkkkkkkkkkkkkkkkkkkkkkkkkkkkkkkkkkkkkkkkkkkkkkk ",
" kkkkkkkkkkkkkkkkkkkkkkkkkkkkjkkkkkkkkkkkkkkkkkkkkkkkkkkkkkkkkkkkkkkkkkkkkkkkkkkkkkkkkkkkkkkkkkkkkkkkkkkkkkkkkkkkkkkkkkkkkkkkkkkkkkkkkkkkkkkkkkkkkkkkkkkkkkkkkkkkkkkkkkkkkkkkkkkkkkkkkkkkkkkkkkkkkkkkkkkkkkkkkkkkkkkkkkkkkkkkkkkkkkkkkkkkkkkkkkkkkkkkkkkkkkkkkkkkkkkkkkkkkkkkkkkkkkkkkkkkkkkkkkkkkkkkkkkkkk ",
" kkkjkkjkkkkkkkkjkkkkkkkkkkkkkjkkkkkkkkkkjkjkkkkkkkkkjkkkkkkkkkkkkkkkkkkjkkkkjkkkkkkkkkkkjkjkkkkkkkkkjkkkkkkkkkkkkkkkkkkkkkkjkkjkkkkkkkkkkjkkkkkkkkkkkkjkkkjkkkkkkjkkkkkjkkkkkkjkkkkkkkkkkkkkkkjkkkkkkkjkkkkkkkkkjkkkkkkkkkkjkkkkkkkkkkkkkjkkkkkkkkkkjkkkkkkkkkkjkkkkkkkkkkkkkjkkkkkkkkkjkkkkkkkkkkkkkkkkkk ",
" kkjkjkkjkkkkkkjjjjjkjjkjkjkkkkjjkkkkkjkkjkkjkkkjjkkjkjjjkkkkkjkjjjjjkkjjkkjkjkjkjjjkjkjkkjjjkjjkjjkjkjkkjkkjkkjjkjjkjjkkkkjkjkkjkkjjkjkjkjkkjjjjkkjkjjkkkjjkkkjkjkkkjjjkjjkjkjkjkjjjkkjjjjjjkkjjkjkjjjkjkjjkkjkjkjkjkjjjkkjjkkjkkkjkkjjjjkkjkkjjkjkjjkjjkjkkkjkkjkjkkjjkkjjkjjjkkjjjkjkkjkkkkjjjkjjkjkjjkj ",
" jjjjjjkjjjjjjjjjjjkjkjjjjjjjjjjjjjjjjjjjjjjjjjjjkjjjjjkjjjjjjjjjjkjjjjjjjjjjjjjjjkjjjkjjjjkjkjjjjjjjjjjjjjjjjkjjjkjjjkjjjjkkjjjjjjjjjjjjjjkjjkjjjjjkjjjjjjjjjjjjjjjjkjjkjjjjjjjjjjjjjjjjjkjjjjjjjjjjkjjjjjjjjjjjjjjkjjjjjjjjjjjjjjjjjjkjjjjjjjjjjjjkjjjjjjjjjjjjjjjjjjjjjjjkjjjjjjjjjjjjjjjjjjjjjjjkjjjjjj ",
" jjjjjjjjjjjjjjjjjjjjjjjjjjjjjjkjjjjjjjjjjjjjjjjjjjjjjjjjjjjjjjjjjjjjjjjjjjjjjjjjjjjjjjjkjjjjjjjjjjjjjjjjjkjjjjjkjjjjjjjjkjjjkjkjjjjjjjjjjjjjjjjjjjjjjjjjjjjjjjjjjjjjjjjjjjjjjjjjjjjjjjjjjjjjjjjjjjjjjjjjjjjjjjjjjjjjjjjjjjjjjjjjjjjjjjjjjjjjjjjjjjjjjjjjjjjjjjjjjjjjjjjjjjjjjjjjjjjjjjjjjjjjjjjjjjjjjjjjjj ",
" jjjjjhjhjjjhjjjjjjjjjhjjjjjjjhjjjjjhjjjjjjjhjjjjjjjjhjjjjjjjjjjjjjjjjjjjjjjjjjjjjjjhjjjhjjjhjjjjjjjjjjjhjhjjjjjjhjjjhjjjhhjhjhjjjhjjjjjjhjjjjjjjjjjjjjjjjjjjjjjhjjjjjjjjjjjjjjjjjjjjjjjjjjjjjjjjjjjjjjjjjjjjjjjjhjjjjjjjjjjjjjjjjhjjjjjjjjjjjjjjjjjjjjhjjhjjjjjhjjjjjjjjjjjjjjjjjjjjjjjjhjjjjjjjjjjjjjhjjj ",
" jjjhjhjjjjhjjjhhjhjhjjjjjjjjjjjhhjjjjhhjjhjhjhjhjhjjjjjhjhjjjjhhjjjjjjhjhjhjjhjjjjjhjhjjjjhjjhjjhjjhjjhjjhjhjjjjhjjhjjhjjjjjjjjjhjjhjhjjjjhjhjhjjjjjhjjjjjjhjhjjjhjjhhjjjhjjhjjjjhjjjhjhjjjjhjhjjjjjhjhjjjhjhjjhjjhjhjjjjhjjjhjjjjhjhjhjjhjjhjhjjjjjjjjjjjhjjhjjjjjjhhjhjhjjjhjhjjhjjhjhjhjjhjjjjhjjjhjjjj ",
" jhhjhjjhhjjhhhjjjjhjhhjhhhhhhhhhjhhhjhjhjjhjhjhjhjjhhhhhhjhhhhjjhhhhhjhhjhjhhjjhhhhjhjhhhhjhjjhhjhhhjhjhhjjjhhhhjjhjhjhhhhhhhhhhjjhjhjhhhhjjhhjhhhhhjhhhhhjjhjhhjjhjhjhhhjhhjhhhjjhhjjhjhhhjhhjhhhhhjhjhhjhhjhhjjhjhjhjhhjjhhjjhhjhjhhjjhjhhjhjhhhhhhhhhhjhhjjhhjhhhjjhjhjjhhjjjhhjhjjhjhjhjhhhhhjjhhjjhhj ",
" hhjhhhhhjhhhhhhhhjhhjhhhhhjhhhjhjjhjhhhjhhhhjhhhhhhhhhjhhhjhhhjhjhhhjhjjhjhhhhhhhhjhjhhhhhhhhhhhjhjhhhhhjhhhhhjjhhhhhhjhjhjhjjhhjhhhjhhhhhjjhhhhjhjhjjhhjhhhjhhjhhhhjhjhhhjhjhhhjhhhhjhjhhhhjhhhjhjhjjhjhhjjhhjhhhhhjhhhhjhhhhhhjhhjhhhjhhhhjhhhhhjhhjhjhhjhjhhhhhhhjhjhhjhhhhhhhhhjhhhhjhhhjhhhhhhhjhhhhh ",
" hhhhhhhhhhhhhhjhhhhhhhhhhhhhjhhhhhhhhhhhhhhhhhhhhhhjhhhjhhhhhhhhhhhhhhhhhhhhhhhhhhhhhhhhhjhhjhhhhhhjhhhhhhhhhhhhhhhhhhhhhhhhhhhhhhhhhhhhhhhhhhhhhhhhhhhhhhhhhhhhhhhhhhhhhhhhhhhhhhhhhhhhjhhhhhhhhhhhhhhhhhhhhhhhhjhhhhhhhhhhhhhhhhhhhhhhhhhhhhhhhhhjhhhhhhhhhhhjhhhhhhhhhhhhhhhhhjhhhhhhhhhhhhhhhhhhhhhjhh ",
" hhhhhhhhhhhhhhhhhhhhhhhhhhhhhhghhhhhhhhhhhhhhhhhhhhhhhhhhhhhhhhhhhhhhhhhhghhhhhhhhhhhhhhhhhhhhhhhhhhhhhhhhhhhhhhhhhhhhhhhhhhhhhhhhhhhhhhhghhhhhhhhhhhhhhhhhhhghhhhhhhhhhhhhhhhhhhhhhhhhhhhhhhhhhhhhhhhhhhhhhhhhhhhhhhhhhhhhhhhhhhhhghhhhhhhhhhhhhhhhhhghhhhhhhhhhhhghghhhhhhhhhhhhhhhhhhhhhhhhhhhhhhhghhhh ",
" hhghhghghhhhhhhhhhghhghhhghghhhhhhghhhhhhghghhhhhhghhhghhghhhhgghhhghghhhhhhhghhhghhhhhhhghhhhghghhghhhhghhhhghhhghhghhhghhhhhghhhhghhhhhhhhhhhhhhgghhgghhghhhhhhghhhghhhhhghhhhhghhhghghhhhghghghhghhgghhhhghhhhhgghhhhhhhhhhghhhhhhhhghhhghhhhhhhhghhhghhhhhgghhghhhhhhhhhhghhhhhhghghhhhhghhhhghhhhhhgh ",
" hhgghhhhghghhghhghhgghhhhhghhhhghhhghhgghhhhhghhhghhghhghhhghhghhghghhhhhghhhghghghghghhhhhghhhghghghghghhhghhgghhhghhghhghhgghgghghhhhhghhghghghhgghhhhghhhhghhhghghhghhgghhhhghghghhhhhhhghhhhhghhhhgghhghhghhgghhghghhghhghhghhhghhhhhgghhhhhgghhhghghhghhghhhhhghhhhhghhghhhhghghghghghghhhhghghhghhgh ",
" ghghggghgg1;;;;;;1ggh1;;;;;;1gggf;;;;;;;fgi>;;;;;;;fgffgggghghyfffhg1;;;;;;;;1hhghgghhggggg1;;;;;;1hgh1;;;;;;1hhg1;;;;;;1ggghghghghgggg1;;;;;;1ghyghgggghgigg1;;;;;;1hggf;;;;;;;fhffgggggggyfgf;;;;;;;fhgghgggggghghf;;;;;;;fgf;;;;;;;;;fghggggghggghgghgghggyfgf;;;;;;;fggf;;;;;;;fhffghg1;;;;;;1hgghghgg ",
" ggggghggg$@      ;$f$@      &$h1&.     O@y;&.     O@y;Ofgggggy.6;Ofh&        >gghggghggggg$@      &$h$@      ;$f$@      &$gghgghgggggg$@      ;$f >gghggg;Of$@      &$h1&.     Ofg;Ofggghgy.61&.     Ofggghggggghgg1&.     Ofgy.       Ofgggggghggggggggggggy.61&.     O@y1&.     O@y;Ofg$@      >ghghgggg ",
" ggggggggg O>;;;;>.Of O>;;;;>.Og; ;;;;;;$ 1; ;;;;;;$ 6; ;gggggO 5; ;gg>;;;;;;<ggggggggggggf O>;;;;>.Of O>;;;;>.Of O>;;;;>.Ohggggggggggf O>;;;;>.Of  sgggg6 Of O>;;;;>.Og; ;;;;;;fgg; ;gggggO 6; ;;;;;;fggggggggggggg; ;;;;;;fgggy;;;;;;;fgggggggggggggghgggggO 6; ;;;;;;$ 1; ;;;;;;$ 6; ;f O>;;;;1ggggggggg ",
" gggdggggg  fgggg5 Os  fgggg6 Og; ;dgggdO 5; ;dggggO 5; ;gggggO 5; ;ggggg<fdggggggggggggggs  fgggg5 Of  sgggg5 Os  fgggg5 Ogggggggdgggs  fgggg5 Of  sgggg5 Os  fgggg6 Og; ;ggdggggg; ;gggggO 6; ;ggggggggggggggggggg; ;ggggggggggggf1ggggggggggggggggggggggggO 6; ;gggdgO 5; ;dggggO 5; ;s  sgggggggggggggg ",
" gdggggggg  sggdg5 Os  sdgdg5 Og; ;gdgggO 5; ;gggggO 5; ;gdgggO 5; ;ggdggOOfggdgggdgdgdgggf  sgggg5 Os  sgdgg5 Os  sgdgg5 Oggdgddgggggf  fdggd5 Os &gdgggsOOs  fggdg5 Og; ;gggdgdgg; ;gddggO 5; ;gdgggdggdgdggdgggdg; ;gdgdggdgddgg5 :ggggdgggggdgggdgdgggdggO 5; ;gggggO 5; ;gggggO 5; ;s  sgdggdgdgdgddgg ",
" gggdgdggd  sgdgd5 Os  sdgdg5 Od; ;gdgddO 6; ;dgddgO 5= ;gdgggO 5; =gggddO 5gdgddgdggdggdgs  sdddg5 Os  sdggd5 Os  sdgdg5 Oggddgggdggds  sddgd5 Og>dgdgdggs<s  sdgdg5 Og; ;ddgdgggd; ;ggggdO 5; ;ddgdgdgdgdggddgdggd= ;ddgddgddgggd5 OgddgdgdgdddggdgdgddgdggO 5= ;dgdddO 5; ;gggdgO 5; ;s  sdgdgggdddgdgdg ",
" ddddddddd  pdgdg5 Os  sgddd5 Og= ;dgddgO 5; ;dddgdO 5; =dddddO 5; ;ddddgO 5gddddddddddddds  sgddd5 Os  sdddd5 Os  sdddd5 Oddgdddddddds  sgddd5 Od.Oyddgd<@@s  sdgdd5 Od= ;dddgdddg= =dddddO 5= ;dgdddddddgddgddgddg; ;dgddgdgddddd5 OdddddddddgddddgdddgddddO 5; ;ddgddO 5; =dddddO 5= ;p  sddgdddddggdddd ",
" ddddddddd .dddddu.Os .dddddu.od= :ddddd& 5= :ddddd& 5= :dddgd& 5= :dddddO 3dddddddddddddds .dddddu.Op .dddddu.Op .dddddu.Odddddgddddds .dddddu.Od= odddp. <p .dddddu.Od; :dddddddd; :ddddd& 5= :ddddddddddddddddddd= :dddddddddddd5 Oddddddddddddddddddddddd& 5; :ddddd& 5= :ddddd& 5= :s .ddddddddddddddd ",
" dddddddddX&OOoOoO<#dX%OOoOOO<#d:%ddddddd&7:&ddddddd&7:&ddddddpo7:&ddddddo 5dddddddddddddddX&OoOOOO<$dX&OOOOOO<$dX&OOOOOo<$ddddddddddddX&oOOOOo<$ddO =dd$ $ddX&OOoOOO<#d:&ddddddddd:@@OOOoO&O7:@+OOOOO=ddddddddddddd:@+OOOOO=dddddd5 OdddddddddddddddddddddddpO7:&ddddddd&7:@+OOOOO=&7:%ddX&oOOOOOudddddddd ",
" adddddddd:o      <dd:o      <dd77dddddad7p77ddadddd7pppdddadda9dd7saddado&adadddddadddaadd:o      <da:O      <3d:o      <dadddadadddda:o      <3dd5 .w3 .uad:o      <3d77dddadddad7&      O7p7&      oddaddddddddad7&      odaddaa5.9dddddddddddaddd99addddad7p77dddaddd7s7&      Odda7pdpo      <5dadddda ",
" ddadaaaad %335337dap %335=%7dad=.paadad9.3=.pddaaa9.5=Opaddad9.39.=daddawddddadaddddaadddp %353357adp %353337%Op %353=%7dadadadadadadp &335537&odad% @X :dap &333537&od=.pdddadadd=.3333333.5=.353333saaddaadaaadda=.353353pddaadddwadadaaadaadadadd=.sdaadd9.3=.pdadda9.3=.335<%:pda9.=ddp333337%odddaadd ",
" aaaadaaad  rddaadadp  pda: %aad= ;dadadO 3= =dadado 5= =daaado 3= =adaada%waadaaddaaddadap  padaddaap  padad3 op  pda: %aaddadaddaddap  padad3 oaaap.$X+dadp  padaa3 od= =aaadadad= =daadao 3= =adaadaaadaddaaadaaa= =adaaaadaadada9=adadaaadaddadaa= =adadao 3= =addado 3= =daa..uad= =daadaddd3 odaadada ",
" adaaadaaa  paaaaaaap  paaw  9aa= =aaaaao 3= =aadaao 3= =aadaao 3= =aaada% 5aaaaaaaaaaaaaap  paadaaaap  padaa3 op  paaw  9aaaaaaaaaaaap  paaaa3 Oadaa32=9aaap  padaa3 oa= =adaaaaaa= =aadaao 3= =daaadaaaaaaaadaaada= =aaadaadaaaaaw.oaaadaaaaaaaaaaa= =aaaado 3= =aaaaao 3= =aaa% #aa= =aaaaaaaa3 oaaaadaa ",
" aaaaaaaaa  raaaaaaar  paaa# :aa= =aaaaao 2= =aaaaao 3= =aaaaao 3= =aaaaao 3aaaaaaaaaaaaaar  raaaaaaar  paaaa2 or  paaa# :aaaaaaaaaaaar  paaaa3 oaaaaa:%aaaar  paaaa2 oa= =aaaaaaaa= =aaaaao 3= =aaaaaaaaaaaaaaaaaaa= =aaaaaaaaaaaa3 oaaaaaaaaaaaaaaa= =aaaaao 2= =aaaaao 2= =aaa8 .aa= =aaaaaaaa2 oaaaaaaa ",
" aaaaaaaaa  paaaaaaar  raaa, oaa= =aaaaao 3= =aaaaao 2= =aaaaao 2= =aaaaao 2aaaaaaaaaaaaaar  raaaaaaar  raaaa2 or  raaa, oaaaaaaaaaaaar  raaaa3 oaaaa4 oataar  raaaa3 oa= =aaaaaaaa= =aaaaao 3= =aaaaaaaaaaataaaaaat= =aaaaaaaaaaaa3 oaaaaaaaaaaaaaaa= =aaaaao 2= =aaaaao 2= =aaaao <a= *aaaaaaaa3 oaaaaaaa ",
" attaaaaaa  raaaaaaar  raaat. 8a= =rrrrro 2* =rrrrro 2= *rrrrro 2= =aaaaao 3atattaaataaaaar  raataaaar  raaaa2 or  rataa. 8aaataataaaar  ratta2 oaata2 oaaaar  raata2 ot* =rrrprtat= =aaaato 3= =rrrrraaaaaaaaaaaaaa= *rrrrraaaaaaa2 oaaaaaaataaaaaaa= =rrrrro 3= =rrrrro 2= =aaaa- #a* =aaaarrrr2 oaatataa ",
" aaatataat .attaattar .aatta% %t*o+     %.2*o+     %.2*o+     %.2- =tttat+ 2ataataataatatar .ataattaar .attaaq.or .ataat% %ttaattatatar .taaatq.oataa4 oattar .aataaq.oa*o+     -ta* -atata% 2*o+     -aattaattatata*o+     -ttaatt4 oattattaatattatt*o+     %.3*o+     %.2= -ttatq  q- =tt8.    o+otaatata ",
" ttataattao8taattaatto8aataar*#tr-       ,r,+       ,rq-       ,rt%,ttattr+qataataataatattao8ttaattatao8taatat8#to8ataatr=#tattaaattatto8ttatta8#ttatt-%tttaao8taataa8#tr-       8t-%ttatata%4r-       8atttattataatr-       8atttta-%taatttaatattaaar-       ,rr-       ,r-&tttata2+4a%,taX      #3attataa ",
" attttttattttttttttattttttttttttttrrrrrrrattrrrrrrrrttttrrrrrrrtattaattatattttttttttttttttttatattatttttttttattattttttttttttatatttttataatattatattttattatatatttatttttttatttarrrrrrrttaatatttttttttrrrrrrrtttaatatttttattrrrrrrrtttattatttttaatttatattttatrrrrrrrttatrrrrrrrttttttatttttttttattrrrrrrtttattatt ",
" tttatttttattttttattttttttttttttttttttttttttttttttttttttttttttttttttttttattttttttttattttttttttttttattttttttttttttaatttttttttttttttttttttttttatttttttttttttttttttttttttttttttttttattttttttttattttttttttttttttttttttttttttttttttttttttttttttttttttttttttttttttttttttttttttttttttttttatttttttttttttttttttttttt ",
" tttttttttttttttttttttttttttttttttttttttttttttttttttttttttttttttttttttttttttttttttttttttttttttttttttttttttttttttttttttttttttttttttttttttttttttttttttttttttttttttttttttttttttttttttttttttttttttttttttttttttttttttttttttttttttttttttttttttttttttaettttttttttttttttttttttttttttttttttttttttttttttttttttttttttt ",
" tttttttttttttettttttttttttettetttttttettetttttetttttttttttttttttttttttttttettttetttttttttttttttttttettttttttettttttttttttttttttttttttetettetttttttttttttttttttettettttetttttttttttttttttttttettttttttttttetttttttttetttttttttttetttttttttttttttttttettettttttttttttttttttttttttttttttetttetttetttttttttttt ",
" tteetettetettttetteetetttettttttetettetttettetttteettttetetttetteettetetetttetttetettttteetetettetetttettteteteettettetttteetetetetetttttttetteettettettttttetttttttettetetettetteeetetttetetteetteteetttttetetttttttteteteteetttetttteetetetettettetteetettttettetetetttetetttetettttttttetetttetettetett ",
" tetttetteetteetttetteteetteteeteettetteteeteeteeteteeteteteettettetetettteetteetteteeetetteetteteetteetteetetttteetteetteettttetttteteeetetetetetteettetteeeteeeteeeettetteteetteetteteetetetetttetetteeteeetteteettettteetttteetteetettetetetetteettttetetteetteetteteeeteteeeteteeteeteeteeetteetteettee ",
" teeeeteeteeeeteeeeeteeteeteeteeeteeteteeeteetteteeteteeteeteeeteeteeeteeeeteeeteetteteeteeteeeteteeeeteeteeteeeeteeeeteeteeeeeteeeeteeteeeteteeteeteeeeeeteetetteeteteeeeteeteeeeteeteeteeeteeteeeeteeteeteteeeeeteteeteeeteeeteeeteteeeteeteeteeeteeeeeeteeteeeeteteeeetetetetteeeteeteeteetteeteeeeteete ",
" eeeeeteeeeeeeeeeeeeeeeeeteeteeteeeeeeeeeeeeeeeeeteeeteeeeet0teeeeeeeeeeeeeeeeeeeeeeeeeeteeeteeeeeeeeeeeeeeeteeeeeeeeeeeeeeteeeeeeeeeeeeeteeeeeeeteeeteeeeeeeeeeeeeeeeeeteeeeeeeeeeeeeeeeeeeeeeeeeeeeeeteeeeeeeeeeeeeteeeeeeeeeeeteeeeeeteeeeeeeeeeeeeeeteeeeeeteeeeeteeteeeteeeeeeteeeeeeeeeeeeeeeeeteeeee ",
" eeeeeeeeeeeeeeeeeeeeeteeeeee0eeeeeeeeeeeeeeeeeeeeeeeeeeeeeeeeeeeeeeeeeeeeeeeeeeeeeeeeeeeeeteeeeeeeeeeeeeeeeeeeeeeeeeeeeeeeeeeeeeeeeeeeeeeeeeeeteeeeeeeeeeeeeeeeeeeeeeeeeeeeeeeeeeeeteeeeeeeeeeeeeeeeeeeeeeeeeeeeeeeeeeeeeeeeeeeeeeeeeeeeeeeeeeeeeeeeeeeeeeeeeeeeeeeeeeeeeeeeeeeeeeeeeeeeeeeeeeeeeeeeeeeeee ",
" eeeeeeeeeeeeeeeeeeeeeeeeeeeeeeeeeeeee0eeeeeeeee0eeee0eeeeeeeeeeee0eeeeeeeeeeeee0eeeeeeeeeeeeeeeeeeeeeeeeeeeeeeeeeeeeeeee0eeeeeeeeeeeeeeeeeeeeeeeeee0eeeeeeeee0eeeeeeeeeeeeeeeeeeeeeeeeeeeeeeeeeeee00eeeeeeeeeeeeeeeeeeeee0eeeeeeeeeeeeeeeeeeee0eeeeeeeeeeeeeeeeeeeeeeeeeeeeeee0eeeeeeeeeeeeeeeeeeeeee0eeee ",
" ee0e0eee0eeeeeeee0ee0ee0e0eee0e0eee0eeeeeeee0eeeee0eeee0e0ee0e00eeeeeeeee0eeeeeeeee0e0e0ee00e0eee0ee0ee0e0eeee0eeeeeeeee0eeeee0eee0eeeeeee0e0ee0e0ee0eeee0eeeeeeeee0eeeee0e0eee0e0eee0eee0eee0eeeeeeee0ee0eeeeee0eee0e0e0eeeee00eee0e0e0eee0eee0eee0eeeeee0e0eee0eeee0e0e0e0eeee0eeee000eeee0eeeeee0e0e0ee ",
" 00e0ee00e000e0e0e0e00eee0e0e00ee00e000e00e0e0e00e0e0e0e0e00ee0ee0ee0ee00e00e0000ee0ee0e0eee00e0e00e00e0e0ee0e0ee00e0ee0e0000e0e00e0e0e0e00e0ee0ee00e0e0ee0ee0ee0e000e00e00e00e0e0e00ee000e0ee0e0e0e0e0ee0ee0ee00ee000eee0eee0e0e0e0e0e0e0e0e0eeee0e0e000eee0ee00e000e0eee0eee0e0e0e0eeee00e0ee0e00e00e0e0e ",
" 0e00000e00e00e0000e0e000e0e0e000ee00ee0e00e0e000000e00000ee00000000e00ee0e00e0e000000e000000ee00e000e000000e0000e0000000ee000000ee00e000e0000e0000e000e000000000e0ee00e0e000e0e000e000e0e0e000000e0e0000e000000000ee0000e00000ee0e0e000e0000e000000e00e000000e0e00e0e000000000000e0000ee0e0e0000e000ee00e0 ",
" 00000e0000000e0000000000000000000000000000000000000000000000000000000000000000000e0000000000000000000e0000000000000e00000000e0000000000000000000e000000000000000000000000000000e00000000000000000000000000000000e000000000000000000000000000000000000000000000000000000000e0000000000000000000000000000000 ",
" 0000000000000000000000000000000000000000000000000000000000000000000000000000000000000000000000000000000000000000000000000000000000000000000000000000000000000000000000000000000000000000000000000000000000000000000000000000000000000000000000000000000000000000000000000000000000000000000000000000000000 ",
" 0000000000000000000000000000000000000000000000000000000000000000000000000000000000000000000000000000000000000000000000000000000000000000000000000000000000000000000000000000000000000000000000000000000000000000000000000000000000000000000000000000000000000000000000000000000000000000000000000000000000 ",
"                                                                                                                                                                                                                                                                                                            "
};
