/* XPM */
static char *result[] = {
/* columns rows colors chars-per-pixel */
"70 30 224 2 ",
"   c black",
".  c #FF4800",
"X  c #FF4900",
"o  c #FF4801",
"O  c #FF4901",
"+  c #FF4A00",
"@  c #FF4B00",
"#  c #FF4A01",
"$  c #FF4B01",
"%  c #FF4D00",
"&  c #FF4D01",
"*  c #FF4E00",
"=  c #FF4F00",
"-  c #FF5000",
";  c #FF5001",
":  c #FF5200",
">  c #FF5300",
",  c #FF5201",
"<  c #FF5301",
"1  c #FF5500",
"2  c #FF5501",
"3  c #FF5600",
"4  c #FF5601",
"5  c #FF5800",
"6  c #FF5900",
"7  c #FF5801",
"8  c #FF5901",
"9  c #FF5B00",
"0  c #FF5B01",
"q  c #FF5C00",
"w  c #FF5C01",
"e  c #FF5E00",
"r  c #FF5F00",
"t  c #FF5E01",
"y  c #FF5F01",
"u  c #FF6200",
"i  c #FF6300",
"p  c #FF6201",
"a  c #FF6301",
"s  c #FF6500",
"d  c #FF6501",
"f  c #FF6600",
"g  c #FF6601",
"h  c #FF6800",
"j  c #FF6900",
"k  c #FF6801",
"l  c #FF6901",
"z  c #FF6C00",
"x  c #FF6D00",
"c  c #FF6C01",
"v  c #FF6D01",
"b  c #FF7000",
"n  c #FF7001",
"m  c #FF7300",
"M  c #FF7301",
"N  c #FF7400",
"B  c #FF7401",
"V  c #FF7700",
"C  c #FF7701",
"Z  c #FF7800",
"A  c #FF7801",
"S  c #FF7A01",
"D  c #FF7B01",
"F  c #FF7E01",
"G  c #FF7F01",
"H  c #FF7E02",
"J  c #FC631F",
"K  c #FC641F",
"L  c #FC651F",
"P  c #FC681F",
"I  c #FC691F",
"U  c #FC6B1F",
"Y  c #FC6C1F",
"T  c #FC6E1F",
"R  c #FC721F",
"E  c #FC741F",
"W  c #FC6320",
"Q  c #FC6420",
"!  c #FC6B20",
"~  c #FC6F20",
"^  c #FC7120",
"/  c #FC7220",
"(  c #FC7420",
")  c #FC7520",
"_  c #FC7820",
"`  c #FC7B20",
"'  c #FC7C20",
"]  c #FC7E20",
"[  c #F96F37",
"{  c #F97C37",
"}  c #F67849",
"|  c #F6784A",
" . c #F6794A",
".. c #FF8201",
"X. c #FF8202",
"o. c #FF8501",
"O. c #FF8601",
"+. c #FF8502",
"@. c #FF8602",
"#. c #FF8901",
"$. c #FF8A01",
"%. c #FF8902",
"&. c #FF8A02",
"*. c #FF8C01",
"=. c #FF8D01",
"-. c #FF8C02",
";. c #FF8D02",
":. c #FF9001",
">. c #FF9101",
",. c #FF9301",
"<. c #FF9002",
"1. c #FF9302",
"2. c #FF9401",
"3. c #FF9601",
"4. c #FF9701",
"5. c #FF9402",
"6. c #FF9602",
"7. c #FF9702",
"8. c #FF9A01",
"9. c #FF9A02",
"0. c #FF9D01",
"q. c #FF9E01",
"w. c #FF9D02",
"e. c #FF9E02",
"r. c #FFA001",
"t. c #FFA101",
"y. c #FFA002",
"u. c #FFA102",
"i. c #FC8120",
"p. c #FC8220",
"a. c #FC8520",
"s. c #FC8820",
"d. c #FC8B20",
"f. c #FC8C20",
"g. c #FC8F20",
"h. c #FC8F21",
"j. c #F98337",
"k. c #F99137",
"l. c #F6874A",
"z. c #F68A49",
"x. c #F68A4A",
"c. c #F68C4A",
"v. c #F6914A",
"b. c #F6924A",
"n. c #F6944A",
"m. c #F6974B",
"M. c #F38E5A",
"N. c #F3955A",
"B. c #F39C5A",
"V. c #F08A69",
"C. c #F08B69",
"Z. c #F08C69",
"A. c #F08D69",
"S. c #F08E69",
"D. c #F08F69",
"F. c #F09169",
"G. c #F09369",
"H. c #F09569",
"J. c #F09769",
"K. c #F09969",
"L. c #F09B69",
"P. c #F09D69",
"I. c #F09E69",
"U. c #F09F69",
"Y. c #F09D6A",
"T. c #F09F6A",
"R. c #ED9277",
"E. c #ED9A77",
"W. c #ED9C77",
"Q. c #ED9D77",
"!. c #F0A169",
"~. c #EDA577",
"^. c #EDA677",
"/. c #E99A84",
"(. c #E99B84",
"). c #E99F84",
"_. c #E9A184",
"`. c #E9A284",
"'. c #E9A484",
"]. c #E9AA84",
"[. c #E9AC84",
"{. c #E6A290",
"}. c #E6A390",
"|. c #E6A490",
" X c #E6A590",
".X c #E6A690",
"XX c #E6A790",
"oX c #E6A890",
"OX c #E6A990",
"+X c #E6AA90",
"@X c #E6AB90",
"#X c #E6AD90",
"$X c #E6AE90",
"%X c #E6AF90",
"&X c #E6AF91",
"*X c #E3A99C",
"=X c #E3AE9C",
"-X c #E3AF9C",
";X c #E6B090",
":X c #E6B190",
">X c #E3B09C",
",X c #E3B69C",
"<X c #DCB7B2",
"1X c #DCBAB2",
"2X c #DCBBB2",
"3X c #DCBCB2",
"4X c #DCBFB2",
"5X c #D9BEBC",
"6X c #D9BFBC",
"7X c #E0B0A7",
"8X c #E0B1A7",
"9X c #E0B6A7",
"0X c #E0B9A7",
"qX c #E0BAA7",
"wX c #E0BBA7",
"eX c #DCC0B2",
"rX c #D9C0BC",
"tX c #D9C1BC",
"yX c #D9C2BC",
"uX c #D9C3BC",
"iX c #D9C4BC",
"pX c #D2CCD0",
"aX c #D2CDD0",
"sX c #CFD2D9",
/* pixels */
"                                                                                                                                            ",
"  y.y.u.y.r.y.t.y.r.r.y.r.y.r.r.r.r.y.r.t.u.y.y.r.r.y.y.r.u.r.y.y.y.y.y.y.y.y.r.r.u.r.r.y.y.y.y.y.r.y.y.y.r.r.r.t.y.r.r.y.r.y.r.r.r.y.y.r.  ",
"  w.w.w.w.0.w.w.0.w.0.w.e.w.0.0.w.q.e.w.w.w.w.0.w.0.e.0.w.w.e.0.0.w.w.0.0.w.w.0.0.w.w.0.0.q.q.0.w.w.w.0.0.w.w.w.q.w.e.w.w.0.0.w.e.w.w.0.w.  ",
"  8.8.9.9.8.9.9.8.8.9.9.9.8.8.8.8.9.9.9.9.9.9.9.9.8.8.9.9.9.8.8.8.9.9.9.9.9.8.8.9.8.9.9.9.8.8.9.8.8.9.9.9.9.8.8.9.8.9.9.9.9.9.8.9.9.9.8.8.  ",
"  7.3.4.7.4.3.7.4.7.4.7.7.7.7.3.6.3.4.7.7.4.7.6.4.4.7.3.7.6.4.6.7.4.4.7.4.4.4.4.4.7.3.7.7.4.7.7.4.7.3.7.4.4.4.4.4.6.7.3.3.6.6.7.7.7.7.4.4.  ",
"  2.2.2.1.,.5.5.,.2.,.5.2.2.2.2.2.,.1.,.,.,.,.5.1.2.5.1.,.,.,.5.5.,.5.,.1.,.,.2.,.5.1.5.5.,.2.1.2.,.2.,.,.,.1.2.1.2.5.,.1.2.2.1.5.2.1.1.5.  ",
"  :.<.:.<.:.:.:.:.:.:.<.:.:.:.:.:.<.<.>.<.<.:.:.<.<.<.:.:.:.<.:.:.<.<.:.:.:.<.<.:.:.<.:.:.<.<.:.:.:.:.<.<.:.:.:.:.:.:.>.<.:.:.>.>.:.<.:.:.  ",
"  =.=.*.=.=.*.*.=.=.*.*.=.=.=.;.-.*.*.;.*.*.-.*.;.=.=.=.=.=.=.=.=.=.*.;.*.-.-.=.=.*.=.;.=.=.=.=.=.*.*.*.=.=.=.=.=.*.*.=.*.;.=.=.;.=.;.=.=.  ",
"  %.%.g.g.g.g.g.#.#.#.#.g.g.g.g.#.#.#.h.g.g.g.h.g.%.#.&.#.#.#.#.#.$.#.#.g.g.g.g.g.h.#.%.#.h.g.g.g.$.#.#.#.#.#.#.#.%.%.#.#.g.g.g.g.g.h.#.#.  ",
"  d.iXaXsXsXsXsX:Xk.[.iXsXsXsXsX,Xo.[.iXsXsXsXsXiX^.B.,XO.+.o.o.d.iXf.eXsXsXsXsXsXaXk.[.iXsXsXsXsXwX!.[.[.O.o.O.+.m.eXO.4XsXsXsXsXsXaXk.@.  ",
"  s.sXqX%X%X%X~.aXT.iXiX%X%X&X].....%XaX].%X%X%X%XiXU.sXU.......U.sXs.s.%X%X%X&X%Xn...iXiX%X%X%X].4X%X%XsX].s.....%XiXX.s.%X;X%X%X%Xn...X.  ",
"  a.sX$XF F G a.sXI.uXuXF F F G G G $XsXa.F F G $XuXY.sXP.H F F P.sXa.F G G 0Xb.F G G uXuXG F H G uX$X$XsXuXuXa.F $XuXH G F G 0Xv.G F F F   ",
"  i.sX#XD D D p.sXL.yXuXD D S S S D #XsXp.D S D #XyXL.sXL.D S D L.sXp.D D D uXuXD D D uXuXS S D D yX#X#XsXN.aXuXp.#XuXD D D S uXuXD D S D   ",
"  ] sX@XC C C ] sXK.yXyXC A A A C C @XsX] C C C @XyXK.sXK.C Z A K.sX] C A C yXyXC C C yXyXC C C C yX@X@XsX] c.aXyX@XyXA C C C yXyXV C C C   ",
"  ' aXz.m B m B 9XJ.tX+XJ.J.J.J.` B +X3XJ.J.J.J.Q.yXJ.yX` B N B j.aX` N B M yXtXB M M tX+XJ.J.J.J.+X+X+X>XM B x.aX'.tXN B M m yXyXM B N M   ",
"  b H.b n n n b l._ W.tXsXsXsXsXOXn M.-XsXsXsXsX2XH.n l.n n n n n H.n n b n tX`.b n n W.tXsXsXsXsXOXM.M._ b n n n n W.b n n n tX`.n n n n   ",
"  ( sXG.z c x x rXG.tX=XG.G.G.G.c v XXrXG.G.G.G._.tXG.tX( v c c { pXE v c v ) z c c c rX=XG.G.G.G.=XXXoX1Xv v c c E.rXz c v x ( c c c z c   ",
"  R sX.Xj k j / sXF.rXrXl j l l j l .XsXR j l l .XrXF.sXF.l j j F.sX/ l j l ).1Xl l l rXrXl j k j rX.X.XsX^ j l l .XrXl j l h ).1Xj l l l   ",
"  ~ sX Xd g f T sXD.rX6Xd d g g d g  XsX~ d f f  X6XD.sXD.f s f D.sX~ d d s 6X6Xg d f 6X6Xg d d g 6X X XsX~ s f s  XrXg d f s 6XrXg d d g   ",
"  U sX|.u u u ! sXS.6X6Xi i p u u p |.sXU p i u |.6XS.sXA.p u p A.sXY p p p 6X6Xp u p 6X6Xu p i p 6X|.|.sX! p p a |.6Xp u p p 6X6Xa p u p   ",
"  I sX}.}.}.}.(.pXC.6X8X}.}.}.}.P y }.5X(.}.}.}.8X6XZ.pX(.{.}.}.}.sXI e e r 5X6Xr r y 5X6Xy r r y 6X}.}.sXI y y y }.6Xr r t e 6X6Xy t r y   ",
"  w *XpXsXsXsXsX7X[ V.5XsXsXsXsX<Xw R.<XsXsXsXsXpXR.L /.sXsXsXsXsX*Xw w 9 0  .7Xw 9 9 7X| 9 w w q /.{././.0 0 9 0  .<X0 9 9 9 } 7X9 q w 9   ",
"  7 6 K K J K K 7 5 6 6 J K Q J 6 7 5 J W W K J J 8 5 5 K W W K K 6 5 6 8 7 7 7 8 6 7 7 8 7 6 6 6 7 5 5 6 8 5 7 5 6 5 7 8 8 6 8 8 7 6 6 7   ",
"  3 2 3 3 1 3 4 1 1 2 1 3 2 2 1 4 3 3 3 1 4 1 4 2 1 1 1 2 4 1 2 3 4 2 3 3 1 1 2 4 1 3 4 1 1 1 3 1 3 3 4 3 4 1 2 1 3 3 2 4 1 3 3 4 1 2 4 3   ",
"  > > > , > : : < > < < , : > > > , > < > < , : > , > : > < : : > > : < > : < > : < > , , : > < > : < > : > : , > : : > : : , : , > : , >   ",
"  - - - ; - - = - = - - - - - ; - - - ; - - - - = = - - - - - - - - - - = - - ; - - ; = - ; - - = - - - - - = ; - - - - - - - = ; - - - -   ",
"  % % * * % % % % % % % * % % & & & % * & % % % % * % % % & % % & & % % % % & % % % * % * * % % % % % % % % % % % * & % % & % % % % & % *   ",
"  @ @ # @ + @ @ + @ @ @ @ @ @ + @ @ + @ + + + $ # + @ + @ @ + + $ $ # + + @ $ @ @ @ # @ @ @ @ @ @ @ @ @ @ + @ + $ + @ @ + @ # + + + @ + @   ",
"  O . X . . X X . O . X . X . X X . . . . . o . X O X o X . X X . . . . . . . . O . . . . . o X . O X O X . . X . O . X O X . o . . X X .   ",
"                                                                                                                                            "
};
