/* XPM */
static char *result[] = {
/* columns rows colors chars-per-pixel */
"70 30 217 2 ",
"   c black",
".  c #FF4800",
"X  c #FF4900",
"o  c #FF4801",
"O  c #FF4901",
"+  c #FF4A00",
"@  c #FF4B00",
"#  c #FF4A01",
"$  c #FF4B01",
"%  c #FF4D00",
"&  c #FF4D01",
"*  c #FF4E00",
"=  c #FF4F00",
"-  c #FF5000",
";  c #FF5001",
":  c #FF5200",
">  c #FF5300",
",  c #FF5201",
"<  c #FF5301",
"1  c #FF5500",
"2  c #FF5501",
"3  c #FF5600",
"4  c #FF5601",
"5  c #FF5800",
"6  c #FF5900",
"7  c #FF5801",
"8  c #FF5901",
"9  c #FF5B00",
"0  c #FF5B01",
"q  c #FF5C00",
"w  c #FF5C01",
"e  c #FF5E00",
"r  c #FF5F00",
"t  c #FF5E01",
"y  c #FF5F01",
"u  c #FF6200",
"i  c #FF6300",
"p  c #FF6201",
"a  c #FF6301",
"s  c #FF6500",
"d  c #FF6501",
"f  c #FF6600",
"g  c #FF6601",
"h  c #FF6800",
"j  c #FF6900",
"k  c #FF6801",
"l  c #FF6901",
"z  c #FF6C00",
"x  c #FF6D00",
"c  c #FF6C01",
"v  c #FF6D01",
"b  c #FF7000",
"n  c #FF7100",
"m  c #FF7001",
"M  c #FF7300",
"N  c #FF7301",
"B  c #FF7400",
"V  c #FF7401",
"C  c #FF7700",
"Z  c #FF7701",
"A  c #FF7801",
"S  c #FF7A01",
"D  c #FF7B01",
"F  c #FF7E01",
"G  c #FF7F01",
"H  c #FF7E02",
"J  c #FC651F",
"K  c #FC661F",
"L  c #FC6B1F",
"P  c #FC6C1F",
"I  c #FC741F",
"U  c #FC6520",
"Y  c #FC6620",
"T  c #FC6F20",
"R  c #FC7220",
"E  c #FC7520",
"W  c #FC7820",
"Q  c #FC7B20",
"!  c #FC7E20",
"~  c #F97836",
"^  c #F97937",
"/  c #F67B49",
"(  c #FF8201",
")  c #FF8301",
"_  c #FF8202",
"`  c #FF8501",
"'  c #FF8601",
"]  c #FF8502",
"[  c #FF8602",
"{  c #FF8901",
"}  c #FF8A01",
"|  c #FF8902",
" . c #FF8C01",
".. c #FF8D01",
"X. c #FF8C02",
"o. c #FF8D02",
"O. c #FF9001",
"+. c #FF9101",
"@. c #FF9301",
"#. c #FF9002",
"$. c #FF9302",
"%. c #FF9401",
"&. c #FF9601",
"*. c #FF9701",
"=. c #FF9402",
"-. c #FF9602",
";. c #FF9702",
":. c #FF9A01",
">. c #FF9A02",
",. c #FF9D01",
"<. c #FF9E01",
"1. c #FF9D02",
"2. c #FF9E02",
"3. c #FFA001",
"4. c #FFA101",
"5. c #FFA002",
"6. c #FFA102",
"7. c #FC8220",
"8. c #FC8520",
"9. c #FC8820",
"0. c #FC8C20",
"q. c #FC8F21",
"w. c #FC9120",
"e. c #FC9121",
"r. c #FC9220",
"t. c #FC9221",
"y. c #F98036",
"u. c #F98037",
"i. c #F99437",
"p. c #F6844A",
"a. c #F6894A",
"s. c #F6944A",
"d. c #F3835A",
"f. c #F38B5A",
"g. c #F38E5A",
"h. c #F3935A",
"j. c #F39A5A",
"k. c #F08D69",
"l. c #F08E69",
"z. c #F08F69",
"x. c #F09169",
"c. c #F09369",
"v. c #F09569",
"b. c #F09769",
"n. c #F09969",
"m. c #F09A69",
"M. c #F09B69",
"N. c #F09D69",
"B. c #F09F69",
"V. c #F09D6A",
"C. c #ED9377",
"Z. c #ED9477",
"A. c #ED9577",
"S. c #ED9A77",
"D. c #ED9D77",
"F. c #ED9F77",
"G. c #F0A169",
"H. c #F0A369",
"J. c #EDA177",
"K. c #EDA777",
"L. c #EDA877",
"P. c #EDA778",
"I. c #EDA878",
"U. c #E99B84",
"Y. c #E99C84",
"T. c #E9A184",
"R. c #E9A284",
"E. c #E9A484",
"W. c #E9A584",
"Q. c #E9A684",
"!. c #E9AC84",
"~. c #E9AD84",
"^. c #E9AE84",
"/. c #E6A490",
"(. c #E6A590",
"). c #E6A690",
"_. c #E6A790",
"`. c #E6AA90",
"'. c #E6AB90",
"]. c #E6AC90",
"[. c #E6AD90",
"{. c #E6AE90",
"}. c #E6AF90",
"|. c #E3AA9C",
" X c #E3AD9C",
".X c #E3AF9C",
"XX c #E6B190",
"oX c #E6B191",
"OX c #E3B09C",
"+X c #E3B59C",
"@X c #E3B79C",
"#X c #DCB8B2",
"$X c #DCB9B2",
"%X c #DCBFB2",
"&X c #D9BEBC",
"*X c #D9BFBC",
"=X c #E0B1A7",
"-X c #E0B3A7",
";X c #E0B5A7",
":X c #E0B9A7",
">X c #E0BBA7",
",X c #E0BCA7",
"<X c #DCC0B2",
"1X c #D9C0BC",
"2X c #D9C1BC",
"3X c #D9C2BC",
"4X c #D9C3BC",
"5X c #D9C4BC",
"6X c #D9C5BC",
"7X c #D6C5C6",
"8X c #D6C6C6",
"9X c #D6C7C6",
"0X c #D6C9C6",
"qX c #D2CCD0",
"wX c #D2CDD0",
"eX c #D2CED0",
"rX c #CFD2D9",
/* pixels */
"                                                                                                                                            ",
"  5.5.6.5.3.5.4.5.3.3.5.3.5.3.3.3.3.5.3.4.6.5.5.3.3.5.5.3.6.3.5.5.5.5.5.5.5.5.3.3.6.3.3.5.5.5.5.5.3.5.5.5.3.3.3.4.5.3.3.5.3.5.3.3.3.5.5.3.  ",
"  1.1.1.1.,.1.1.,.1.,.1.2.1.,.,.1.<.2.1.1.1.1.,.1.,.2.,.1.1.2.,.,.1.1.,.,.1.1.,.,.1.1.,.,.<.<.,.1.1.1.,.,.1.1.1.<.1.2.1.1.,.,.1.2.1.1.,.1.  ",
"  :.:.>.>.:.>.>.:.:.>.>.>.:.:.:.:.>.>.>.>.>.>.>.>.:.:.>.>.>.:.:.:.>.>.>.>.>.:.:.>.:.>.>.>.:.:.>.:.:.>.>.>.>.:.:.>.:.>.>.>.>.>.:.>.>.>.:.:.  ",
"  ;.&.*.;.*.&.;.*.;.*.;.;.;.;.&.-.&.*.;.;.*.;.-.*.*.;.&.;.-.*.-.;.*.*.;.*.*.*.*.*.;.&.;.;.*.;.;.*.;.&.;.*.*.*.*.*.-.;.&.&.-.-.;.;.;.;.*.*.  ",
"  %.%.%.$.@.=.=.@.%.@.=.%.%.%.%.%.@.$.@.@.@.@.=.$.%.=.$.@.@.@.=.=.@.=.@.$.@.@.%.@.=.$.=.=.@.%.$.%.@.%.@.@.@.$.%.$.%.=.@.$.%.%.$.=.%.$.$.=.  ",
"  O.#.O.#.O.O.O.O.O.O.#.O.O.O.O.O.#.#.+.#.#.O.O.#.#.#.O.O.O.#.O.O.#.#.O.O.O.#.#.O.O.#.O.O.#.#.O.O.O.O.#.#.O.O.O.O.O.O.+.#.O.O.+.+.O.#.O.O.  ",
"  .... ..... . ..... .w.r.r.r.t.X. . .o. . .X. .o.......r.r.r.r.r... .o.w.e.e.r.r. ...o...r.r.r.r. . . .r.r.r.r.r.w. ... .o.....o...o.....  ",
"  | | { } { { { { { @XeXrXrXrXrXL.{ ~.0XH.{ { q.<X<Xi.,XrXrXrXrXeX^.{ @XeXrXrXrXrXI.{ ~.6XrXrXrXrX,XH.H.rXrXrXrXrXrX@X{ { { { { { { | { {   ",
"  ` ` ` ` ' ' ` ' ` rX>XXXXXXXK.` ` ' 0X0X` ` oXrXG.G.rXXXoXXXXX!.rX0.rX>XXXXXXXP.' ' 5X5XoXoXXX!.%XXX' K.XXXXXXoX!.' ' ] ' ' [ ` [ ' ` [   ",
"  ( ( ( ( ( ( ( ( _ rX}.( ( _ ( ( ( ( B.rX}.s.rX+X( B.rXB.( ( ( B.rX9.rX}.( ( _ ( ( ( 5X5X( ( ( ( 5X}.( ( ( j.+X( ( ( _ ( ( ) ( ( ( ( ( _   ",
"  F G F F F G F G G rX{.F F F G G G F G :XwX:XwX8.F V.rXN.H F F N.rX8.rX{.G H G F G G 4X4XG F H G 4X{.F H G N.rXN.F F H G F G F F G F F F   ",
"  S D D D D D D D D rX[.D D S S S D D D 7.4X].J.D S M.rXM.D S D M.rX7.rX[.D D D D D D 4X4XS S D D 3X[.D D D M.rXM.D D D D D S D D D D S D   ",
"  Z Z Z Z Z Z Z Z Z wXW.n.m.m.m.Z Z Z Z h.n.n.n.h.Z n.3XF.n.m.m.n.9X! wXQ.n.n.n.n.Z Z 3X'.n.n.n.n.'.'.Z Z Z n.rXm.Z Z A Z Z Z Z A C Z Z Z   ",
"  V N B M V M V N V E.wXrXrXrXrXb.V N E.rXrXrXrXOXV Q `.rXrXrXrXwXa.N E.wXrXrXrXrXb.N D.3XrXrXrXrX`.Q B N N b.3XQ V M B V N M V V N V B N   ",
"  b m b m m m b m m rXR.v.v.v.g.b m m y.v.v.v.v.m m v.qXv.v.v.v.u.m W rXR.v.v.v.g.m m 2X.Xv.v.;X.Xn m m m b m u.m m m b m m m m b m m m m   ",
"  c z v z c x x c v rX_.c c c z c v c c I 1X_.S.v v c.rXc.v c c c c I rX_.v v z c c c 1X2Xc x T.rXp.c x c v E 1Xf.v c z c v x c c c c z c   ",
"  j j l j k j l l l rX).l j l l j l j l -XqX XqXR l x.rXx.l j j l l R rX).l l l l l l 1X1Xl j ^ rX Xl l l k x.rXx.j j l j l h l l j l l l   ",
"  g g g d g f s g g rX(.d d g g d g d z.rX(.~ qX-Xd z.rXz.f s f d g T rX(.s d d g d f *X*Xg d d $X8Xg s d g z.rXz.g f g d f s d g g d d g   ",
"  u a i u u u p u i rX/./././.Y.u p L 7X*Xp i /.rXk.l.rXk.p u p p p P rX/./././.Y.u p *X*Xu p i A.rXk.i p p k.rXl.u p p u p p a p a p u p   ",
"  r r r y r y y r e Z.qXrXrXrXrXU.y U.&X/ y r r #X#Xd.|.y t r y r y r C.qXrXrXrXrXU.y =X/ y r r y =XU.r r r y |.d.y y r r t e y y y t r y   ",
"  w q q q w 0 0 q 0 9 U J K Y U q w w w q w w 9 q 9 9 w q w q w 9 0 w w J U Y K Y 9 9 q 0 9 w w q w q 0 0 0 0 9 0 w 9 0 9 9 9 9 w 9 q w 9   ",
"  7 6 6 6 5 6 6 7 5 6 6 5 6 8 5 6 7 5 5 7 7 6 5 5 8 5 5 6 7 7 6 6 6 5 6 8 7 7 7 8 6 7 7 8 7 6 6 6 7 5 5 6 8 5 7 5 6 5 7 8 8 6 8 8 7 6 6 7   ",
"  3 2 3 3 1 3 4 1 1 2 1 3 2 2 1 4 3 3 3 1 4 1 4 2 1 1 1 2 4 1 2 3 4 2 3 3 1 1 2 4 1 3 4 1 1 1 3 1 3 3 4 3 4 1 2 1 3 3 2 4 1 3 3 4 1 2 4 3   ",
"  > > > , > : : < > < < , : > > > , > < > < , : > , > : > < : : > > : < > : < > : < > , , : > < > : < > : > : , > : : > : : , : , > : , >   ",
"  - - - ; - - = - = - - - - - ; - - - ; - - - - = = - - - - - - - - - - = - - ; - - ; = - ; - - = - - - - - = ; - - - - - - - = ; - - - -   ",
"  % % * * % % % % % % % * % % & & & % * & % % % % * % % % & % % & & % % % % & % % % * % * * % % % % % % % % % % % * & % % & % % % % & % *   ",
"  @ @ # @ + @ @ + @ @ @ @ @ @ + @ @ + @ + + + $ # + @ + @ @ + + $ $ # + + @ $ @ @ @ # @ @ @ @ @ @ @ @ @ @ + @ + $ + @ @ + @ # + + + @ + @   ",
"  O . X . . X X . O . X . X . X X . . . . . o . X O X o X . X X . . . . . . . . O . . . . . o X . O X O X . . X . O . X O X . o . . X X .   ",
"                                                                                                                                            "
};
