/* XPM */
static char *result[] = {
/* columns rows colors chars-per-pixel */
"100 100 34 1 ",
"  c #000000",
". c #2F1600",
"X c #261900",
"o c #311700",
"O c #3D1E00",
"+ c #3E2500",
"@ c #3C2800",
"# c #422300",
"$ c #462B01",
"% c #492F01",
"& c #572B00",
"* c #493001",
"= c #553400",
"- c #693400",
"; c #693B00",
": c #614201",
"> c #694401",
", c #694801",
"< c #B55701",
"1 c #A66601",
"2 c #A67101",
"3 c #C35D01",
"4 c #C26101",
"5 c #FF7601",
"6 c #FF7B01",
"7 c #E48B01",
"8 c #FF8301",
"9 c #FF8B01",
"0 c #E29A02",
"q c #FF9401",
"w c #FF9C02",
"e c #FFA402",
"r c #FFAC02",
"t c #FFB102",
/* pixels */
"                                                                                                    ",
"                                                                                                    ",
"  555565565666666666886868888898989999999999qq9qqqqqqqwqwqwwwwwwweeeeeeeererererrerrrrrrrtrttttttt  ",
"  5555556565566666886886888888888989899999qq9qqqqqqqqwqwwwwwwwweewwweeeeeeeerererrrrrrrtrttttttttt  ",
"  555555566566666666868688888889898999999q999q9qqqqqwqwqqwwwwwwweweeeeeeeeeerrrrrerrrtrrtrtrtttttt  ",
"  555555565666666886686886888889989899999q9qq9qqqqqqwqqwwwwwweweweweweeeeeereeerrrrrrrrttttttttttt  ",
"  555555566566666666686888888898899989999999q9qqqqqqqqwqwqwwwwwwewweeeeereeererrrrrrrtrrrrrttttttt  ",
"  5555555556666666868688688888889889999999qq9q9qqqqqqwqwwwwwwwwewweweeeeeeererrererrrrrtrttttttttt  ",
"  5555556556666666886886688888888989999999q9qq9qqqqwqqwqwwwwwwwwwweeeeeeeereerrerrrrrrrtrtrtrttttt  ",
"  55555656665666666686868888889889899999999q9qqqqqqqwwqwwqqwwwweeeewweeeeeererererrrrrtrrtrttttttt  ",
"  555555556566668686668888888889899989999q9qq99qqqqqqqwqwwwwX                             tttttttt  ",
"  5555566566565866668686868889889898999999999qqqqqqqqwqwqwww7 486686668666666666656655666 trtttttt  ",
"  555555556566666688666888888889889999999qq9q99qqqqqwqwqwwwww1&86686866666666666666565556 rttttttt  ",
"  555555665666666666888686888898898989999999qqqqqqqqqwqwqqwwww=                  -5666656 tttttttt  ",
"  555555565666668686688868888888989899999q9q9qqqqqqqqqwqwwwwwwwweeweeeeeeereerere%<656566 rrtttttt  ",
"  5565565565666666668668888889898999999999q9q99qqqqqqwqwqwwwwwewwweeweeeeeererre%-6665655 ttrttttt  ",
"  5555555566666668686688888888888998999999999q9qqqqqqqwwqwwwwwwweweeeeweeereerr%-66666566 rttttttt  ",
"  5555555665666666686868868888989899899999qq9qqqqqwqqwqwwwwwwwweweewweeeeeerer%-566653656 tttttttt  ",
"  555555656656666666688688888888898999999q99qq9qqqqqwqqwqwqwwwwewwweeeeeeeere*-66666-+-65 rttttttt  ",
"  5555555655666668688688888888899898999999q9q9qqqqqqqqwqwwwwwwwwweeweeeeeeee%-86666-@r 66 trtttttt  ",
"  55555656666666668668688888889889899999999q9qqqqqqqwqqwqwwwwwwweweeeeeeerr%-66666-@rt 66 rtrttttt  ",
"  555555565656666666686888868889898999999qq9q99qqqqqwqwqwwwwweweweweeeeeee%-66666-@rrr 66 rttttttt  ",
"  5555565665666668686888688889888899999999999qqqqqqwqqwwwqwwwwwweweweeeee%-68686-@rrrr 66 tttttttt  ",
"  555555556666666666868688888889999899999q9qq9qqqqqqqwqwwwwwwwweweweweee%-86666-+rrrrr 66 trtttttt  ",
"  5555565566666666686888688889888989999999q9q99qqqqqwqwqwwwwwwwweweeewe$-86866-@rerrrr 66 tttttttt  ",
"  55565556656666686668688888889898999999q99qqqqqqwqqqqqwwqwwwwwewwweee$-66868-@rrrrrrr 68 rttttttt  ",
"  55555556566586668686888688888889889999999999qqqqqqqwqwqwwwwwwwwewee%-88668-@rerrrrrr 66 tttttttt  ",
"  5555555566665666866866888888999899899999qqqqq9qqqwqqwqwwqwwwweewee$-86888-@eerrerrrr 66 rrrttttt  ",
"  555555566656566866888888888888989999999q999qq9qqqqqwqwqwwwwewwwee$-88688-@errrrrrrrt 66 tttttttt  ",
"  555555655666666668666886888889898899999q9qq9qqqqqqqwwqwwwwwwwewe$-88886-@eererrrrrrr 66 tttttttt  ",
"  5555555566666866668686868888889899999999999qqqqqqqwqqwwwwwwwwww$-88888-@errerrerrrrr 66 rtrttttt  ",
"  5555555665566668866888888889898989899999qq9qqqqqqqqqwqwqwwwwwe$-88888-@reeereerrrrrr 86 tttttttt  ",
"  55565556566666866668686888889898999999q99q9qqqqqqqqwqqwwwwwww$;88888-@eererererrrrrr 66 tttttttt  ",
"  5555555566666666868688888888888989999999q99q9qqqqqqwwwqwwwww$-88888;@eeereeerrrrrrrr 68 rtrttttt  ",
"  55555665656666666868688888898999889999q9q9qq9qqqqqqqwwwqwww$;89888-@eeeeeeerererrrrr 86 tttttttt  ",
"  55555656565666866866868888888889998999999q9qqqqqqqwqqqwwww$;89889-@eeeeerererrrrrrrr 68 rrtttttt  ",
"  555555666566666686688868888889989999999q999qqqqqqqwqqwqww$-99888;+eweeerererrerrrrrr 68 tttttttt  ",
"  55556555566666666886688888899889889999999qq9qqqqqqqwwqww$-98989-+eeeeeeeerrererrrrrt:&4 rtrttttt  ",
"  555555566666666868686888888888989999999q999qq9qqqwqqwww$-98989;+weeeeeeeeeerererrrrrr2  rttttttt  ",
"  5555565565666666668688688888988989899999qq9qqqqqqqqwqw$-99999-@weeeweeererrerrrrrrrrrt0Xtttttttt  ",
"  555555566666666666886888888889989999999q9q9qqqqqqqqqw$;99999-@weeeeeeeererrerrrrrrrtrrtrtttttttt  ",
"  555556565665666886686868888889898999999999qqq9qqqqww#;99999-@wweewweeeeeeeereeerrrrrrttrtttttttt  ",
"  555555566666666866688888888888889999999qqqq99qqqqwq$;99999;@wwweeeeeeeeereerrrrrrrrrrrtrrtttttttX ",
"  5556555655666666688686688889899998999999999qqqqqqq#;99999-#wwewewweeeeereeererrerrrrtrrtrttttttt  ",
"  555555656666666686688688888889898999999qq9qqqqqqq$;99999;@wwewweeeeeeeereeereeerrrrrrttrrttttttt  ",
"  555555565666668666868886888888989899999999q99qqq#;q99q9;#wwwewweweeeeeeeerrerrrrrrrrtrrttttttttt  ",
"  55566565666666666868688888898989899999999q9q9qq#;qq999;@wwwwwweweweeeeeeerrrerrrrrrrrrtttrrttttt  ",
"  555555556666666668686888888888989998999qq9qqqq$;9q9q9;@wwwwwewwweeeweeereeeerrerrrrrrtrtrttttttt  ",
"  555556566666666688688686888889898999999qq99qq$;9qq9q;@wwwwwwwweweeeeeeeerererrerrrrrrrrttrtttttt  ",
"  55555555566666666686868888889898999999999qqq#;qqq9q;+qwqqwwwwewweweeeeeererererrrrrrtrtrtttttttt  ",
"  5555656565666668666888688889898989999999999#;qqqq9;@wqwwwwwwweeeewweeeeeeeererrrrrrrrtrttttttttt  ",
"  55555556666666668886688888888898998999q9qq#;qqqqq;@qqwqwwwwwwwwweeeeeereererrrrerrrtrtrtrttttttt  ",
"  555556565666666866686888888889899899999q9#;qqqqq;@qqqwqwwwwwweeweeeeeeeeerererrrrrrrtrtrtttttttt  ",
"  5555565566656666686688888888899899999999#>wqqqq;$qqwwqwwwwewewweewweeeeeererrerrrrrrrtrtrttttttt  ",
"  555555666566666866886888888888988999999#;qqqqw;#qqqwqwwwwwwwwweweeeeeeeeeeerrrrrrrrtrrtrttttttttX ",
"  55555565666666668686886888898989899999#>qwwqq;@qqqwqqwwqwwwwwewewweeeeerrereerrerrrrrtrtrttttttt  ",
"  5556555666666666886886888889889899999#;wqwqq;+qqqqqqwqwwwwwwwewewweeeeeeerrereerrrrrrrtttttttttt  ",
"  555556555666666866686868888889898989#>wwwqw;#9qqqqwwqwqwwwwwwweweeeeeereeeererrrrrrrtrtttttttttt  ",
"  55555565666666666666888888889898999#;wwqwq;+qqqqqqqwwqwqwwweweweweeeeeeeerreerrrrrrrrttttttttttt  ",
"  5555565656566666868868888898888998#;wwqww>#qqqqqqwqqqwwwwwwwwweweeweeeeeererrrrerrrrtrtttttttttt  ",
"  555555566566666668688668888889898#>wwwww;+q9q9qqqqqwqqqwwwwweweweweeeererererrrrrrrrrttttttttttt  ",
"  55566565666666668686888888899898@>wwwww;#99qqqqqqwqwwwwwwwwwewweeeeeeeeereerreerrrrttrtttttttttt  ",
"  5555565566666668866868888888988#>wwwww>#9qq9qqqqqqqqwqwwwwwwwwewewweeereeererrrrrrrrrrtttttttttt  ",
"  555555565666666666868868888888#>ewwww;#9q9qqqqqqqqqwqwwqwwwwweweweeeeeeeerereerrrrtrrttttttttttt  ",
"  55555656666666666866868888889#>wwwwe;#99q99qqqqqqwqqwwwwwwwwweweweeeeeereereerrrrrrrttrtrtttttttX ",
"  5555556565666668668688888888O>weeww>#9q99qq9qqqqqqqwwqqwwwwwweeweweeeeeeererrrrerrrrrrrttttttttt  ",
"  555556566656666668888668888O>wewew>#99999qqqqqqqqqqwqwwwwwwwwwweweweeeeeerrerrrrrrrrrtrrtrtttttt  ",
"  55555556566666686666888888#>eewew>#99999q99q9qqqqqqqqwqwwwwwweweeeeeeereeeerreerrrrrtrtttttttttt  ",
"  5555656565666668688688888#>weewe>#999qq9q9qqqqqqqqwqwqwwwwwwwwweeweeeeeerrererrrrrrrtrrrtrtrtttt  ",
"  555565556666666668686868O>eeewe;#899999999q99qqqqwqwqwqwwwwewweeweeeeeereererrrrrrrrrrtttttttttt  ",
"  55555556566666666688888+>eeeee>#899999qq9q99qqqqqqwqwqwwwwwwweweweeeeeeereerrrrrrrrrrtrtrttttttt  ",
"  5555566566666668866668O>eeeew>#9998999999qqqqqqqqqqqwwqwwwweweeweeweeeeeeereererrrrrtrrttttttttt  ",
"  555555666566666886868O>eeeee,#89999999999q9qqqqqwqqwqwwwwwwewwwweeeeeeeererererrrrrrrrtrrttttttt  ",
"  55556556666666666668O,eeeee,#89889899999q9qq9qqqqqqwwqqwwwwwweweewweeeeereerrrrrrrrrtttttttttttt  ",
"  5555556556666668686+,eeeee>#8989899999q99q9qqqqqqwwqqwwqwwwwwwweweeeeeeeeeererrrrrtrrrrtrttttttt  ",
"  555655565666666668O>eeree,#98898999999999q9q9qqqqqqqwqwwwwwweweweeeeeeerererrrrerrrrrtrttttttttt  ",
"  55555665665666666+,eeree,#888989999999qq9qq9qqqqqqqwwwqwwwwwweweeweeeeeererererrrrrrtrtrrttttttt  ",
"  5555555656666668O>reree,#888988989999999999qqqqqqwwqqwwwwwwweweweweeeeeeeeererrrrrrrrtrttttttttt  ",
"  555566565666666O>rrree,#8888888989999q9qqqqqqqqqqqqqwwqwwwwwwwweweeeeererrrerrerrrrrrtrttttttttt  ",
"  55555565666666O>rrerr,#88888898999899999999q9qqqqwqwwqwwqwweweweeeeweeeeeeererrrrrrrtrrtrttttttt  ",
"  5555555665666O>rrrrr>#688888988999999999q9qqqqqqqwqqwqqwwwwwweeweeeeeeeeeeerrrrerrtrrtrtttrttttt  ",
"  556556556666O,rrrrr>#888888898989899999q9q9q9qqqqqwwqwwwwwwwewwweweeeeeerrrererrrrrrtrrttrtttttt  ",
"  55555556566O,rrrrr>#868888898989989999999q9qqqqqwqqwqwwwwwwwewewweeeeerereerrrrrrrrrrrrrtttttttt  ",
"  5555565665O,rrrrr>#68868888888989999999q99q9qqqqqqqqwqwqwwewwwweeeweeeeeeereerrrrrrrtttttttttttt  ",
"  555555556O,rrtrr>#686888888989899999999qq9qqq9qqqqwqwwwwwwwweeeweeweeerereerrrerrrrrtrtrtttttttt  ",
"  55555666O,trrrr>#668888888888898899999999q9qqqqqqwqqwqwqwwwwwwweeweeeeeereerrerrrrrtrrrtrrtttttt  ",
"  5555556O>rtrrr>#688688888888988998999q99q9qq9qqqqqqwwwqwwwweewweweeeeeereereerrerrrtrttrtttttttt  ",
"  555565O,trrrr>#68668868888889899899999q99q9qqqqqqqwqqqwwwwwwwwweweeeeeeeererrrrrrrrrtrtttrtttttt  ",
"  555555.,tttr,#68686886688889899989999999999qqqqqqqwqwqwwwwwwweewweeeeeereerererrrrrttrrttttttttt  ",
"  5555565.,rt,#66666686888888888889989999q9qqq9qqqqqqwwwwqwwwwwwweeeeeeeeeererrerrrrrrrrrttrtrtttt  ",
"  55555565o,,#66666886888688889899989999q99q9qqqqqwwqwqwwwwwwwweeewweeeeerrerrerrrrrrrrttrtttttttt  ",
"  555565565o#666686868688888889889899999999q9q9qqqqqqqqwwqwwwwewweeeweeeeeeeerrrerrrrttrrttttttttt  ",
"  55555656666666666886888888888999899999qq9q9qqqqqqqwqwwwwwwwwewewweeeeereerererrrrrrrtrtrtttttttt  ",
"  5555556556666668866886888889988999999999q9qqqqqqwqqwwqqwwwewwwweeeeeeeeerererrrrrrtrrtrtrttttttt  ",
"  55655656666686666868688888898998999999999q9qqqqqwqqwqwwwwwwwweeweweeeeeeererererrrrrtrtrtttttttt  ",
"  55555556566666686668886888888889889999q9q99qqqqqqqqqwqwwwwwwweweeweeeereeererrrrrrrrrrttrttttttt  ",
"  555566565666666866888888888898989999999qq9qqqqqqqwqwqwwqwwwweweweeeeeeeeererrrrerrrrrttrttrttttt  ",
"  55555565666666666886688888888989899999999qq99qqqqqqqwwwwwwwwweweeweeeeeeerrererrrrrrrtrttttttttt  ",
"                                                                                                    ",
"                                                                                                    "
};
