/* XPM */
static char *result[] = {
/* columns rows colors chars-per-pixel */
"100 100 35 1 ",
"  c #000000",
". c #2F1600",
"X c #261900",
"o c #311700",
"O c #321800",
"+ c #3D1E00",
"@ c #3E2500",
"# c #3C2800",
"$ c #422300",
"% c #462B01",
"& c #492F01",
"* c #572B00",
"= c #493001",
"- c #553400",
"; c #693400",
": c #693B00",
"> c #614201",
", c #694401",
"< c #694801",
"1 c #B55701",
"2 c #A66601",
"3 c #A67101",
"4 c #C35D01",
"5 c #C26101",
"6 c #FF7601",
"7 c #FF7B01",
"8 c #E48B01",
"9 c #FF8301",
"0 c #FF8B01",
"q c #E29A02",
"w c #FF9401",
"e c #FF9C02",
"r c #FFA402",
"t c #FFAC02",
"y c #FFB102",
/* pixels */
"                                                                                                    ",
"                                                                                                    ",
"  yyyyyyyyyyyyyyyyyyyyyyyyyyyyyyyyyyyyyyyyyyyyyyyyyyyyyyyyyyyyyyyyyyyyyyyyyyyyyyyyyyyyyyyyyyyyyyyy  ",
"  yyyyyyyyyyyyyyyyyyyyyyyyyyyyyyyyyyyyyyyyyyyyyyyyyyyyyyyyyyyyyyyyyyyyyyyyyyyyyyyyyyyyyyyyyyyyyyyy  ",
"  yyyyyyyyyyyyyyyyyyyyyyyyyyyyyyyyyyyyyyyyyyyyyyyyyyyyyyyyyyyyyyyyyyyyyyyyyyyyyyyyyyyyyyyyyyyyyyyy  ",
"  yyyyyyyyyyyyyyyyyyyyyyyyyyyyyyyyyyyyyyyyyyyyyyyyyyyyyyyyyyyyyyyyyyyyyyyyyyyyyyyyyyyyyyyyyyyyyyyy  ",
"  yyyytyyyyyyyyyyyyyyyyyyyyyyyyyyyyyyyyyyyyyyyyyyyyyyyyyyyyyyyyyyyyyyyyyyyyyyyyyyyyyyyyyytyyyyyyyy  ",
"  yyyyyyyyyyyyyytyytyyyyyyyyyyyyyyyyyyyytyyytyyyyyyyyyyyyyyyyyyyyyytyyytyyyyyyyyyyyyyyyyyyyytyyyyy  ",
"  yyyyytyyytyyyyytyyyyytytyytyyyyyyytyyyyyytyyyyyyyyyyyyyyyyyyyytyytyyyyytytyytyyyyyyyyyyyyyyyyyyy  ",
"  tttytyyyyyytytytyttyytyyyyyytyyyyyyytytyyytyytytyttytyyyyyyytyyyyytyytyyyytyyyyyyytyytyttytyytyy  ",
"  yyyttyyt                             Xtyttytyytyyyytytyyyyytytytyyytyytyyyyttyyyyyyttytyytyyytyy  ",
"  tytyytty 777676776777777777777799995 qtytyytttyttytytyyyyytytytytttytytytytyytyyyyytyyyytyttyyyy  ",
"  tytytytt 76677776777777777777979797*3yytytyttytytytyttttytyttyytyttytytttyytytyyytytttttytyttyyy  ",
"  ttyttttt 6767667;                  >tyyttttytytttttytyyytytytttttyyttytytttttyyyttytyttytttytyyy  ",
"  ttttytty 7676774#yttttyttttttttttyttttttyttttttttyytttttttttttttytttttytytttttyttytytytytytttttt  ",
"  tttttttt 6767677;#ttttttttttttttttttttttttttttttttttttttttyttyttttttttttttttttyttttttttttttytttt  ",
"  tttttrtt 76767767;@ttttttttttttttttttttttttttttttttttttttttttttttrtttttttttttttttttttttttttttttt  ",
"  tttttttt 776177777;#tttttttttttttttttttttttttttttttttttttttttttttttttttttttttttttttttttttttttttt  ",
"  tttttttr 67;&;77777;#rttttrtttrtttrtttrtttrttttttttttttttrtttttttttrttttrtttttrttttttttttrrttttt  ",
"  ttrttrtt 76 t&;77777;#trttttrtttttrtrtrttrttttttrtttrtrtttrtrttttrtttttrttttrttttttrtttttttttttt  ",
"  ttttrttt 77 tr=;77777;#ttrttrtrttttttttttrtttrrttrtttrtttrtttrrtttttttttttrttttttrtrtrrrttrtttrt  ",
"  rrrtrtrt 77 rtt=;77797;#rtrrtttrtrrtrtrtrtrtrtrttttrtrrrtttrttttrtrtrttrrtrtrtrtrtrtttttrttttrtt  ",
"  rttttrtr 77 rtrr=;97777;@ttrtrtrrtrttrtttrrtrttrtrrtrttrrtrtrttrtttrtrrtrtttttrttrtttrrttrtrttrt  ",
"  trrrrttr 77 rtrtr&;77997;#rtrttrtrtrrtrrtrtrtrrtrttrrtrttrttrrtrrrrtrttrtrrrrrrtrtrrttrtrtrtrrrt  ",
"  trrtrrrr 77 rrttrr=;79797;#trrrrtrttrrtrrrtrrtrttrrttrrttrrtrrrtrrrtrrtrtrtrrttrtrttrtrtrrtrrtrr  ",
"  rrrrtrtr 77 trrrtrt=;79779;#rttrrrrrtrrrtrtrtrrrrrrrrtrrrrtrrtrtrttrtrrrrtrrtrrtrrrrrrtrrtrrrtrt  ",
"  rtrtrrrt 77 rrrtrrrr&;79977;#rrrrtrtrrrtrrrrtrrtrtrtrrrrrtrrrrrrrrrrrtrrrrrrrrrtrtrrrrtrrrtrtrrt  ",
"  rrrrrrrr 77 rrrrrrrrr%;79999;@rrrrrrrrrrrrrrrrrrrrrrrrtrrrrrtrrtrrrrrrrtrrtrrrrrrrtrtrrrrrrrrrrr  ",
"  rrrrrrrr 77 rrrrrrrrrr%;79999;#rrrrrrrrrrrrrrrrrrrrrrrrrrrrrrrrrrrrrrrrrrrrrrrrrrrrrrrrrrrrrrrrr  ",
"  rrrrrrrr 79 rrrrrrrrrrr=;99999;@rrrrrrrrrrrrrrrrrrrrrrrrrrrrrrrrrrrrrrrrrrrrrrrrrrrrrrrrrrrrrrrr  ",
"  rrerrrrr 77 rrrerrrrrrrr%;79999;#rrrrrrrrrerrrrrrrerrrrrrrrrrrrrrrrrrrrrrrrrrrrrrrrrrrrrrerrrrrr  ",
"  rrrrrerr 77 rrrrrrererrrr%;99999;@rerrrrerrrrrerrrrrrerrerrrrrrerrrerrrerrrerrrerrrrerrrrrrrerrr  ",
"  ererrerr 77 rrrrererrereer%;99999;#rrrerrrerrerrrerreerrrerrrererrrrrrerrrrrrrerrrrrerrrrrerrrre  ",
"  rrrrerrr 79 eeeerrrrererrrr%:99099;#rrrrreerrrrerrerrrrereerrrrerereerrereerererererreerererrerr  ",
"  reereree 97 errereerrerereer&;90999:@erereereereeeererererreerrrerererererererrereerreererrerrer  ",
"  eereerer 77 rereeerereerereee%;99099:#ererrereererrererereereeeererereereerereererrererereerrere  ",
"  eeeeeeee 99 erereeerereeerreee%;09090;#reeeeererrereereeerrreererrererreerererreeeeeerreerererer  ",
"  errereer 5*-eeeereereeereeeeere%:99090;#errreeeeeeeererreeeereeeeeeeeereereeereerrereeeereeereee  ",
"  eeeereee  2eeeeeeeeeeereeeeeeeee%;09000;@eeeeeeeerereeeeeereeereeeereeeeeeereeeeeererereeeeeeeee  ",
"  eeeeeeeeX8eeeeeeeeeeeeeeeeeeeeeee%:09000;#eeeeeeeeeeeeeeeeeeeeeeeeeeeeeeeeeeeeeeeeeeeeeeeeereeee  ",
"  eeeeeeeeeeeeeeeeeeeeeeeeeeeeeeeeee%;00000;@eeeeeeeeeeeeeeeeeeeeeeeeeeeeeeeeeeeeeeeeeeeeweeeeeeee  ",
"  eeeeweeeeweeeweeweeeweeeeweeeeeeeew%;00000:@eeeeweeeeeeeeeeeeeeeeeeeeeeeeeeeweeeeeeeeeeeeeeeeeee  ",
"  eweeeeeeewweweeeeeweeeeeweeeeeweeeee%;00000:@eeweeeweweeeeeeweeweeeeeeweeeeeeeeweeeeeeeeeeweeeee  ",
"  eeweewweeeeeeeeeweeeewweeeweweeeeweee%:00000:@eeeweeeeewewweweeeweweweeeweeweweeeeeweeweeweeweee  ",
"  weeeewweeeweweweweweewweeeweweweeweeew%:000w0:@eewweeeeweeeweeweewweweweweeweeeweeweeweeweewweew  ",
"  ewwwewewwweweeewewewweewwwewewweewwwwew%:0000w;@weewwwwewwweeweeweeweeewewewweweweewweewewweewwe  ",
"  wewewwwewewewwwwweewewwewewwweweweeewwee$:w0w0w:@wweweewwewewwwwewweewewweweeweewwwweeweeeeeeeew  ",
"  ewwwwewewwwwewweewwwewwewwweewewwwwwwewww%:00w0w:@ewwwewwewwewewwewwwwwewwewwewwweewwwwwwwwwwwew  ",
"  wwwwwwwewwwwewwwwwewwwewwwwwwwwewwewwwwwew$:wwwww;@wwewwewwwwewwwewwwwwwwwwwewewewwewwwwewewwwww  ",
"  wwwwwwwwwwwwwwwwwwwwwwwwewwwewwwwwwwwwwwwww$:ww0ww:%wwwwwwwwwwwwwwwwweewewwwwwwwwwwwwwewwwwwwwww  ",
"  wwwwwwwwwwwwwwwwwwwwwwwwwwwwwwwwwwwwwwwwwwww$:w0www:@wwwwwwwwwwwwwwwwwwwwwwwwwwwwwwwwwwwwwwwwwww  ",
"  wwwwwwwwwwwwwwwwwwwwwwwwwwwwwwwwwwwwwwwwwwwww$;wwwww:$wwwwwwwwwwwwwwwwwwwwwwwwwwwwwwwwwwwwwwwwww  ",
"  0wwwwwwwwww0wwwwwww0w00www0ww0w0wwwwwwwwwwwwww%:wwwwe:@wwwwwwww0wwww0wwwwwwwwwww0wwwwwwwwwwwwwww  ",
"  ww0w0w0w0www0w0w0wwwwwwww0wwwwww0ww0w0www0ww0ww$:wwwww:$0ww00wwwwwwwwwww0w0wwwwwwwww0wwww00wwwww  ",
"  www0www0w00ww0wwwww0ww0www0w0wwww0ww0w0ww0w00www$:wwwwe:@wwwwwwwww0www0wwwwww00ww0w0ww0wwwww0www  ",
"  000ww00ww0ww0w0w000w0ww00ww0w00w0w0ww0ww0ww0www0w$:eweew:@00w00w00w00ww00w0w0www0ww0w0ww000wwww0  ",
"  000ww0w0w00w0ww0w0w0w00w000ww00ww00w0ww0w0w0w0w0w0$:wwwee:$0w0w0ww0ww0w0w00w0w0ww0www0w0www0w00w  ",
"  ww000w0w0ww000000w000w00ww000w000ww0000w0ww00w0w0ww$,ewewe,$0w0w00000w0w0ww0w0000w00w00w00w0w0w0  ",
"  00w0000w00w000w000w0w0w000w000w0000ww000000w00000000$,eweee:@0000ww0w00w00000ww0w0w000w00w0w0w00  ",
"  w000000000000w0000000000w0000000w0000000w00000w00w000$:eewee,$w000000000w00000000000w0000000000w  ",
"  000000000000000000000000000000000000000000000000000000$,weeee:$00000000000000w000000000000000000  ",
"  0000000000000000000000000000000000000000000000000000000$:eeeee,$00000000000000000000000000000000  ",
"  00000000000000009000000000000000000000000000000000000000$,eeeee,$0000000000000000000000000000000  ",
"  090090090090000000009000000090000900000000900090000090000$,eeeee:$000000009000000000000090000000  ",
"  0900009000900099000900099000900099000090900900000099009000$,eeerr,$90000009009000000900009090090  ",
"  09090900909090000909900009909009000909009000909909000900099$,eeeee,$0990909000090900090900000900  ",
"  900999090990909090009090900909909090900009090900909090090909$,rerre,$990900909090909090909090909  ",
"  0990909090090909099090909090900909090999909090090909099090900+,eerrr,$09099090909090909090909009  ",
"  09999009090990999090999009090909000909900990999009990990999009+:reere,$9000990099090099009009009  ",
"  999099999990990990990999909999999999909990990999999009090999900$,rrrrr,$999099090999909990999999  ",
"  0999909999999999999909999999090999999909999099999090999999909999+,rerrr,$09999990990999099999090  ",
"  99999909999999999999999990999999909999999999990999999909999999999$,rrrrr,$9999999999999999099999  ",
"  999999999999999999999999999999999999999999999999999999999999999999+,rrrrr,$999999999999999999999  ",
"  9979999999997999999997999999999999999999999999999999999999999999999@,rrrtr,$99999999999999999999  ",
"  99999999799999799999999997999979799999999999977997999999999999999999+,rrrrt,$9979999999999999999  ",
"  979979979999799999799999997997999997979797999999997999999779997999799@<rrtrr,$999979999979799999  ",
"  9979977979997979979997997999977999997999799977977999977999979799999797@,rtrtt,$97999979997999999  ",
"  79799997979799979979797799797999799799799779997999979797797997977979977+,rtrrt<+7979797799799779  ",
"  997977797979779779797797979797979779979997997997977799999997997979997997+,rtrrt<$979799979797997  ",
"  7797979797797977979799797979797979779777977799797997797777797997979797799@,tttrr<$97997797979779  ",
"  77979779779777779797777977979779779799797797777997799797777997797979977997+,rtttt,$7779797779799  ",
"  997779779977999797797977977797797997777779779777779777779977777777777977797@,ttttt<$799779977977  ",
"  7777777777777777777777977779777777779777777977797977797977797997777977979797+,ttttt<$77797797979  ",
"  77977777797777779777777779777797777777977977777779777777777777779777777777777@,ttttt<$7777777777  ",
"  777777779777777777777777777777777777777777777777777777777777779777777777797777+<ttttt<$777777977  ",
"  7777777777777777777777777777777777777777777777777777777777777777777777777777777+<tttty<$77777777  ",
"  77777777777777777777777777777777777777777777777777777777777777777777777777777777+<tyttt<$7777777  ",
"  776777677776777777777777777777767777777777777777777777777777677777776777777677676+<tyttt<$777777  ",
"  7767767677677677767767666777676767777677677677777677677677767777776767776777777777+<tyyt<O767767  ",
"  67766767767677667776777777677677767667767777677777676776677767767677677776766767667+<ty<.6777677  ",
"  766776676777666767677666767667766666766776677667667676776766776767677676766677766776+<<o77676776  ",
"  6766767667666766676667676767666677676766676667766767676676676676766766676776667676766+o676676667  ",
"  767667667667667766667676766766676767666667676667676666676766677667767676666666676676666766767667  ",
"  666666666666666666766666666676666666676766676666666767766667666666666666677766666666766667666676  ",
"  667666676666666766666666666666676666666666666666666666666666666666666666666667667666766666766666  ",
"  666666666666666666666666666666666666666666666666666666666667666666766667666666666666666666666666  ",
"  666666666666666666666666666666666666666666666666666666666666666666666666666666666666666666666666  ",
"  666666666666666666666666666666666666666666666666666666666666666666666666666666666666666666666666  ",
"                                                                                                    ",
"                                                                                                    "
};
