/* XPM */
static char *result[] = {
/* columns rows colors chars-per-pixel */
"70 30 83 1 ",
"  c black",
". c #260E00",
"X c #261300",
"o c #421600",
"O c #421C00",
"+ c #581D00",
"@ c #422300",
"# c #582000",
"$ c #582A00",
"% c #583200",
"& c #6B2400",
"* c #6B2A00",
"= c #7D2C00",
"- c #6B3300",
"; c #6B3B01",
": c #7D3000",
"> c #7D3D00",
", c #7D4300",
"< c #7D4A00",
"1 c #8D3500",
"2 c #8D3B00",
"3 c #9C3700",
"4 c #9C3C00",
"5 c #AA3E01",
"6 c #8D4400",
"7 c #8D4B00",
"8 c #9C4400",
"9 c #9C4D00",
"0 c #8D5200",
"q c #9C5500",
"w c #AA4601",
"e c #AA4E01",
"r c #B84500",
"t c #B84C01",
"y c #AA5701",
"u c #AA5E01",
"i c #B85201",
"p c #B85E01",
"a c #AA6501",
"s c #B86101",
"d c #B86B01",
"f c #C54900",
"g c #D14D00",
"h c #C55200",
"j c #C55B01",
"k c #D15400",
"l c #DD5400",
"z c #D15801",
"x c #E95601",
"c c #E95C00",
"v c #FF5700",
"b c #F45A00",
"n c #FF5B00",
"m c #C56D01",
"M c #DD6601",
"N c #D16901",
"B c #D17301",
"V c #DD7101",
"C c #DD7D01",
"Z c #E96300",
"A c #E96B01",
"S c #F46301",
"D c #FF6300",
"F c #FF6B01",
"G c #E97201",
"H c #E97D01",
"J c #F47601",
"K c #FF7301",
"L c #F47A01",
"P c #FF7C01",
"I c #DD8602",
"U c #E98501",
"Y c #E98C01",
"T c #F48401",
"R c #FF8301",
"E c #F48A01",
"W c #FF8B01",
"Q c #E99102",
"! c #F49602",
"~ c #FF9401",
"^ c #F49802",
"/ c #FF9D01",
"( c #FFA202",
/* pixels */
"                                                                      ",
" (((((((((((((((((((((((((((((((((((((((((((((((((((((((((((((((((((( ",
" //(//(/((^(///^(QQQQ^(^//(/^^(/(/^(^QQQ^(/(//(/(((//(/(QQQQ(/(//(/// ",
" ////////Y@Y/^I%a@   %I@Y/^I%0a//!@a@   </;Q////da/////;X  XI//////// ",
" //~///~/Y %a/0@0@YYI d d//7@0@//Y d IYY//@0~/~/d Y~///@0YY!//////~// ",
" ~/~~~/~~Y ; a0@0@/~Y d d//7@0@~~Y d Y/~~~@7~/~/d Y~~~~@7/~~~~~~~~/~~ ",
" ~~~~~~~~U da $@7@~~U d d~~7@7@~~U d U~~~~@7~~~~d U~~~~@0~~~~~~~~~~~~ ",
" ~~W~~~W~E,~WuaqaBW~~uC,W~~Uq0@~~U u@@@Ou~,U~~W~ma~~~~W;@@@$U~W~~W~~~ ",
" ~WWWW~WWE,W~WB;uBWWW,m,W~WH,uBWWWuu;777BW,UWW~WmuWW~WW,,77qW~WWW~WWW ",
" WWWWWWWWH sWW7O7@WWU s sWW7Oq$TWBOs HWWWWO7WWWWs UWWWW@7WWWWWWWWWWWW ",
" WWWWWWWWH sWW7O7ORWH s sWW7@T.7W$,s HWWWWO7WWRWp HWRWWO6WRWWWWWWRWWW ",
" RRRRRRRRH pRR6O6$spp p yps>ORp >.Hp.ppsRRO>psVRp.pppRRO>ppVRRRRWRRRR ",
" RRPRRRRRL$GRRN-pO   $V6.  .6RR>-pRV$   >R9.  .VV$   >R9X  .VRRRRRRRR ",
" RPRRPPPRPRPPRRPRLGGGLPRGGGGPRPRPPRPJGGGJPPGGGGRRJGGGJPRGGGGRPRPPPPPR ",
" PPPPPPPPPPPPPPPPPPLGGGJPPGGGAPPJGGGJPGGGGGJJPPAGGGJPPPPPPPPPPPPPPPPP ",
" KPPPKPPKPPKPPKPKPjo   oy*.  .-jO   Oe:    y6eeO   ePPPKPPKPPPKPPPKPP ",
" KKKPKKPKKPKPKKPKPi MAAO6o2AAy i MAAO2KAjAAK2O2oAAAKKKPKKPKPKPKKPKKPK ",
" KKKKKKKKKKKKKKKKKi AKKo2o2KKt i AKKO2KK28KK2O2OKKKKKKKKKKKKKKKKKKKKK ",
" FKKKKKFKKKKKKKKFKt ZKKo2o2KKt i ZFKo2KK22KK2O2oKKKKKKFKKKKKFKKKKFKKK ",
" KFKFFFKFFFFFFFFKFhoooo*w*ooo#*hoOOo*wFK22FFwhwOooozFFKFFFFFFKFFKFFFF ",
" FFFFFFFFFFFFFFFFFh*212kF=:22=Oh&2:#kFFFtZFFg&w=112ZFFFFFFFFFFFFFFFFF ",
" FFFFFFDDFFFFFDFFFr cFDFDo2DFt r cS.tFFDk4FD1o1oFFFFFDFFFFFFFFFFFFDFF ",
" DDDFDDDDFFDDDDFDDr cFDDDo1DDt r cD=+DDD11DF1o1oDDDDDDFDDDDDFDDDFDDDD ",
" DDDDDDDDDDDDDDDDDr cDDDDo1DDr r cnk lDD11DD1o1+rrfDDDDDDDDDDDDDDDDDD ",
" DDnDnDDDDDDDDnDDDf=DDnDD&gnDx+f=DDD=5Dng3DDg&ro   5DDDnDDDnDDDnDnDnD ",
" nDnnnnnnnnnnnnnnnnnnnnnnDDnnnnnnnnnnnnDnnnnDnnbxxxbnnnnnnnnnnnDnnnDn ",
" nnnnnnnnnnnnnnnnnnnnnnnnnnnnnnnnnnnnnnnnnnnnnnnnnnnnnnnnnnnnnnnnnnnn ",
" vnnnvnnvnnnnvnnvnnnnvnnnvnnnvnnnnvnnvnnnvnnnvnvvnvnnvnnnnvnvnnnnvnnn ",
" vvvvvvvvvvvvvvvvvvvvvvvvvvvvvvvvvvvvvvvvvvvvvvvvvvvvvvvvvvvvvvvvvvvv ",
"                                                                      "
};
