/* XPM */
static char *result[] = {
/* columns rows colors chars-per-pixel */
"70 30 197 2 ",
"   c black",
".  c #FF4800",
"X  c #FF4900",
"o  c #FF4801",
"O  c #FF4901",
"+  c #FF4A00",
"@  c #FF4B00",
"#  c #FF4A01",
"$  c #FF4B01",
"%  c #FF4D00",
"&  c #FF4D01",
"*  c #FF4E00",
"=  c #FF4F00",
"-  c #FF5000",
";  c #FF5001",
":  c #FF5200",
">  c #FF5300",
",  c #FF5201",
"<  c #FF5301",
"1  c #FF5500",
"2  c #FF5501",
"3  c #FF5600",
"4  c #FF5601",
"5  c #FF5800",
"6  c #FF5900",
"7  c #FF5801",
"8  c #FF5901",
"9  c #FF5B00",
"0  c #FF5B01",
"q  c #FF5C00",
"w  c #FF5C01",
"e  c #FF5E00",
"r  c #FF5F00",
"t  c #FF5E01",
"y  c #FF5F01",
"u  c #FF6200",
"i  c #FF6300",
"p  c #FF6201",
"a  c #FF6301",
"s  c #FF6500",
"d  c #FF6501",
"f  c #FF6600",
"g  c #FF6601",
"h  c #FF6800",
"j  c #FF6900",
"k  c #FF6801",
"l  c #FF6901",
"z  c #FF6C00",
"x  c #FF6D00",
"c  c #FF6C01",
"v  c #FF6D01",
"b  c #FF7000",
"n  c #FF7100",
"m  c #FF7001",
"M  c #FF7300",
"N  c #FF7301",
"B  c #FF7400",
"V  c #FF7401",
"C  c #FF7700",
"Z  c #FF7701",
"A  c #FF7801",
"S  c #FF7A01",
"D  c #FF7B01",
"F  c #FF7E01",
"G  c #FF7F01",
"H  c #FF7E02",
"J  c #FC641F",
"K  c #FC661F",
"L  c #FC691F",
"P  c #FC6C1F",
"I  c #FC741F",
"U  c #FC7B1F",
"Y  c #FC6320",
"T  c #FC6420",
"R  c #FC6920",
"E  c #FC6B20",
"W  c #FC6E20",
"Q  c #FC6F20",
"!  c #FC7120",
"~  c #FC7220",
"^  c #FC7420",
"/  c #FC7520",
"(  c #FC7820",
")  c #FC7B20",
"_  c #FC7C20",
"`  c #FC7E20",
"'  c #F97136",
"]  c #F97C37",
"[  c #F67D49",
"{  c #FF8201",
"}  c #FF8301",
"|  c #FF8202",
" . c #FF8501",
".. c #FF8601",
"X. c #FF8502",
"o. c #FF8602",
"O. c #FF8901",
"+. c #FF8A01",
"@. c #FF8902",
"#. c #FF8A02",
"$. c #FF8C01",
"%. c #FF8D01",
"&. c #FF8C02",
"*. c #FF8D02",
"=. c #FF9001",
"-. c #FF9101",
";. c #FF9301",
":. c #FF9002",
">. c #FF9302",
",. c #FF9401",
"<. c #FF9601",
"1. c #FF9701",
"2. c #FF9402",
"3. c #FF9602",
"4. c #FF9702",
"5. c #FF9A01",
"6. c #FF9A02",
"7. c #FF9D01",
"8. c #FF9E01",
"9. c #FF9D02",
"0. c #FF9E02",
"q. c #FFA001",
"w. c #FFA101",
"e. c #FFA002",
"r. c #FFA102",
"t. c #FC8220",
"y. c #FC8520",
"u. c #FC8521",
"i. c #FC8820",
"p. c #FC8F20",
"a. c #FC8F21",
"s. c #F98036",
"d. c #F99137",
"f. c #F6824A",
"g. c #F38B5A",
"h. c #F38E5A",
"j. c #F08C69",
"k. c #F08D69",
"l. c #F08F69",
"z. c #F09169",
"x. c #F09369",
"c. c #F09769",
"v. c #F09969",
"b. c #F09A69",
"n. c #F09B69",
"m. c #F09D69",
"M. c #F09E69",
"N. c #F09F69",
"B. c #F09F6A",
"V. c #ED9C77",
"C. c #ED9D77",
"Z. c #EDA577",
"A. c #EDA677",
"S. c #EDA777",
"D. c #E99A84",
"F. c #E99B84",
"G. c #E99C84",
"H. c #E99F84",
"J. c #E9A184",
"K. c #E9A284",
"L. c #E9A484",
"P. c #E9AA84",
"I. c #E9AC84",
"U. c #E6A290",
"Y. c #E6A390",
"T. c #E6A490",
"R. c #E6A590",
"E. c #E6A690",
"W. c #E6A790",
"Q. c #E6A890",
"!. c #E6AA90",
"~. c #E6AB90",
"^. c #E6AC90",
"/. c #E6AD90",
"(. c #E6AE90",
"). c #E6AF90",
"_. c #E3AF9C",
"`. c #E6B090",
"'. c #E6B191",
"]. c #E3B69C",
"[. c #DCB7B2",
"{. c #DCBAB2",
"}. c #DCBBB2",
"|. c #DCBCB2",
" X c #DCBFB2",
".X c #D9BFBC",
"XX c #E0B0A7",
"oX c #E0BAA7",
"OX c #E0BBA7",
"+X c #D9C0BC",
"@X c #D9C2BC",
"#X c #D9C3BC",
"$X c #D9C4BC",
"%X c #D6C7C6",
"&X c #D2CCD0",
"*X c #D2CDD0",
"=X c #CFD2D9",
/* pixels */
"                                                                                                                                            ",
"  e.e.r.e.q.e.w.e.q.q.e.q.e.q.q.q.q.e.q.w.r.e.e.q.q.e.e.q.r.q.e.e.e.e.e.e.e.e.q.q.r.q.q.e.e.e.e.e.q.e.e.e.q.q.q.w.e.q.q.e.q.e.q.q.q.e.e.q.  ",
"  9.9.9.9.7.9.9.7.9.7.9.0.9.7.7.9.8.0.9.9.9.9.7.9.7.0.7.9.9.0.7.7.9.9.7.7.9.9.7.7.9.9.7.7.8.8.7.9.9.9.7.7.9.9.9.8.9.0.9.9.7.7.9.0.9.9.7.9.  ",
"  5.5.6.6.5.6.6.5.5.6.6.6.5.5.5.5.6.6.6.6.6.6.6.6.5.5.6.6.6.5.5.5.6.6.6.6.6.5.5.6.5.6.6.6.5.5.6.5.5.6.6.6.6.5.5.6.5.6.6.6.6.6.5.6.6.6.5.5.  ",
"  4.<.1.4.1.<.4.1.4.1.4.4.4.4.<.3.<.1.4.4.1.4.3.1.1.4.<.4.3.1.3.4.1.1.4.1.1.1.1.1.4.<.4.4.1.4.4.1.4.<.4.1.1.1.1.1.3.4.<.<.3.3.4.4.4.4.1.1.  ",
"  ,.,.,.>.;.2.2.;.,.;.2.,.,.,.,.,.;.>.;.;.;.;.2.>.,.2.>.;.;.;.2.2.;.2.;.>.;.;.,.;.2.>.2.2.;.,.>.,.;.,.;.;.;.>.,.>.,.2.;.>.,.,.>.2.,.>.>.2.  ",
"  =.:.=.:.=.=.=.=.=.=.:.=.=.=.=.=.:.:.-.:.:.=.=.:.:.:.=.=.=.:.=.=.:.:.=.=.=.:.:.=.=.:.=.=.:.:.=.=.=.=.:.:.=.=.=.=.=.=.-.:.=.=.-.-.=.:.=.=.  ",
"  %.%.$.%.%.$.$.%.%.$.$.%.%.%.*.&.$.$.*.$.$.&.$.*.%.%.%.%.%.%.%.%.%.$.*.$.&.&.%.%.$.%.*.%.%.%.%.%.$.$.$.%.%.%.%.%.$.$.%.$.*.%.%.*.%.*.%.%.  ",
"  @.@.O.+.O.O.O.O.O.O.O.O.O.O.O.O.O.O.#.O.O.O.@.p.a.p.a.p.O.O.O.O.p.p.p.p.p.O.O.O.a.p.a.p.a.O.O.O.+.O.O.O.O.O.O.O.@.@.O.O.O.O.O.O.O.@.O.O.  ",
"   . . . ..... ... .X. ... ..... . .....X. . .].*X=X=X=X=X'.d.A. X=X=X=X=X$XS.d.OX=X=X=X=X*XI... . . ....... ...X.o.....X.....o. .o... .o.  ",
"  { { { { { { { { | { { { { | { { { { { { { { =XoX).).`.Z.*XN.).*XP.).).).).$XB.=X).).).).P.=Xi.{ { { { { { { { { { { | { { } { { { { { |   ",
"  F G F F F G F G G G F F F F G G G F G G F F =X(.F H G y.=Xm.(.=Xy.G F G (.#XM.=XM.G F G M.=Xu.G F F F H G F F F F F H G F G F F G F F F   ",
"  S D D D D D D D D S D D D S S S D D D D D S =X/.S S D t.=Xn./.=Xt.D D D /.#Xn.=Xn.D D D n.=Xt.D S D D D D D D D D D D D D S D D D D S D   ",
"  Z Z Z Z Z Z Z Z Z Z Z Z A A A Z Z Z Z Z Z Z =X~.Z Z A ` =Xb.^.=X` Z Z A ~.@Xv.=Xv.Z Z Z v.=X` Z Z Z Z Z Z Z Z A Z Z A Z Z Z Z A C Z Z Z   ",
"  V N B M V M V N V N N N V V M N V N V N V V *XL.c.c.c.c.|.c.!.|.c.c.c.c.C.@Xc.@X) N N V U %X_ V B N B N N V V N V M B V N M V V N V B N   ",
"  b m b m m m b m m m b m m m b b m m b b m m K.&X=X=X=X=XV.m h._.=X=X=X=X}.s.( h.m m m m m h.m m n m m m b m m m m m b m m m m b m m m m   ",
"  c z v z c x x c v v c c c c z c v c c z c c =XJ.x.x.x.g.v c W.+Xx.x.Q.{./ v x.&X^ c c v ] &XI c c c x c v v c c v c z c v x c c c c z c   ",
"  j j l j k j l l l l j l j l l j l j l j j l =XE.l l j j l j E.=X~ l f.=XH.l z.=Xz.l l l z.=X! j l l l l k j l l j j l j l h l l j l l l   ",
"  g g g d g f s g g f d d d g g d g d g g d f =XR.d g g d f s R.=XQ g d .X.Xd l.=Xl.f d s l.=XW g s g s d g s f s g f g d f s d g g d d g   ",
"  u a i u u u p u i p p i i p u u p u p u p i =XT.u i a p p u T.=XE i p G.=X[ k.=Xk.p p u k.=XP p a u i p p p p a u p p u p p a p a p u p   ",
"  r r r y r y y r e y y r r y y e y r e r y r =XY.r y y y t r Y.=XR r e ' =XU.j.&XF.Y.U.Y.Y.=XL y y y r r r y y y y y r r t e y y y t r y   ",
"  w q q q w 0 0 q 0 9 0 9 q w 0 q w w w q w w [.K 9 9 w q w q D.D.0 w w 9 D.XXK D.=X=X=X=X=XU.w q w q 0 0 0 0 9 0 w 9 0 9 9 9 9 w 9 q w 9   ",
"  7 6 6 6 5 6 6 7 5 6 6 5 6 8 5 6 7 5 5 7 7 6 5 5 8 5 5 6 7 7 6 6 6 5 6 8 7 7 7 8 J Y Y T Y 6 6 6 7 5 5 6 8 5 7 5 6 5 7 8 8 6 8 8 7 6 6 7   ",
"  3 2 3 3 1 3 4 1 1 2 1 3 2 2 1 4 3 3 3 1 4 1 4 2 1 1 1 2 4 1 2 3 4 2 3 3 1 1 2 4 1 3 4 1 1 1 3 1 3 3 4 3 4 1 2 1 3 3 2 4 1 3 3 4 1 2 4 3   ",
"  > > > , > : : < > < < , : > > > , > < > < , : > , > : > < : : > > : < > : < > : < > , , : > < > : < > : > : , > : : > : : , : , > : , >   ",
"  - - - ; - - = - = - - - - - ; - - - ; - - - - = = - - - - - - - - - - = - - ; - - ; = - ; - - = - - - - - = ; - - - - - - - = ; - - - -   ",
"  % % * * % % % % % % % * % % & & & % * & % % % % * % % % & % % & & % % % % & % % % * % * * % % % % % % % % % % % * & % % & % % % % & % *   ",
"  @ @ # @ + @ @ + @ @ @ @ @ @ + @ @ + @ + + + $ # + @ + @ @ + + $ $ # + + @ $ @ @ @ # @ @ @ @ @ @ @ @ @ @ + @ + $ + @ @ + @ # + + + @ + @   ",
"  O . X . . X X . O . X . X . X X . . . . . o . X O X o X . X X . . . . . . . . O . . . . . o X . O X O X . . X . O . X O X . o . . X X .   ",
"                                                                                                                                            "
};
