/* XPM */
static char *result[] = {
/* columns rows colors chars-per-pixel */
"70 30 231 2 ",
"   c black",
".  c #FF5D00",
"X  c #FF5D01",
"o  c #FF5E00",
"O  c #FF5F00",
"+  c #FF5E01",
"@  c #FF5F01",
"#  c #FF6000",
"$  c #FF6001",
"%  c #FF6200",
"&  c #FF6300",
"*  c #FF6201",
"=  c #FF6400",
"-  c #FF6500",
";  c #FF6401",
":  c #FF6501",
">  c #FF6600",
",  c #FF6700",
"<  c #FF6601",
"1  c #FF6701",
"2  c #FF6900",
"3  c #FF6901",
"4  c #FF6A00",
"5  c #FF6B00",
"6  c #FF6A01",
"7  c #FF6B01",
"8  c #FF6C00",
"9  c #FF6C01",
"0  c #FF6E00",
"q  c #FF6F00",
"w  c #FF6E01",
"e  c #FF6F01",
"r  c #FF7000",
"t  c #FF7100",
"y  c #FF7001",
"u  c #FF7101",
"i  c #FF7300",
"p  c #FF7301",
"a  c #FF7400",
"s  c #FF7401",
"d  c #FF7600",
"f  c #FF7700",
"g  c #FF7601",
"h  c #FF7701",
"j  c #FF7800",
"k  c #FF7900",
"l  c #FF7801",
"z  c #FF7901",
"x  c #FF7B00",
"c  c #FF7B01",
"v  c #FF7C00",
"b  c #FF7C01",
"n  c #FF7E01",
"m  c #FF7F01",
"M  c #FF7826",
"N  c #FF7926",
"B  c #FF7827",
"V  c #FF7927",
"C  c #FF7B26",
"Z  c #FF7B27",
"A  c #FF7D26",
"S  c #FF7C27",
"D  c #FF7D27",
"F  c #FF7F27",
"G  c #FF8001",
"H  c #FF8101",
"J  c #FF8301",
"K  c #FF8302",
"L  c #FF8401",
"P  c #FF8601",
"I  c #FF8701",
"U  c #FF8402",
"Y  c #FF8602",
"T  c #FF8702",
"R  c #FF8801",
"E  c #FF8901",
"W  c #FF8B01",
"Q  c #FF8802",
"!  c #FF8902",
"~  c #FF8B02",
"^  c #FF8C01",
"/  c #FF8E01",
"(  c #FF8C02",
")  c #FF8E02",
"_  c #FF9001",
"`  c #FF9101",
"'  c #FF9301",
"]  c #FF9002",
"[  c #FF9102",
"{  c #FF9302",
"}  c #FF9401",
"|  c #FF9501",
" . c #FF9601",
".. c #FF9502",
"X. c #FF9602",
"o. c #FF9801",
"O. c #FF9901",
"+. c #FF9A01",
"@. c #FF9B01",
"#. c #FF9802",
"$. c #FF9902",
"%. c #FF9A02",
"&. c #FF9B02",
"*. c #FF9D01",
"=. c #FF9E01",
"-. c #FF9F01",
";. c #FF9D02",
":. c #FF9E02",
">. c #FF9F02",
",. c #FFA001",
"<. c #FFA101",
"1. c #FFA201",
"2. c #FFA002",
"3. c #FFA102",
"4. c #FFA202",
"5. c #FF8227",
"6. c #FF8327",
"7. c #FF8427",
"8. c #FF8626",
"9. c #FF8627",
"0. c #FF8927",
"q. c #FF8A27",
"w. c #FF8B27",
"e. c #FF8D27",
"r. c #FF8E27",
"t. c #FF9027",
"y. c #FF9327",
"u. c #FF9427",
"i. c #FF9727",
"p. c #FF9A27",
"a. c #FF9C27",
"s. c #FF9A29",
"d. c #FF8D42",
"f. c #FF8F42",
"g. c #FF9842",
"h. c #FF9258",
"j. c #FF9458",
"k. c #FF9758",
"l. c #FF9B58",
"z. c #FF9D58",
"x. c #FF9F58",
"c. c #FFA042",
"v. c #FFA242",
"b. c #FFA442",
"n. c #FFA542",
"m. c #FFA158",
"M. c #FFA758",
"N. c #FFAA58",
"B. c #FFAC58",
"V. c #FFAC59",
"C. c #FFA66C",
"Z. c #FFAF6C",
"A. c #FFB26C",
"S. c #FFB46C",
"D. c #FFA77D",
"F. c #FFA87D",
"G. c #FFA97D",
"H. c #FFAA7D",
"J. c #FFAB7D",
"K. c #FFAC7D",
"L. c #FFAD7D",
"P. c #FFAE7D",
"I. c #FFB17D",
"U. c #FFB27D",
"Y. c #FFB37D",
"T. c #FFB47D",
"R. c #FFB57D",
"E. c #FFB67D",
"W. c #FFB77D",
"Q. c #FFB87D",
"!. c #FFB97D",
"~. c #FFBB7D",
"^. c #FFB18D",
"/. c #FFB48D",
"(. c #FFB78D",
"). c #FFB88D",
"_. c #FFB98D",
"`. c #FFBA8D",
"'. c #FFBB8D",
"]. c #FFB99C",
"[. c #FFBA9C",
"{. c #FFBC9C",
"}. c #FFBD9C",
"|. c #FFC08D",
" X c #FFC38D",
".X c #FFC09C",
"XX c #FFC19C",
"oX c #FFC29C",
"OX c #FFCA9C",
"+X c #FFC4AA",
"@X c #FFC5AA",
"#X c #FFC6AA",
"$X c #FFC7AA",
"%X c #FFC8AA",
"&X c #FFC9AA",
"*X c #FFCAAA",
"=X c #FFCBAA",
"-X c #FFCCAA",
";X c #FFCDAA",
":X c #FFCEAA",
">X c #FFCFAA",
",X c #FFD0AA",
"<X c #FFD1AA",
"1X c #FFCCB8",
"2X c #FFCDB8",
"3X c #FFCEB8",
"4X c #FFD2B8",
"5X c #FFD6B8",
"6X c #FFD7B8",
"7X c #FFD6C5",
"8X c #FFD8C5",
"9X c #FFD9C5",
"0X c #FFDED1",
"qX c #FFDFD1",
"wX c #FFE0D1",
"eX c #FFE1D1",
"rX c #FFE2D1",
"tX c #FFE5D1",
"yX c #FFE7DD",
"uX c #FFE8DD",
"iX c #FFE9DD",
"pX c #FFEADD",
"aX c #FFEBDD",
"sX c #FFECDD",
"dX c #FFEFE9",
"fX c #FFF1E9",
"gX c #FFF2E9",
"hX c #FFF7F4",
"jX c #FFF8F4",
"kX c #FFF9F4",
"lX c white",
/* pixels */
"                                                                                                                                            ",
"  4.1.3.4.4.1.1.4.3.4.1.4.4.4.1.3.4.4.3.1.3.1.1.3.4.1.1.1.1.4.4.4.1.4.1.<.3.<.4.1.<.1.4.1.3.1.<.4.4.4.1.4.1.1.3.1.<.4.4.4.1.4.4.4.1.3.4.<.  ",
"  2.-.>.,.,.,.-.,.-.,.-.>.-.>.2.>.2.-.,.2.-.2.,.-.,.>.2.,.-.-.,.2.2.>.2.>.-.>.,.2.,.,.>.,.2.-.-.>.>.,.>.,.-.,.2.2.>.,.>.-.2.2.-.-.,.>.-.>.  ",
"  ;.;.:.;.*.:.*.*.*.;.:.*.*.*.*.;.*.*.;.;.*.:.=.;.=.=.*.=.*.*.;.=.*.=.*.;.;.*.;.;.;.*.=.=.;.;.;.;.;.*.*.=.;.*.*.*.*.*.;.*.*.*.*.*.:.;.;.=.  ",
"  &.&.+.@.@.&.&.@.@.&.@.@.@.&.@.&.+.%.+.&.&.@.&.&.&.&.+.&.@.@.@.@.@.&.+.%.&.&.%.&.+.@.@.&.@.@.@.&.@.&.&.@.&.&.&.@.@.@.&.%.&.&.@.&.@.+.@.+.  ",
"  O.o.$.$.o.O.O.O.o.o.#.O.O.o.#.#.o.#.o.O.#.o.O.O.O.O.#.#.#.#.$.o.o.$.O.#.o.#.O.o.o.#.#.#.$.o.#.o.O.O.O.O.o.#.o.#.o.$.#.o.o.O.O.O.O.O.O.$.  ",
"  X.X. . .X. .X.X. .X. .X. . . . .X...X. . ... . .X.X. ... .X.X.X.X... . .X.X.| X.|  .|  . ... .X. . . . . .X. .X.X. .X.X. .X. .X.X.X. . .  ",
"  { { ' ' a.<X<X<X<X<X<Xn.' ~.' } ' { ' { a.a.B.a.'  X<X<X<X<X<X<X<Xa.B.<X<X<X<X<X<X<XV.' S.<X<X<X<X<XOX{ { a.<X<X<X<X<X<Xb.' } } } ' ' {   ",
"  ` ` [ ` sXtXlXlXlXlXgXgXA.sX6X` ` ` ` v.gX,X,XsX_ N.kXlXlXlXlXlXsXp.s.sXlXlXlXlXlXkXN.A.tXsXlXlXlXlX6X[ _ sXtXlXlXlXlXgXgXA._ ` ] ` [ [   ",
"  / / / / lX>XQ.!.Q.Q.6XlXQ.aXaX/ / / / !.lX>X>XlXi./ c.Q.!.!.Q.Q.i./ ) i.Q.!.Q.Q.Q.c./ Q.lX|.Q.Q.Q.Q.) / i.lX>XQ.Q.Q.!.5XlXQ./ ) / / / )   ",
"  ^ ~ W W lX:X~ ^ ^ ~ :XlXW.aXaX^ ^ W ^ W.lX:X:XlXu.( W ^ Z.aXu.W ^ ^ ^ ~ ~ ^ gXM.W W W W.lXW.( ~ ^ ^ W W u.lX:X^ W ( W :XlXW.~ W W ^ W ^   ",
"  ! E E E lX;XQ ! ! E ;XlXE.pXpXE R E Q E.lX;X;XlXy.E E E E.lX;XE ! ! R E Q y.lXpXR E E R.lXE.E E E E E E y.lX;XE E Q ! ;XlXE.E E E E ! E   ",
"  P P P P lX-XP P P Y -XlXT.pXpXP I I P T.lX-X-XlXt.P P P T.lX;XP I P P P P t.lXpXP Y P T.lXT.P P P P P P t.lX-XP P P P -XlXT.I P P P Y T   ",
"  J L L J lX'.L J J L '.lXU.pXrXJ L L J g.jX=X=XjXL L J L U.lX=XJ L L L U J r.lXpXL L J U.jXm.r.e.r.r.L J e.lX'.r.e.r.r.'.lXY.J L J J J K   ",
"  H H H H I.H H H H H G `.w.I.w.G H H H H x.x.x.x.H H H H I.lX_.H H G H H H w.lX4XH G G q.*XjXlXlXlXlXrXH H oXfXlXlXlXlXjXoXw.H H H H H H   ",
"  n n n n eX0.n n n n q.iXC.9Xz.n n n n n &X).0.iX0.n n n 0.).n n m n n n n n XXn n n n C.9XXX&X&X&X&Xz.n n eXXX*X&X&X&X).n n n n n n n n   ",
"  c b b c lX%Xc b x c %XlXP.iXiXc b c x P.lX%X%XlX9.b c x b l.l.c c b c c b b 9.(.c c x P.lXP.v c b x c c 8.lX&Xc c .XjXl.x c b v b b c c   ",
"  j k k z lX%Xk z l z %XlXL.uXuXl z z l L.lX%X%XlX7.z z z f.jX%Xz z l k z l z uXuXk z l L.lXL.z z z k k k 7.lX%Xl z f.lXwXl j z k z z z l   ",
"  g g g g lX$Xh k.k.g $XlXJ.uXuXg d g h J.lX$X$XlX5.d d f J.lX$Xh g g g g g 6.lXuXg g g J.lXK.d g g d g g 5.lX$Xg g g 8XlXd.g d g g g d g   ",
"  s p p p lX#Xp uXhXa #XlXG.yXyXp p p p G.lX@X#XlXF s p i G.lX#Xi s s p i i F lXuXs p p H.lXG.s p p a p p F lX#Xs p s /.lX}.p i i i p p p   ",
"  u u t u lX+X@X@X3X@X7XlXF.yX7X@X@X@X@X3XhX@X@XlXS t t u F.lX+Xu u r u y u D lXyXu u t F.hX{.@X@X@X@Xj.u A lX@Xy u u u hXyXy t t u u u u   ",
"  w 0 0 w ^.hXlXlXlXlXlX[.Z D.yXlXlXlXlXlX2Xh.C qX0 0 0 q 0 2X[.w w 0 0 q w e [.0Xe q e Z [.lXlXlXlXlXdXw 0 0XZ e w w 0 ^.yXZ e 0 q e 0 e   ",
"  8 7 9 8 5 V N ].1XV V 9 9 8 8 V V M V N 9 5 5 7 9 8 9 9 9 9 8 9 5 8 9 9 8 9 8 9 7 8 8 9 7 N B V M B 9 9 5 7 7 9 7 5 8 7 8 9 5 9 8 9 9 7   ",
"  3 4 3 3 3 3 4 ].1X2 3 2 2 3 2 4 3 6 3 2 4 3 3 4 3 2 6 3 2 3 2 2 3 3 2 3 2 3 3 2 3 3 2 2 4 2 6 2 3 2 2 3 4 3 6 3 2 3 3 2 2 2 2 2 2 3 2 2   ",
"  > , , , 1 1 , 1 , 1 > > , , > 1 > 1 1 , , > , > 1 , 1 , , , , 1 > 1 1 , > 1 > , , 1 < , , , , , , 1 , < 1 1 1 < 1 1 , 1 , 1 1 , 1 > , 1   ",
"  - ; ; ; : = - = = ; = = ; : ; ; ; = ; - = = ; : ; ; = = : = : : : = = = = ; = : ; = = = = : ; : ; : ; ; = ; : = ; : = = = - : ; = : - ;   ",
"  * % % * % % * * % * % % % % % % & % % % * % * % % * % % * % * % % * % * % % * * % * % & % * & % * * * * * % * * % * % * * * % * * % * %   ",
"  # # $ # # # @ $ # O $ # $ # $ O $ # # # # O # $ O $ # $ O $ # $ # # $ O $ O # # # # # $ # $ # $ # @ $ # # # $ O # O $ # # $ # # # $ @ #   ",
"  X o . o o . + . X o o + . X o . . . o X o . X o o o . X . o o o + o o o + . X + o o o . o X . o o o . + o . o . o o . + o o + X o o + o   ",
"                                                                                                                                            "
};
