/* XPM */
static char *result[] = {
/* columns rows colors chars-per-pixel */
"70 30 228 2 ",
"   c black",
".  c #FF4800",
"X  c #FF4900",
"o  c #FF4801",
"O  c #FF4901",
"+  c #FF4A00",
"@  c #FF4B00",
"#  c #FF4A01",
"$  c #FF4B01",
"%  c #FF4D00",
"&  c #FF4D01",
"*  c #FF4E00",
"=  c #FF4F00",
"-  c #FF5000",
";  c #FF5001",
":  c #FF5200",
">  c #FF5300",
",  c #FF5201",
"<  c #FF5301",
"1  c #FF5500",
"2  c #FF5501",
"3  c #FF5600",
"4  c #FF5601",
"5  c #FF5800",
"6  c #FF5900",
"7  c #FF5801",
"8  c #FF5901",
"9  c #FF5B00",
"0  c #FF5B01",
"q  c #FF5C00",
"w  c #FF5C01",
"e  c #FF5E00",
"r  c #FF5F00",
"t  c #FF5E01",
"y  c #FF5F01",
"u  c #FF6200",
"i  c #FF6300",
"p  c #FF6201",
"a  c #FF6301",
"s  c #FF6500",
"d  c #FF6501",
"f  c #FF6600",
"g  c #FF6601",
"h  c #FF6900",
"j  c #FF6801",
"k  c #FF6901",
"l  c #FF6C00",
"z  c #FF6D00",
"x  c #FF6C01",
"c  c #FF6D01",
"v  c #FF7000",
"b  c #FF7001",
"n  c #FF7300",
"m  c #FF7301",
"M  c #FF7400",
"N  c #FF7401",
"B  c #FF7700",
"V  c #FF7701",
"C  c #FF7800",
"Z  c #FF7801",
"A  c #FF7A01",
"S  c #FF7B01",
"D  c #FF7E01",
"F  c #FF7F01",
"G  c #FF7E02",
"H  c #FC601F",
"J  c #FC611F",
"K  c #FC631F",
"L  c #FC641F",
"P  c #FC651F",
"I  c #FC691F",
"U  c #FC6B1F",
"Y  c #FC6E1F",
"T  c #FC721F",
"R  c #FC781F",
"E  c #FC7B1F",
"W  c #FC7C1F",
"Q  c #FC6020",
"!  c #FC6120",
"~  c #FC6520",
"^  c #FC6920",
"/  c #FC6B20",
"(  c #FC6E20",
")  c #FC7220",
"_  c #FC7820",
"`  c #FC7B20",
"'  c #FC7C20",
"]  c #FC7E20",
"[  c #F97436",
"{  c #F97737",
"}  c #F67649",
"|  c #F67749",
" . c #F67849",
".. c #FF8201",
"X. c #FF8301",
"o. c #FF8202",
"O. c #FF8501",
"+. c #FF8601",
"@. c #FF8602",
"#. c #FF8901",
"$. c #FF8A01",
"%. c #FF8902",
"&. c #FF8C01",
"*. c #FF8D01",
"=. c #FF8C02",
"-. c #FF8D02",
";. c #FF9001",
":. c #FF9101",
">. c #FF9301",
",. c #FF9002",
"<. c #FF9302",
"1. c #FF9401",
"2. c #FF9601",
"3. c #FF9701",
"4. c #FF9402",
"5. c #FF9602",
"6. c #FF9702",
"7. c #FF9A01",
"8. c #FF9A02",
"9. c #FF9D01",
"0. c #FF9E01",
"q. c #FF9D02",
"w. c #FF9E02",
"e. c #FFA001",
"r. c #FFA101",
"t. c #FFA002",
"y. c #FFA102",
"u. c #FC8220",
"i. c #FC8520",
"p. c #FC8820",
"a. c #FC8C20",
"s. c #FC8F20",
"d. c #FC8F21",
"f. c #F98237",
"g. c #F98E37",
"h. c #F99437",
"j. c #F6824A",
"k. c #F6844A",
"l. c #F6944A",
"z. c #F6974A",
"x. c #F6974B",
"c. c #F6994A",
"v. c #F38C5A",
"b. c #F38E5A",
"n. c #F39A5A",
"m. c #F39C5A",
"M. c #F08869",
"N. c #F08A69",
"B. c #F08B69",
"V. c #F08C69",
"C. c #F08D69",
"Z. c #F08F69",
"A. c #F09169",
"S. c #F09569",
"D. c #F09769",
"F. c #F09969",
"G. c #F09B69",
"H. c #F09D69",
"J. c #F09E69",
"K. c #F09F69",
"L. c #F09F6A",
"P. c #ED9077",
"I. c #ED9177",
"U. c #ED9277",
"Y. c #ED9477",
"T. c #ED9A77",
"R. c #ED9E77",
"E. c #F0A269",
"W. c #EDA977",
"Q. c #EDA978",
"!. c #E99884",
"~. c #E99984",
"^. c #E99A84",
"/. c #E99B84",
"(. c #E99F84",
"). c #E9A184",
"_. c #E9A284",
"`. c #E9AC84",
"'. c #E9AD84",
"]. c #E6A190",
"[. c #E6A290",
"{. c #E6A390",
"}. c #E6A490",
"|. c #E6A590",
" X c #E6A690",
".X c #E6A790",
"XX c #E6A890",
"oX c #E6A990",
"OX c #E6AA90",
"+X c #E6AB90",
"@X c #E6AC90",
"#X c #E6AD90",
"$X c #E6AE90",
"%X c #E6AF90",
"&X c #E6AE91",
"*X c #E6AF91",
"=X c #E3A89C",
"-X c #E3A99C",
";X c #E3AE9C",
":X c #E6B290",
">X c #E6B390",
",X c #E6B291",
"<X c #E6B391",
"1X c #E3B09C",
"2X c #E3B59C",
"3X c #E3B69C",
"4X c #DCB7B2",
"5X c #DCB9B2",
"6X c #DCBAB2",
"7X c #DCBBB2",
"8X c #DCBFB2",
"9X c #D9BEBC",
"0X c #D9BFBC",
"qX c #E0B0A7",
"wX c #E0B2A7",
"eX c #E0B4A7",
"rX c #E0BBA7",
"tX c #D9C0BC",
"yX c #D9C2BC",
"uX c #D9C3BC",
"iX c #D9C4BC",
"pX c #D6C5C6",
"aX c #D6C7C6",
"sX c #D6C9C6",
"dX c #D2CBD0",
"fX c #D2CCD0",
"gX c #D2CDD0",
"hX c #CFD2D9",
/* pixels */
"                                                                                                                                            ",
"  t.t.y.t.e.t.r.t.e.e.t.e.t.e.e.e.e.t.e.r.y.t.t.e.e.t.t.e.y.e.t.t.t.t.t.t.t.t.e.e.y.e.e.t.t.t.t.t.e.t.t.t.e.e.e.r.t.e.e.t.e.t.e.e.e.t.t.e.  ",
"  q.q.q.q.9.q.q.9.q.9.q.w.q.9.9.q.0.w.q.q.q.q.9.q.9.w.9.q.q.w.9.9.q.q.9.9.q.q.9.9.q.q.9.9.0.0.9.q.q.q.9.9.q.q.q.0.q.w.q.q.9.9.q.w.q.q.9.q.  ",
"  7.7.8.8.7.8.8.7.7.8.8.8.7.7.7.7.8.8.8.8.8.8.8.8.7.7.8.8.8.7.7.7.8.8.8.8.8.7.7.8.7.8.8.8.7.7.8.7.7.8.8.8.8.7.7.8.7.8.8.8.8.8.7.8.8.8.7.7.  ",
"  6.2.3.6.3.2.6.3.6.3.6.6.6.6.2.5.2.3.6.6.3.6.5.3.3.6.2.6.5.3.5.6.3.3.6.3.3.3.3.3.6.2.6.6.3.6.6.3.6.2.6.3.3.3.3.3.5.6.2.2.5.5.6.6.6.6.3.3.  ",
"  1.1.1.<.>.4.4.>.1.>.4.1.1.1.1.1.>.<.>.>.>.>.4.<.1.4.<.>.>.>.4.4.>.4.>.<.>.>.1.>.4.<.4.4.>.1.<.1.>.1.>.>.>.<.1.<.1.4.>.<.1.1.<.4.1.<.<.4.  ",
"  ;.,.;.,.;.;.;.;.;.;.,.;.;.;.;.;.,.,.:.,.,.;.;.,.,.,.;.;.;.,.;.;.,.,.;.;.;.,.,.;.;.,.;.;.,.,.;.;.;.;.,.,.;.;.;.;.;.;.:.,.;.;.:.:.;.,.;.;.  ",
"  *.*.&.*.*.&.&.*.*.&.&.*.*.*.-.=.&.&.-.&.&.=.&.-.*.*.*.*.*.*.*.*.*.&.-.&.=.=.*.*.&.*.-.*.*.*.*.*.&.&.&.*.*.*.*.*.&.&.*.&.-.*.*.-.*.-.*.*.  ",
"  %.%.#.$.#.#.#.s.:X:X:X:X:X:Xh.#.#.'.<X:X:X:X,Xc.%.#.Q.:X:X:X:X:XW.#.s.#.#.#.#.#.%.#.%.#.d.:X:X:X>X:X:Xs.#.#.'.:X,X,X:X:Xc.#.#.#.#.%.#.#.  ",
"  O.O.O.O.+.+.O.iX8XhXhXhXhXsXsXm.rX3XhXhXhXhXgXx.O.`.3XgXhXhXhXhX`.+.E.3X+.+.O.@.+.+.+.+.iX8XhXhXhXhXiXa.+.rX3XhXhXhXhXgXz.+.@.O.@.+.O.@.  ",
"  ..............hX*XK.K.K.K.2XhXK.iXiXn.K.K.K.g.....%XhXl.K.K.K.n.....K.hXK...o.........p.hX%XK.K.K.K.p.....iXiXn.K.K.L.g...X...........o.  ",
"  D F D D D F D hX$XF D D D $XhXJ.uXuXF F D D F D D &XhXi.G D D D F F H.hXJ.G F D F F D i.hX$XG F D D D G F uXuXD D D G F D F D D F D D D   ",
"  A S S S S S S hX#XA S S S @XhXG.uXuXS S S A S S A @XhXu.S A S S S S G.hXG.S S S S S S u.hX@XS S A S S S S uXuXS S S S S S A S S S S A S   ",
"  V V V V V V V hX+XV V V Z @XhXF.yXyXV V V V V V V +XhX] V C Z V V V F.hXF.V V V V V V ] hX+XV V V V V V V yXyXZ V V Z V V V V Z B V V V   ",
"  N m M n N n N hXR.` ` ` ' R.hXD.yX1X' ` ' ' ` m N OXyXm N M ' ' m m D.gXf.N m N m m m ' hXR.' ' W ` M m m yX1X` ' E W ' m n N N m N M m   ",
"  v b v b b b v _.aXhXhXhXhXfX_.R S.7XhXhXhXhXhXS.b b._ b b 7XhXhXoXb _ b.b v b v b b b b _.aXhXhXhXhXfX_ v S.7XhXhXhXhXhXS.b b v b b b b   ",
"  x l c l x z z 6X).XX.X.X.XT.l x eX)..X.X.X.X).c c ).).x c k..X.X).6Xv.;Xc c l x x x x c 6X)..X.X.X.XT.x c c k..XXX.X.X).eX).x x x x l x   ",
"  h h k h j h k hX Xk h (.fXj.k h tXtXk h h k k k k  XhXT k h h ) hXtXA.hXA.k k k k k k ) hX Xj h k k k k j h k k h h k A.hX Xk k h k k k   ",
"  g g g d g f s hX|.f d { hX5Xg d tX0Xg g d f f f d |.hX( f s f ( hXtXZ.hXZ.d d g d f d Y hX|.d g s g s d g s f s g f g Z.hX|.d g g d d g   ",
"  u a i u u u p hX}.p p i wXhX[ u 0X0Xp u p i u u u }.hX/ p u p / hX0XC.hXC.u u p u p p U hX}.i p a u i p p p p a u p p C.hX}.a p a p u p   ",
"  r r r y r y y hX[.y y r Y.hX/.e 0X0Xe r y r r r r {.hX^ t r y I hX0XB.hXV.e r r r y e I hX{.r y y y r r r y y y y y r V.hX[.y y y t r y   ",
"  w q q q w 0 0 hX].9 0 9 q fX9Xq 9XqX[.[.[.[.^.q 9 ].9X^.[.[.[.].pX9XN.dX^.[.[.[.]. .q ~ hX[.[.[.[.[.U.0 0 0 P ].[.].].-XdX].9 w 9 q w 9   ",
"  7 6 6 6 5 6 6 4XK 6 6 5 6 I.9XL M.9XhXhXhXhXhX!.8 } =XhXhXhXhXhX4XP.L ~.hXhXhXhXhXpX7 8 P.dXhXhXhXhXhX| 8 5 4XhXhXhXhXhX=X| 8 8 7 6 6 7   ",
"  3 2 3 3 1 3 4 1 1 2 1 3 2 2 1 4 3 3 J H ! H ! 2 1 1 1 Q ! H Q J 4 2 3 3 H H Q ! H 3 4 1 1 H J H J J ! 3 4 1 2 H J J Q ! 1 3 3 4 1 2 4 3   ",
"  > > > , > : : < > < < , : > > > , > < > < , : > , > : > < : : > > : < > : < > : < > , , : > < > : < > : > : , > : : > : : , : , > : , >   ",
"  - - - ; - - = - = - - - - - ; - - - ; - - - - = = - - - - - - - - - - = - - ; - - ; = - ; - - = - - - - - = ; - - - - - - - = ; - - - -   ",
"  % % * * % % % % % % % * % % & & & % * & % % % % * % % % & % % & & % % % % & % % % * % * * % % % % % % % % % % % * & % % & % % % % & % *   ",
"  @ @ # @ + @ @ + @ @ @ @ @ @ + @ @ + @ + + + $ # + @ + @ @ + + $ $ # + + @ $ @ @ @ # @ @ @ @ @ @ @ @ @ @ + @ + $ + @ @ + @ # + + + @ + @   ",
"  O . X . . X X . O . X . X . X X . . . . . o . X O X o X . X X . . . . . . . . O . . . . . o X . O X O X . . X . O . X O X . o . . X X .   ",
"                                                                                                                                            "
};
