/* XPM */
static char *result[] = {
/* columns rows colors chars-per-pixel */
"70 30 64 1 ",
"  c black",
". c #260C00",
"X c #261000",
"o c #421400",
"O c #581F00",
"+ c #422100",
"@ c #582400",
"# c #582C00",
"$ c #6B2700",
"% c #6B2D00",
"& c #7D2E00",
"* c #6B3000",
"= c #6B3900",
"- c #7D3900",
"; c #7D4301",
": c #8D3600",
"> c #8D3C00",
", c #9C3D00",
"< c #8D4100",
"1 c #8D4D00",
"2 c #9C4200",
"3 c #9C4D00",
"4 c #9C5200",
"5 c #AA4301",
"6 c #AA4D01",
"7 c #B84700",
"8 c #AA5001",
"9 c #AA5D01",
"0 c #B85501",
"q c #B85A01",
"w c #B86801",
"e c #C54D00",
"r c #C55401",
"t c #C55901",
"y c #D15300",
"u c #D15C01",
"i c #DD5B01",
"p c #E95C00",
"a c #FF5700",
"s c #F45E00",
"d c #FF5B00",
"f c #C56401",
"g c #C56A01",
"h c #DD6001",
"j c #DD6B01",
"k c #D17601",
"l c #DD7D01",
"z c #E96D01",
"x c #F46301",
"c c #FF6200",
"v c #F46C01",
"b c #FF6B01",
"n c #E97101",
"m c #F47401",
"M c #FF7301",
"N c #F47B01",
"B c #FF7C01",
"V c #F48301",
"C c #FF8301",
"Z c #F48C01",
"A c #FF8A01",
"S c #FF9501",
"D c #FF9C02",
"F c #FFA202",
/* pixels */
"                                                                      ",
" FFFFFFFFFFFFFFFFFFFFFFFFFFFFFFFFFFFFFFFFFFFFFFFFFFFFFFFFFFFFFFFFFFFF ",
" DDFDFFDDFDDDFFDFDDFFDFDDFFDDFDFDFDFFDDFDFDFDFDFDFFDFDDFDFDFDFFDDFFFD ",
" DDDDDDDDDDDDDDDDDDDDDDDDDDDDDDFDDDDDDDDDDDDDDDDDDDDDDDDDDDDDDDDDDDDD ",
" DDDSDDSSDSDDDDDDDDDDDDSSDDSDDDSSDDSSDDDDDDDDDSSSDSDSDSDSDDDSDDDSSDDS ",
" SSSSSDSSDSDSSSSSSSSSSSSSSSSSSDSSSSSSSSSSSSSSSSSSSSSSSSSSSSSSSSSSSSSS ",
" SSSSSZZZZZZSSSSSZZZZZZSSSZZZZZZZSSSSZZZZZZSSSSSSSSSSSSSSZZZZZZSSSSSS ",
" SASZ9      #wA9+     XZS=       =Sw=      1Z=9SSSASS1kl1      =lSASS ",
" AAAg ;####=+#Z =#####lAAZ=#####=ZA##=####= g#XASASA9 g4X;####=.4SAAS ",
" AAAg 4AAAAV #V #AAAASAAAAAAAgAASAA# VAAAA4 g# ZAAAA4 g4 gAAAAg 4AAAA ",
" AAAg 4AAACV #V #CACAAAAAAAAV 9ACAA# VCAAA4 f# VCACA4 g4 gAAAAg 4CAAA ",
" ACAf 3CAACN #V #ACCCCCCCCCCV #CCCC# VCCCC4 f# VCCCA3 f4 gACCAf 4CCCC ",
" CCBf 3CCCCN @N #CCCCCCCCCCCN #CCCC# NCCCC3 f# NCCCC3 f3 fCCBCf 3CBCC ",
" CCBf qNmNNN@#N <NmNmNBCBCBBN @BCCB##BCBBCq t@.BCBCBq t3.jmNNNj.3CBCB ",
" BBBn8#     88B3-     <BBBBBm *BBBB8mBBBBBB6n8nBBBBBB8nq8X    .80BBBB ",
" BBBz-%@@@@@jMB--@#@@@6MBBBBB*mMMBB2jBBMBBB6n6mBBMBBB6z0<@@#@@*mMBBBB ",
" MMBt 6MMt@tMBm %MBMMMBMMMBMMBzMMBM@.MMMBM0 t@@MMMBM0 t2 hMM8*zMMBMBM ",
" MMMt 2MMM..vMv @MMMMMMMMMMMM>@MMMM@ mMMMM2 t@ vMMMM2 t2 qMMu %MMMMMM ",
" MMMt 2MMb> 6Mv @MbMMMMMMMMMv @MMMb@ vMMMb2 r@ vMMMM2 t2 tbMb@ hbMMMM ",
" bbbr 2bMby $bv @bbbbbbbbbbbv Obbbb@ vbbMb, r@ vbbbb, r, rbbb6 5Mbbbb ",
" bbbe ,bbbbO ix @bbbbbbbbbbbx @bbbb@ xbbbb, rO xbbbb, r, tbbbp obbbbb ",
" bcbe 5bbbb5 5x :OOOOOibbbcbx ObbccO$$@OOO:.eO$$OOOO:.e, ycbbb$ ybbcb ",
" ccby:ccccbx,&ceo     ocbcccb5$ccbce&      7xe&      5s55ccbcbp&5cbcc ",
" ccccccccccccccccssssscccccccccccccccssssssccccsssssscccccccccccccccc ",
" ccccdcccccdccdccccdccdcdccdccdccccccccdcdccccccdcdccccdcccdccdccdccd ",
" ddddddddccddddcdddddddcdccdddddcddddddcddddcddddcdddddddddddccddddcd ",
" dddddddddddddddddddddddddddddddddddddddddddddddddddddddddddddddddddd ",
" ddddadddadddadddddddadddadddadddadadadddadddadadddaddddddadddaddaddd ",
" aaaaaaaaaaaaaaaaaaaaaaaaaaaaaaaaaaaaaaaaaaaaaaaaaaaaaaaaaaaaaaaaaaaa ",
"                                                                      "
};
